/* XPM */
static char * maximize_pressed_xpm[] = {
"26 26 549 2",
"  	c None",
". 	c #061306",
"+ 	c #071A07",
"@ 	c #061407",
"# 	c #071708",
"$ 	c #0D250C",
"% 	c #0D270E",
"& 	c #0E3A0E",
"* 	c #0D3B0D",
"= 	c #0E420D",
"- 	c #0B340B",
"; 	c #062B05",
"> 	c #052D05",
", 	c #0F4A0F",
"' 	c #095E09",
") 	c #137514",
"! 	c #105810",
"~ 	c #052605",
"{ 	c #052C05",
"] 	c #063206",
"^ 	c #0B5D0A",
"/ 	c #0A470A",
"( 	c #062806",
"_ 	c #051A05",
": 	c #051205",
"< 	c #192818",
"[ 	c #1F301F",
"} 	c #1F2E1F",
"| 	c #1F3120",
"1 	c #263F26",
"2 	c #264226",
"3 	c #234723",
"4 	c #255525",
"5 	c #235723",
"6 	c #224922",
"7 	c #204B20",
"8 	c #205520",
"9 	c #1F4B1F",
"0 	c #246A25",
"a 	c #279627",
"b 	c #2A9C2B",
"c 	c #57BF57",
"d 	c #1F4D1F",
"e 	c #2A762A",
"f 	c #2AA12B",
"g 	c #205F21",
"h 	c #1F401F",
"i 	c #1B311B",
"j 	c #020802",
"k 	c #041104",
"l 	c #0F240E",
"m 	c #1A281A",
"n 	c #1A291A",
"o 	c #1B2D1B",
"p 	c #213B21",
"q 	c #234423",
"r 	c #20451F",
"s 	c #1A401A",
"t 	c #1C501C",
"u 	c #1A381A",
"v 	c #1A461A",
"w 	c #1B4C1B",
"x 	c #1A551A",
"y 	c #268E27",
"z 	c #259D25",
"A 	c #53C554",
"B 	c #2F8030",
"C 	c #1C4F1C",
"D 	c #4FB94F",
"E 	c #1D811D",
"F 	c #1A4E1A",
"G 	c #1A3A1A",
"H 	c #0C1D0C",
"I 	c #020702",
"J 	c #051005",
"K 	c #051605",
"L 	c #071907",
"M 	c #061906",
"N 	c #061706",
"O 	c #0A1F0A",
"P 	c #143914",
"Q 	c #113C11",
"R 	c #0A360B",
"S 	c #095109",
"T 	c #062606",
"U 	c #084008",
"V 	c #063806",
"W 	c #063906",
"X 	c #084608",
"Y 	c #096109",
"Z 	c #0B7D0B",
"` 	c #89D289",
" .	c #146414",
"..	c #1F6F1F",
"+.	c #2F982F",
"@.	c #085108",
"#.	c #072F07",
"$.	c #062006",
"%.	c #021102",
"&.	c #051105",
"*.	c #061A06",
"=.	c #071E07",
"-.	c #061C06",
";.	c #0A2C09",
">.	c #0D2C0D",
",.	c #123913",
"'.	c #0D2D0C",
").	c #083B09",
"!.	c #0B5C0C",
"~.	c #072C06",
"{.	c #094A0A",
"].	c #083F08",
"^.	c #084208",
"/.	c #073C07",
"(.	c #0A5A09",
"_.	c #0B670B",
":.	c #3B963B",
"<.	c #116911",
"[.	c #2A902A",
"}.	c #145F15",
"|.	c #094B08",
"1.	c #072A06",
"2.	c #061D07",
"3.	c #031302",
"4.	c #050F05",
"5.	c #061705",
"6.	c #061B07",
"7.	c #072407",
"8.	c #093009",
"9.	c #0F3510",
"0.	c #133C14",
"a.	c #0E2F0E",
"b.	c #0A430A",
"c.	c #0F6B10",
"d.	c #073307",
"e.	c #084308",
"f.	c #073F07",
"g.	c #063C07",
"h.	c #084907",
"i.	c #106010",
"j.	c #075807",
"k.	c #228122",
"l.	c #136D13",
"m.	c #064406",
"n.	c #084A08",
"o.	c #062406",
"p.	c #051A06",
"q.	c #071F07",
"r.	c #072507",
"s.	c #0E2A0E",
"t.	c #103610",
"u.	c #0D330D",
"v.	c #0C4D0C",
"w.	c #137413",
"x.	c #013702",
"y.	c #034D03",
"z.	c #033B03",
"A.	c #044204",
"B.	c #043B04",
"C.	c #055105",
"D.	c #055805",
"E.	c #188619",
"F.	c #096C08",
"G.	c #074B08",
"H.	c #074307",
"I.	c #062106",
"J.	c #021202",
"K.	c #051305",
"L.	c #061B06",
"M.	c #071D06",
"N.	c #071C07",
"O.	c #0B240C",
"P.	c #092809",
"Q.	c #657B6A",
"R.	c #A1ACAB",
"S.	c #C8D7CE",
"T.	c #D3DDD7",
"U.	c #C2CFC8",
"V.	c #B6BFBD",
"W.	c #ADB9B5",
"X.	c #9BA5A4",
"Y.	c #939C9B",
"Z.	c #9AA5A1",
"`.	c #B4C3BA",
" +	c #C3D1C7",
".+	c #227822",
"++	c #072207",
"@+	c #061F07",
"#+	c #031202",
"$+	c #020703",
"%+	c #061606",
"&+	c #081B07",
"*+	c #0D270C",
"=+	c #0C2F0C",
"-+	c #77897D",
";+	c #AAB2B6",
">+	c #AECEB3",
",+	c #B2CFB6",
"'+	c #A0B7A6",
")+	c #98AD9E",
"!+	c #93A999",
"~+	c #84A68D",
"{+	c #7C9283",
"]+	c #839C88",
"^+	c #94B798",
"/+	c #E3E0E9",
"(+	c #2A842A",
"_+	c #075107",
":+	c #083D08",
"<+	c #072606",
"[+	c #050E04",
"}+	c #051405",
"|+	c #061806",
"1+	c #081E08",
"2+	c #0C220C",
"3+	c #0B2B0B",
"4+	c #75887B",
"5+	c #83938B",
"6+	c #19631A",
"7+	c #167916",
"8+	c #268426",
"9+	c #105610",
"0+	c #136213",
"a+	c #0F5E0F",
"b+	c #106011",
"c+	c #0E5A0F",
"d+	c #97D298",
"e+	c #DEDEE3",
"f+	c #3C9A3D",
"g+	c #095509",
"h+	c #063006",
"i+	c #062207",
"j+	c #031403",
"k+	c #050E05",
"l+	c #072707",
"m+	c #081A08",
"n+	c #0D2F0D",
"o+	c #7F9088",
"p+	c #0C7C0C",
"q+	c #0F7B0F",
"r+	c #0B710C",
"s+	c #085C09",
"t+	c #075308",
"u+	c #0C670C",
"v+	c #0B750C",
"w+	c #B2E3B1",
"x+	c #E1DFE6",
"y+	c #3BAA3C",
"z+	c #095A09",
"A+	c #083708",
"B+	c #062206",
"C+	c #061E07",
"D+	c #031102",
"E+	c #050D05",
"F+	c #061605",
"G+	c #082C08",
"H+	c #0C230D",
"I+	c #0D2E0D",
"J+	c #708377",
"K+	c #80938A",
"L+	c #084808",
"M+	c #096409",
"N+	c #0A730A",
"O+	c #0C760C",
"P+	c #066107",
"Q+	c #075908",
"R+	c #107D10",
"S+	c #B8E7B8",
"T+	c #E1DFE7",
"U+	c #329C32",
"V+	c #0B5C0B",
"W+	c #073507",
"X+	c #072306",
"Y+	c #071C06",
"Z+	c #021002",
"`+	c #061A07",
" @	c #051705",
".@	c #0B230C",
"+@	c #0B280B",
"@@	c #6E8075",
"#@	c #81918A",
"$@	c #0B5D0B",
"%@	c #085708",
"&@	c #1A881B",
"*@	c #289E27",
"=@	c #1D8B1D",
"-@	c #087208",
";@	c #158715",
">@	c #269527",
",@	c #469D46",
"'@	c #DCDDE1",
")@	c #2F9230",
"!@	c #064C07",
"~@	c #073A07",
"{@	c #072607",
"]@	c #031203",
"^@	c #040C05",
"/@	c #071807",
"(@	c #091C09",
"_@	c #0F2B0F",
":@	c #0C2B0B",
"<@	c #6D8075",
"[@	c #82928B",
"}@	c #0B6E0C",
"|@	c #086908",
"1@	c #1A8C1A",
"2@	c #44B344",
"3@	c #5FC15F",
"4@	c #43AA43",
"5@	c #3BA63C",
"6@	c #138213",
"7@	c #DEE0E3",
"8@	c #246724",
"9@	c #105910",
"0@	c #072B07",
"a@	c #040B05",
"b@	c #102E10",
"c@	c #0E320D",
"d@	c #6D7E74",
"e@	c #84988D",
"f@	c #108611",
"g@	c #086B08",
"h@	c #097709",
"i@	c #128C13",
"j@	c #20A220",
"k@	c #3EAA3D",
"l@	c #44AC44",
"m@	c #0C570C",
"n@	c #074707",
"o@	c #E0E2E6",
"p@	c #1E471E",
"q@	c #0B4E0B",
"r@	c #061F06",
"s@	c #021402",
"t@	c #061506",
"u@	c #071806",
"v@	c #0F2D0F",
"w@	c #0F380E",
"x@	c #708776",
"y@	c #859A8E",
"z@	c #1C941C",
"A@	c #158A16",
"B@	c #086408",
"C@	c #168F16",
"D@	c #34AC34",
"E@	c #42B142",
"F@	c #117D11",
"G@	c #064006",
"H@	c #E4E6E9",
"I@	c #1F4220",
"J@	c #083A08",
"K@	c #072106",
"L@	c #031503",
"M@	c #050C04",
"N@	c #061406",
"O@	c #0C280C",
"P@	c #0F3F0F",
"Q@	c #75957B",
"R@	c #869C8E",
"S@	c #2D902D",
"T@	c #149214",
"U@	c #076807",
"V@	c #0D890D",
"W@	c #2CA32C",
"X@	c #51B850",
"Y@	c #044D05",
"Z@	c #074607",
"`@	c #E4E5E9",
" #	c #204220",
".#	c #073607",
"+#	c #799B7E",
"@#	c #859E8D",
"##	c #0B620B",
"$#	c #5BB55B",
"%#	c #177E17",
"&#	c #098009",
"*#	c #5EBF5E",
"=#	c #3BAC3A",
"-#	c #2B992A",
";#	c #055704",
">#	c #053D05",
",#	c #E4E7E9",
"'#	c #214021",
")#	c #071A06",
"!#	c #061607",
"~#	c #071406",
"{#	c #031103",
"]#	c #020602",
"^#	c #050C05",
"/#	c #092109",
"(#	c #0E340E",
"_#	c #094809",
":#	c #7BA780",
"<#	c #9AB0A3",
"[#	c #4D894F",
"}#	c #96D197",
"|#	c #58A45C",
"1#	c #3E8B42",
"2#	c #6FB673",
"3#	c #61AB65",
"4#	c #3A853E",
"5#	c #386A3B",
"6#	c #446445",
"7#	c #E7E8EC",
"8#	c #1F3620",
"9#	c #020D02",
"0#	c #051606",
"a#	c #0B310B",
"b#	c #114A11",
"c#	c #0D510D",
"d#	c #80A485",
"e#	c #C4C6D1",
"f#	c #D5D8DE",
"g#	c #DCE1E4",
"h#	c #B5BBC1",
"i#	c #9EA6AD",
"j#	c #B2B8BF",
"k#	c #9BA0A9",
"l#	c #848890",
"m#	c #A1A3AC",
"n#	c #C7CACE",
"o#	c #F3F3F8",
"p#	c #213321",
"q#	c #030B03",
"r#	c #040E05",
"s#	c #0A3C0A",
"t#	c #104810",
"u#	c #0E4A0E",
"v#	c #3F7D42",
"w#	c #5D8C61",
"x#	c #7ABD7D",
"y#	c #87BD8B",
"z#	c #79B57F",
"A#	c #93BC9A",
"B#	c #5B9B61",
"C#	c #75AD7B",
"D#	c #5D9863",
"E#	c #538E58",
"F#	c #5B755F",
"G#	c #6B766E",
"H#	c #112011",
"I#	c #071B06",
"J#	c #061507",
"K#	c #061206",
"L#	c #020A03",
"M#	c #050D04",
"N#	c #083608",
"O#	c #094109",
"P#	c #0D440D",
"Q#	c #126512",
"R#	c #166716",
"S#	c #074F06",
"T#	c #118211",
"U#	c #035C04",
"V#	c #228C21",
"W#	c #C9F2C8",
"X#	c #004F00",
"Y#	c #2F9A2E",
"Z#	c #4EAE4D",
"`#	c #055305",
" $	c #002D00",
".$	c #001000",
"+$	c #061007",
"@$	c #051805",
"#$	c #084609",
"$$	c #0E540F",
"%$	c #0E5A0E",
"&$	c #0B3F0B",
"*$	c #093809",
"=$	c #095B09",
"-$	c #065C06",
";$	c #3AA43A",
">$	c #054606",
",$	c #0F5D0F",
"'$	c #5FBB5F",
")$	c #043A04",
"!$	c #073207",
"~$	c #061106",
"{$	c #061006",
"]$	c #020B03",
"^$	c #020502",
"/$	c #050F04",
"($	c #0D280C",
"_$	c #0D3E0D",
":$	c #0D300D",
"<$	c #123C12",
"[$	c #153D15",
"}$	c #123512",
"|$	c #0C320C",
"1$	c #0C360C",
"2$	c #0F510F",
"3$	c #1A841A",
"4$	c #0F460F",
"5$	c #0D3F0D",
"6$	c #237C24",
"7$	c #155015",
"8$	c #0D310D",
"9$	c #0C200C",
"0$	c #0C170C",
"a$	c #0C160C",
"b$	c #0C150C",
"c$	c #020402",
"d$	c #081808",
"e$	c #152E15",
"f$	c #183E18",
"g$	c #162D16",
"h$	c #172817",
"i$	c #1C321C",
"j$	c #182618",
"k$	c #172916",
"l$	c #172C17",
"m$	c #172716",
"n$	c #163116",
"o$	c #164616",
"p$	c #193F19",
"q$	c #163216",
"r$	c #173E17",
"s$	c #275927",
"t$	c #162C16",
"u$	c #162516",
"v$	c #162016",
"w$	c #161E16",
"x$	c #161C16",
"y$	c #151915",
"z$	c #040704",
"A$	c #1E3D1E",
"B$	c #1D331D",
"C$	c #1C281C",
"D$	c #1D281D",
"E$	c #1E2B1E",
"F$	c #1F2B1F",
"G$	c #1D2A1D",
"H$	c #1B2A1B",
"I$	c #1B281A",
"J$	c #1B281B",
"K$	c #1B2F1B",
"L$	c #1B391B",
"M$	c #1D401D",
"N$	c #1C321B",
"O$	c #1C301C",
"P$	c #244A24",
"Q$	c #1A2A19",
"R$	c #192819",
"S$	c #1A231A",
"T$	c #1A211A",
"U$	c #1A201B",
"V$	c #1B211B",
"W$	c #1C201C",
"X$	c #1D211D",
"  . + @ # $ % & * = - ; > > , ' ) ! ~ { ] ^ / ( _   ",
": < [ } | 1 2 3 4 5 6 7 8 9 0 a b c 5 d e f g h i j ",
"k l m n o p q r s t u v w v x y z A B C D E F G H I ",
"J K L M N O P Q R S T U V W X Y Z `  ...+.@.#.$.%.j ",
"&.*.=.-.;.>.,.'.).!.~.{.].^./.(._.:.<.[.}.|.1.2.3.j ",
"4.5.6.7.8.9.0.a.b.c.d.e.f./.g.h.i.j.k.l.m.n.o.M 3.j ",
"J p.q.r.2.s.t.u.v.w.x.y.z.A.z.B.C.D.E.F.G.H.I.M J.I ",
"K.L.M.N.L O.P.Q.R.S.T.U.V.W.X.Y.Z.`. +.+H.e.++@+#+$+",
": *.N.%+&+*+=+-+;+>+,+'+)+!+~+{+]+^+/+(+_+:+<+q.J.j ",
"[+}+|+L.1+2+3+4+5+6+7+8+9+0+a+b+c+d+e+f+g+h+o.i+j+I ",
"k+}+$.l+m+m+n+4+o+H.p+q+r+s+t+u+v+w+x+y+z+A+B+C+D+I ",
"E+F+G+=.m+H+I+J+K+L+M+N+O+P+Q+R+Z S+T+U+V+W+X+Y+Z+I ",
"E+N =.`+ @.@+@@@#@$@%@&@*@=@-@;@>@,@'@)@!@~@{@-.]@I ",
"^@: /@6.(@_@:@<@[@}@|@1@2@3@4@5@6@Y 7@8@9@0@++q.D+I ",
"a@&.%+N K b@c@d@e@f@g@h@i@j@k@l@m@n@o@p@q@r@@+++s@I ",
"a@: %+t@u@v@w@x@y@z@A@B@C@D@E@F@G@V H@I@J@*.`+K@L@I ",
"M@: N@t@M O@P@Q@R@S@T@U@V@2@W@X@Y@Z@`@ #0@*.N M D+I ",
"E+K.. t@6.+@.#+#@###$#%#&#*#=#-#;#>#,#'#l+)#!#~#{#]#",
"^#K N@|+/#(#_#:#<#[#}#|#1#2#3#4#5#6#7#8#G+|+N@. 9#]#",
"E+0#t@M a#b#c#d#e#f#g#h#i#j#k#l#m#n#o#p#++N N@. q#]#",
"r#M @ K@s#t#u#v#w#x#y#z#A#B#C#D#E#F#G#H#I#J#K#K#L#]#",
"M# @*.N#O#P#Q#R#S#T#U#V#W#X#Y#Z#`# $.$}+u@. . +$q#]#",
"4.@$I.N##$$$%$&$*$Z@=$-$;$>$,$'$)$!$|+t@%+. ~${$]$^$",
"/$=.($_$:$<$[$}$I+|$1$2$3$4$5$6$7$8$9$H 0$a$b$b$^@c$",
"d$e$f$g$h$i$o j$k$l$m$n$o$p$q$r$s$t$u$v$w$x$x$x$y$z$",
"  A$B$C$D$E$F$G$H$I$J$K$L$M$N$O$P$Q$R$S$T$U$V$W$X$  "};
