/* XPM */
static char * shade_inactive_xpm[] = {
"26 26 591 2",
"  	c None",
". 	c #16351F",
"+ 	c #2C4B33",
"@ 	c #0B2912",
"# 	c #15331C",
"$ 	c #12321A",
"% 	c #193C22",
"& 	c #183C22",
"* 	c #153C21",
"= 	c #1F442A",
"- 	c #183B21",
"; 	c #0E2D15",
"> 	c #102F17",
", 	c #122F18",
"' 	c #17381F",
") 	c #1A3C24",
"! 	c #30543A",
"~ 	c #2E563C",
"{ 	c #174125",
"] 	c #32583E",
"^ 	c #1E462B",
"/ 	c #275337",
"( 	c #1C492C",
"_ 	c #1F492E",
": 	c #23492F",
"< 	c #142E1A",
"[ 	c #2F5338",
"} 	c #2E5237",
"| 	c #25492E",
"1 	c #25462D",
"2 	c #365C40",
"3 	c #325B3E",
"4 	c #275234",
"5 	c #2F5A3C",
"6 	c #244C2F",
"7 	c #254A2F",
"8 	c #22462A",
"9 	c #224429",
"0 	c #24492D",
"a 	c #254B2F",
"b 	c #446D50",
"c 	c #527F60",
"d 	c #356345",
"e 	c #3A6648",
"f 	c #396A4B",
"g 	c #366646",
"h 	c #2E5C3D",
"i 	c #2F5B3E",
"j 	c #122116",
"k 	c #0C2512",
"l 	c #1B3F25",
"m 	c #24472D",
"n 	c #274B30",
"o 	c #1C3F25",
"p 	c #23482D",
"q 	c #355C40",
"r 	c #2B5538",
"s 	c #315C3E",
"t 	c #254C30",
"u 	c #22492D",
"v 	c #24482D",
"w 	c #2A4D32",
"x 	c #22472C",
"y 	c #14391D",
"z 	c #436C4F",
"A 	c #3A6649",
"B 	c #285537",
"C 	c #2A5135",
"D 	c #254F32",
"E 	c #356446",
"F 	c #2C5539",
"G 	c #386245",
"H 	c #325A3F",
"I 	c #122218",
"J 	c #122C19",
"K 	c #12341B",
"L 	c #14371D",
"M 	c #15391F",
"N 	c #0B2F15",
"O 	c #335C40",
"P 	c #285336",
"Q 	c #194326",
"R 	c #153C20",
"S 	c #0F3418",
"T 	c #2B4F35",
"U 	c #274D32",
"V 	c #224B2F",
"W 	c #2E583C",
"X 	c #214D2F",
"Y 	c #143D21",
"Z 	c #173C21",
"` 	c #244F32",
" .	c #23472D",
"..	c #194225",
"+.	c #20482D",
"@.	c #102117",
"#.	c #1B3522",
"$.	c #183B22",
"%.	c #0F3217",
"&.	c #20432A",
"*.	c #1D4025",
"=.	c #0D3217",
"-.	c #224A2E",
";.	c #2F593C",
">.	c #1D4A2C",
",.	c #325C3F",
"'.	c #1D4629",
").	c #184025",
"!.	c #1B442B",
"~.	c #1B4226",
"{.	c #275235",
"].	c #295638",
"^.	c #144023",
"/.	c #183F23",
"(.	c #183A21",
"_.	c #0C3015",
":.	c #214B2E",
"<.	c #20482C",
"[.	c #1B4628",
"}.	c #1C4329",
"|.	c #0D1C12",
"1.	c #243D2A",
"2.	c #1A3C22",
"3.	c #1B3E24",
"4.	c #35573D",
"5.	c #103318",
"6.	c #13381D",
"7.	c #1F462A",
"8.	c #174124",
"9.	c #215032",
"0.	c #1F4C2E",
"a.	c #184528",
"b.	c #314F28",
"c.	c #56611F",
"d.	c #0B3921",
"e.	c #184326",
"f.	c #275537",
"g.	c #325F41",
"h.	c #183E23",
"i.	c #0F3017",
"j.	c #11331A",
"k.	c #153E22",
"l.	c #1B482A",
"m.	c #204C2F",
"n.	c #173C23",
"o.	c #0B180F",
"p.	c #29402E",
"q.	c #0F3117",
"r.	c #375C42",
"s.	c #17371E",
"t.	c #11351A",
"u.	c #14391F",
"v.	c #173F24",
"w.	c #3F6D4F",
"x.	c #2E4C27",
"y.	c #A47E1A",
"z.	c #B18A24",
"A.	c #696625",
"B.	c #144125",
"C.	c #2B593B",
"D.	c #3B694B",
"E.	c #163C22",
"F.	c #122F16",
"G.	c #1B3C23",
"H.	c #1D492C",
"I.	c #144425",
"J.	c #134023",
"K.	c #22482E",
"L.	c #0C1910",
"M.	c #1E3522",
"N.	c #193F24",
"O.	c #20492C",
"P.	c #21442A",
"Q.	c #122F17",
"R.	c #193E23",
"S.	c #183E22",
"T.	c #437054",
"U.	c #415926",
"V.	c #A66B08",
"W.	c #A77813",
"X.	c #A87E15",
"Y.	c #AE8316",
"Z.	c #79792C",
"`.	c #28502F",
" +	c #2E5C3F",
".+	c #1C4628",
"++	c #153018",
"@+	c #1F3F26",
"#+	c #2B593C",
"$+	c #2C5A3C",
"%+	c #255235",
"&+	c #08140B",
"*+	c #16331F",
"=+	c #194125",
"-+	c #183D22",
";+	c #1A3D23",
">+	c #13341B",
",+	c #103218",
"'+	c #1B4025",
")+	c #164026",
"!+	c #767930",
"~+	c #BA931C",
"{+	c #B79821",
"]+	c #AF8918",
"^+	c #B2901D",
"/+	c #B69827",
"(+	c #B79522",
"_+	c #8D8A42",
":+	c #2A502C",
"<+	c #184126",
"[+	c #1A3820",
"}+	c #13351B",
"|+	c #224F32",
"1+	c #154024",
"2+	c #184225",
"3+	c #1F4229",
"4+	c #121F15",
"5+	c #173822",
"6+	c #1A4528",
"7+	c #153D21",
"8+	c #173B21",
"9+	c #0F351A",
"0+	c #12341A",
"a+	c #103820",
"b+	c #797527",
"c+	c #B18A19",
"d+	c #BB9D2A",
"e+	c #A97B12",
"f+	c #AD8219",
"g+	c #B08E1E",
"h+	c #B08D22",
"i+	c #AE8515",
"j+	c #B08C27",
"k+	c #AB962F",
"l+	c #214422",
"m+	c #0F2F18",
"n+	c #14381D",
"o+	c #113C1F",
"p+	c #173D22",
"q+	c #1A4025",
"r+	c #183921",
"s+	c #142117",
"t+	c #1A3B25",
"u+	c #245032",
"v+	c #0C3216",
"w+	c #0D371A",
"x+	c #1F492D",
"y+	c #153419",
"z+	c #837317",
"A+	c #BDA027",
"B+	c #B38A15",
"C+	c #AF8514",
"D+	c #AF8716",
"E+	c #AD891B",
"F+	c #BBA330",
"G+	c #B79A26",
"H+	c #B08818",
"I+	c #AC8015",
"J+	c #A8730B",
"K+	c #B08113",
"L+	c #384C24",
"M+	c #153A1F",
"N+	c #22442A",
"O+	c #0D3016",
"P+	c #0A2C13",
"Q+	c #173521",
"R+	c #215335",
"S+	c #3A582E",
"T+	c #8D741B",
"U+	c #BA9923",
"V+	c #B89722",
"W+	c #B19022",
"X+	c #BAA52F",
"Y+	c #BAA030",
"Z+	c #BCA535",
"`+	c #B3901C",
" @	c #B99D22",
".@	c #B08C1B",
"+@	c #B79823",
"@@	c #B08F23",
"#@	c #B28916",
"$@	c #A77812",
"%@	c #4C4F16",
"&@	c #0E341C",
"*@	c #112F16",
"=@	c #113218",
"-@	c #0B2C14",
";@	c #07140B",
">@	c #1E3926",
",@	c #21492C",
"'@	c #1B472A",
")@	c #1D4D2F",
"!@	c #486C3B",
"~@	c #9B831E",
"{@	c #AE9327",
"]@	c #AD8B1F",
"^@	c #B3982E",
"/@	c #B89324",
"(@	c #B89A25",
"_@	c #B69B2B",
":@	c #B39322",
"<@	c #B99E30",
"[@	c #B59622",
"}@	c #BCA540",
"|@	c #B69525",
"1@	c #B39428",
"2@	c #A67C17",
"3@	c #A47C1B",
"4@	c #A07212",
"5@	c #625814",
"6@	c #0E2C15",
"7@	c #113018",
"8@	c #08150B",
"9@	c #203E29",
"0@	c #2F593D",
"a@	c #1E4A2D",
"b@	c #214C2F",
"c@	c #2C5339",
"d@	c #2A563A",
"e@	c #416237",
"f@	c #BCA22E",
"g@	c #B18D17",
"h@	c #B08D1E",
"i@	c #B3911D",
"j@	c #B29020",
"k@	c #B08917",
"l@	c #BBA026",
"m@	c #AE8612",
"n@	c #856A14",
"o@	c #12321B",
"p@	c #1B3B22",
"q@	c #0B2B12",
"r@	c #0C2C13",
"s@	c #0E3016",
"t@	c #123118",
"u@	c #203F28",
"v@	c #122117",
"w@	c #254732",
"x@	c #234E31",
"y@	c #1E4629",
"z@	c #143A1F",
"A@	c #153B1F",
"B@	c #224D31",
"C@	c #355428",
"D@	c #B79A1F",
"E@	c #B19019",
"F@	c #B7A02B",
"G@	c #AD8510",
"H@	c #B4911F",
"I@	c #AE8618",
"J@	c #BC9F2B",
"K@	c #8D781A",
"L@	c #13381F",
"M@	c #1E4227",
"N@	c #133B1F",
"O@	c #1D4226",
"P@	c #1D3F26",
"Q@	c #0B1B11",
"R@	c #193E28",
"S@	c #1B4B2C",
"T@	c #1E472B",
"U@	c #13351C",
"V@	c #103118",
"W@	c #12351B",
"X@	c #285135",
"Y@	c #405E33",
"Z@	c #B99C28",
"`@	c #B9A02F",
" #	c #B59420",
".#	c #B18F18",
"+#	c #AD841A",
"@#	c #B38D1D",
"##	c #B49322",
"$#	c #B99A26",
"%#	c #8B7014",
"&#	c #0F381B",
"*#	c #214A2E",
"=#	c #3B6448",
"-#	c #184728",
";#	c #244C30",
">#	c #254930",
",#	c #102015",
"'#	c #0A2C15",
")#	c #194628",
"!#	c #1C4328",
"~#	c #0E2E15",
"{#	c #0D2C13",
"]#	c #193B21",
"^#	c #22462C",
"/#	c #264218",
"(#	c #C0A92C",
"_#	c #B99A1B",
":#	c #B89A23",
"<#	c #B49524",
"[#	c #AE8B1F",
"}#	c #A77512",
"|#	c #AA760D",
"1#	c #896710",
"2#	c #194428",
"3#	c #356044",
"4#	c #4E785C",
"5#	c #3B6649",
"6#	c #28593A",
"7#	c #204A2F",
"8#	c #1E4228",
"9#	c #0F1E14",
"0#	c #102F1A",
"a#	c #183F24",
"b#	c #1F4228",
"c#	c #0F3318",
"d#	c #0B2C12",
"e#	c #18391F",
"f#	c #1B3F24",
"g#	c #22472D",
"h#	c #334E20",
"i#	c #BCA02E",
"j#	c #B4901B",
"k#	c #AF8212",
"l#	c #AB8012",
"m#	c #A77513",
"n#	c #AD7712",
"o#	c #AD7A0E",
"p#	c #8C7017",
"q#	c #2B5439",
"r#	c #497155",
"s#	c #477053",
"t#	c #275033",
"u#	c #1F4E2F",
"v#	c #1A4126",
"w#	c #1A3922",
"x#	c #08150C",
"y#	c #19321F",
"z#	c #18371E",
"A#	c #344F22",
"B#	c #B89421",
"C#	c #AB7E0F",
"D#	c #B38D1B",
"E#	c #B79728",
"F#	c #B0891A",
"G#	c #AD8416",
"H#	c #AD8015",
"I#	c #B08814",
"J#	c #907D28",
"K#	c #1E442A",
"L#	c #264C30",
"M#	c #284E33",
"N#	c #20472C",
"O#	c #1B492B",
"P#	c #0F2C15",
"Q#	c #07130A",
"R#	c #152F1C",
"S#	c #0C2E14",
"T#	c #295235",
"U#	c #143B1F",
"V#	c #3F572E",
"W#	c #BA9116",
"X#	c #B38712",
"Y#	c #B28610",
"Z#	c #B6860F",
"`#	c #B58D1B",
" $	c #AF8014",
".$	c #B68914",
"+$	c #A7710B",
"@$	c #9A933E",
"#$	c #2F573B",
"$$	c #133D20",
"%$	c #164627",
"&$	c #295035",
"*$	c #11321B",
"=$	c #0B190F",
"-$	c #102A17",
";$	c #204328",
">$	c #1B4428",
",$	c #1A4327",
"'$	c #153B20",
")$	c #163A1F",
"!$	c #2F4A25",
"~$	c #8D892E",
"{$	c #8C8623",
"]$	c #83781E",
"^$	c #827518",
"/$	c #86791C",
"($	c #877919",
"_$	c #806D12",
":$	c #7A630F",
"<$	c #6C6B1F",
"[$	c #153A20",
"}$	c #0D3519",
"|$	c #224E31",
"1$	c #2A5739",
"2$	c #1C4528",
"3$	c #0F1F14",
"4$	c #152E1B",
"5$	c #22482D",
"6$	c #1F472B",
"7$	c #193C23",
"8$	c #163C27",
"9$	c #103823",
"0$	c #16432C",
"a$	c #103F28",
"b$	c #29523C",
"c$	c #193F2A",
"d$	c #0C2F1B",
"e$	c #082915",
"f$	c #062813",
"g$	c #0D3115",
"h$	c #12391D",
"i$	c #0F3519",
"j$	c #1B4327",
"k$	c #255134",
"l$	c #284F35",
"m$	c #21442B",
"n$	c #08200D",
"o$	c #1B4227",
"p$	c #1C4629",
"q$	c #163C21",
"r$	c #1B3E23",
"s$	c #0F3218",
"t$	c #163C20",
"u$	c #184125",
"v$	c #2B4F34",
"w$	c #17391F",
"x$	c #143218",
"y$	c #132F17",
"z$	c #1E3D24",
"A$	c #12371C",
"B$	c #1F4328",
"C$	c #0A180E",
"D$	c #0F2815",
"E$	c #193E24",
"F$	c #254C31",
"G$	c #163920",
"H$	c #12331B",
"I$	c #113118",
"J$	c #14321B",
"K$	c #16391F",
"L$	c #2F5239",
"M$	c #1B3B23",
"N$	c #1E3A22",
"O$	c #18381F",
"P$	c #1E3E25",
"Q$	c #15331B",
"R$	c #214229",
"S$	c #1C4228",
"T$	c #1F462C",
"U$	c #1A3221",
"V$	c #243D2B",
"W$	c #1D3926",
"X$	c #25402D",
"Y$	c #233F2C",
"Z$	c #1A3421",
"`$	c #1A3321",
" %	c #1D3423",
".%	c #152C1A",
"+%	c #172D1B",
"@%	c #1D3422",
"#%	c #354D3C",
"$%	c #2A4633",
"%%	c #223E2B",
"&%	c #233E2B",
"*%	c #1B3221",
"=%	c #142C1B",
"-%	c #17321F",
";%	c #203525",
">%	c #152A19",
",%	c #203625",
"'%	c #28422F",
")%	c #1C3925",
"!%	c #0E1B12",
"~%	c #283D2D",
"{%	c #2C4232",
"]%	c #223C2A",
"^%	c #233C2B",
"/%	c #243B2B",
"(%	c #1B3120",
"_%	c #1F3525",
":%	c #29402F",
"<%	c #1A2F1F",
"[%	c #2A3F2F",
"}%	c #2E4534",
"|%	c #243B2A",
"1%	c #253F2E",
"2%	c #26402F",
"3%	c #263E2D",
"4%	c #223928",
"5%	c #18301F",
"6%	c #1B301F",
"7%	c #253B2B",
"8%	c #203424",
"9%	c #2A4130",
"0%	c #2F4635",
"  . + @ # $ % & * = - ; > , ' ) ! ~ { ] ^ / ( _ :   ",
"< [ } | 1 [ 2 3 4 5 6 7 8 9 0 a b c d 3 e f g h i j ",
"k l m n } o p q r s t u v w x y z A B C D E F G H I ",
"J K & & L M N * O P Q R S T U V W X Y & Z `  ...+.@.",
"#.$.%.L &.*.=.-.;.>.,.'.).!.~.{.].^./.(._.:.<.[.}.|.",
"1.2.3.4.5.M 6.7.8.9.0.a.b.c.d.e.f.g.h.i.j.k.l.m.n.o.",
"p.q.o r.&.s.t.u.v.w.l.x.y.z.A.B.C.D.E.F.G.H.I.J.K.L.",
"M.%.N.O.P.Q.L R.S.T.U.V.W.X.Y.Z.`. +.+++@+#+$+%+$.&+",
"*+=+-+x ;+>+,+'+)+!+~+{+]+^+/+(+_+:+<+[+}+|+1+2+3+4+",
"5+6+7+N 8+9+0+a+b+c+d+e+f+g+h+i+j+k+l+m+n+o+p+q+r+s+",
"t+u+{ v+w+x+y+z+A+B+C+D+E+F+G+H+I+J+K+L+M+9+N+O+P+4+",
"Q+P P l.R+S+T+U+V+W+X+Y+Z+`+ @.@+@@@#@$@%@&@*@=@-@;@",
">@,@'@)@!@~@{@]@^@/@(@_@:@<@[@}@|@1@2@3@4@5@6@7@$ 8@",
"9@0@'@a@b@c@x+d@e@f@g@h@i@j@k@l@m@n@o@p@q@r@s@t@u@v@",
"w@B x@y@z@A@u B@C@F+D@E@F@G@H@I@J@K@L@3.P.M@N@O@P@Q@",
"R@S@T@U@V@W@Z X@Y@Z@`@ #.#+#@###$#%#&#*#=#O -#;#>#,#",
"'#)#!#~#{#]#^#q+/#(#_#:#<#@#[#}#|#1#2#3#4#5#6#7#8#9#",
"0#a#b#c#d#e#f#g#h#i#@#j#k#l#m#n#o#p#q#r#s#t#u#v#w#x#",
"y#W@R.h.W@z#o l A#B#C#D#E#F#G#H#I#J#K#L#M#N#O#M+P#Q#",
"R#S#-+T#N@U#M+l V#W#X#Y#Z#`# $.$+$@$l #$$$%+%$&$*$=$",
"-$;$& >$,$2+'$)$!$~${$]$^$/$($_$:$<$[$}$|$1$S@2$W@3$",
"4$M 5$k.2+6$'+& 7$8$9$0$a$b$c$d$e$f$g$h$i$j$k$l$m$9#",
"n$M@o$N@p$O.q$=.r$(.s$t$u$v$w$x$y$z$u.A$W@B$E...& C$",
"D$^#3+E$5$F$G$H$I$J$> K K$L$>+M$N$O$l H$P$Q$R$S$T$;@",
"k U$V$W$X$Y$Z$`$ %.%+%@%#%$%%%&%*%=%-%*%;%>%,%'%)%!%",
"  ~%{%]%^%/%(%_%:%<%[%}%|%1%2%3%4%_%5%6%7%8%9%0%4%  "};
