/* XPM */
static char * title_4_inactive_xpm[] = {
"2 26 34 1",
" 	c None",
".	c #421607",
"+	c #431607",
"@	c #421508",
"#	c #451708",
"$	c #4D1C0B",
"%	c #4C1B0B",
"&	c #461808",
"*	c #451808",
"=	c #49190A",
"-	c #4F1D0C",
";	c #521F0D",
">	c #4F1E0C",
",	c #401507",
"'	c #48190A",
")	c #481809",
"!	c #471808",
"~	c #491A0A",
"{	c #4B1B0B",
"]	c #4B1B0A",
"^	c #4A1B0B",
"/	c #421507",
"(	c #411507",
"_	c #531F0D",
":	c #531F0E",
"<	c #59200F",
"[	c #58200F",
"}	c #56210F",
"|	c #56200F",
"1	c #481909",
"2	c #4A1B0A",
"3	c #491909",
"4	c #441708",
"5	c #4E1D0C",
".+",
"@#",
"$%",
"&&",
"*=",
"-;",
">,",
"&'",
")!",
"~%",
"{)",
"&=",
"]^",
"/(",
"_:",
"--",
"<[",
"}|",
")1",
"&&",
"~2",
"33",
"4/",
"%5",
"&/",
"{4"};
