/* XPM */
static char * title_2_inactive_xpm[] = {
"2 26 33 1",
" 	c None",
".	c #421607",
"+	c #421507",
"@	c #431607",
"#	c #451708",
"$	c #4C1B0B",
"%	c #4B1B0B",
"&	c #461808",
"*	c #451808",
"=	c #491909",
"-	c #4E1D0C",
";	c #52200E",
">	c #4F1E0C",
",	c #401506",
"'	c #461708",
")	c #481809",
"!	c #4A1A0A",
"~	c #4B1A0A",
"{	c #481909",
"]	c #471808",
"^	c #491A09",
"/	c #431608",
"(	c #421608",
"_	c #521E0D",
":	c #521F0D",
"<	c #4E1C0C",
"[	c #57200F",
"}	c #56200E",
"|	c #56200F",
"1	c #471809",
"2	c #4B1A0B",
"3	c #491A0A",
"4	c #441708",
".+",
"@#",
"$%",
"&&",
"*=",
"-;",
">,",
"#&",
"'#",
")!",
"~{",
"]=",
"^^",
"/(",
"_:",
"<>",
"[[",
"}|",
"==",
"{1",
"2%",
"==",
"/+",
"^$",
"&.",
"34"};
