/* XPM */
static char * hide_active_xpm[] = {
"26 26 616 2",
"  	c None",
". 	c #1D4728",
"+ 	c #396243",
"@ 	c #0E3718",
"# 	c #1B4324",
"$ 	c #174222",
"% 	c #214E2D",
"& 	c #1F4E2D",
"* 	c #1C4E2C",
"= 	c #285937",
"- 	c #1F4D2B",
"; 	c #123B1B",
"> 	c #153C1D",
", 	c #163E1F",
"' 	c #1F4829",
") 	c #224F2F",
"! 	c #3F6D4C",
"~ 	c #3C704D",
"{ 	c #1E5631",
"] 	c #427351",
"^ 	c #275B38",
"/ 	c #336C48",
"( 	c #255F3A",
"_ 	c #2A603C",
": 	c #2E5F3D",
"< 	c #1A3C22",
"[ 	c #3D6D49",
"} 	c #3D6C48",
"| 	c #2F5F3C",
"1 	c #305B3A",
"2 	c #3C6C48",
"3 	c #477954",
"4 	c #417650",
"5 	c #326A43",
"6 	c #3E754F",
"7 	c #2E633E",
"8 	c #31603D",
"9 	c #2C5A37",
"0 	c #2C5936",
"a 	c #2F5E3B",
"b 	c #30623E",
"c 	c #588E69",
"d 	c #6BA67E",
"e 	c #45815A",
"f 	c #417751",
"g 	c #4C845D",
"h 	c #4A8A61",
"i 	c #46845B",
"j 	c #3C7750",
"k 	c #3D7650",
"l 	c #172A1D",
"m 	c #103118",
"n 	c #255331",
"o 	c #2F5D3B",
"p 	c #346340",
"q 	c #3D6B49",
"r 	c #255432",
"s 	c #2E5F3C",
"t 	c #467955",
"u 	c #386F49",
"v 	c #417852",
"w 	c #30643F",
"x 	c #2D5F3C",
"y 	c #2E5D3A",
"z 	c #376543",
"A 	c #2E5E3A",
"B 	c #1A4B26",
"C 	c #59906A",
"D 	c #4D8760",
"E 	c #367049",
"F 	c #386A46",
"G 	c #326842",
"H 	c #47835C",
"I 	c #3B704B",
"J 	c #49815B",
"K 	c #417653",
"L 	c #182D1F",
"M 	c #183A22",
"N 	c #174522",
"O 	c #204E2D",
"P 	c #214F2D",
"Q 	c #194826",
"R 	c #1D4C29",
"S 	c #0E3F1B",
"T 	c #1C4F2C",
"U 	c #437A54",
"V 	c #346D47",
"W 	c #215731",
"X 	c #1B4F2A",
"Y 	c #144421",
"Z 	c #396946",
"` 	c #336441",
" .	c #2D623D",
"..	c #3B724D",
"+.	c #2B653F",
"@.	c #1A502B",
"#.	c #1F4E2C",
"$.	c #1E4F2C",
"%.	c #306842",
"&.	c #205531",
"*.	c #295D3B",
"=.	c #152B1E",
"-.	c #23452B",
";.	c #204E2C",
">.	c #12411F",
",.	c #194725",
"'.	c #2C5A38",
").	c #265432",
"!.	c #11411F",
"~.	c #2D613C",
"{.	c #25613A",
"].	c #427A54",
"^.	c #255B36",
"/.	c #215530",
"(.	c #295C38",
"_.	c #225732",
":.	c #336B45",
"<.	c #37714B",
"[.	c #19532D",
"}.	c #20532E",
"|.	c #214D2B",
"1.	c #103F1C",
"2.	c #2B623C",
"3.	c #295C39",
"4.	c #255C35",
"5.	c #255937",
"6.	c #112518",
"7.	c #2E5037",
"8.	c #214F2C",
"9.	c #23502E",
"0.	c #467351",
"a.	c #144220",
"b.	c #1C4927",
"c.	c #184926",
"d.	c #285C38",
"e.	c #1F562F",
"f.	c #2C6942",
"g.	c #28633C",
"h.	c #235B36",
"i.	c #285C37",
"j.	c #1F532E",
"k.	c #1F5832",
"l.	c #316E47",
"m.	c #407C55",
"n.	c #20512E",
"o.	c #15401E",
"p.	c #164321",
"q.	c #1B512C",
"r.	c #245F38",
"s.	c #2A633D",
"t.	c #1D4F2E",
"u.	c #0D2013",
"v.	c #36533C",
"w.	c #14401E",
"x.	c #477754",
"y.	c #2B5937",
"z.	c #1E4827",
"A.	c #164522",
"B.	c #1A4D29",
"C.	c #1E542F",
"D.	c #539069",
"E.	c #245E38",
"F.	c #255C36",
"G.	c #20542F",
"H.	c #275935",
"I.	c #3A6F49",
"J.	c #39754D",
"K.	c #4D8A63",
"L.	c #1D4F2B",
"M.	c #163D1C",
"N.	c #244F2D",
"O.	c #27603A",
"P.	c #1A5831",
"Q.	c #1A552E",
"R.	c #2D5D3C",
"S.	c #0F2014",
"T.	c #26452D",
"U.	c #14401F",
"V.	c #22522F",
"W.	c #2B603B",
"X.	c #2A5836",
"Y.	c #173D1D",
"Z.	c #1B4826",
"`.	c #20512D",
" +	c #1F502D",
".+	c #59936D",
"++	c #235934",
"@+	c #134420",
"#+	c #184724",
"$+	c #1E512D",
"%+	c #2D633E",
"&+	c #29623C",
"*+	c #3D7952",
"=+	c #265C36",
"-+	c #193E1F",
";+	c #295433",
">+	c #38754E",
",+	c #3B7750",
"'+	c #336C46",
")+	c #1F4D2C",
"!+	c #091A0E",
"~+	c #1D4328",
"{+	c #215430",
"]+	c #20522E",
"^+	c #2D5D3A",
"/+	c #23512F",
"(+	c #194423",
"_+	c #154220",
":+	c #235331",
"<+	c #245733",
"[+	c #427652",
"}+	c #1E4E2A",
"|+	c #1D4C2A",
"1+	c #1F4B29",
"2+	c #2A5A37",
"3+	c #336843",
"4+	c #215933",
"5+	c #225733",
"6+	c #244B2B",
"7+	c #184322",
"8+	c #2E6841",
"9+	c #1C552E",
"0+	c #225832",
"a+	c #285636",
"b+	c #17281B",
"c+	c #1E492C",
"d+	c #225B35",
"e+	c #1C502B",
"f+	c #103E1C",
"g+	c #1C4C28",
"h+	c #144521",
"i+	c #184422",
"j+	c #1C4C29",
"k+	c #20542E",
"l+	c #356442",
"m+	c #144320",
"n+	c #1B4624",
"o+	c #214727",
"p+	c #25512F",
"q+	c #396846",
"r+	c #225430",
"s+	c #134722",
"t+	c #245C36",
"u+	c #184D28",
"v+	c #15401F",
"w+	c #1B4926",
"x+	c #164D28",
"y+	c #1F4A2B",
"z+	c #1A2B1F",
"A+	c #234D32",
"B+	c #2F6842",
"C+	c #1D542F",
"D+	c #0F401D",
"E+	c #114723",
"F+	c #2A623C",
"G+	c #174221",
"H+	c #29613B",
"I+	c #2F603D",
"J+	c #22512F",
"K+	c #133F1D",
"L+	c #1E4626",
"M+	c #1E4726",
"N+	c #134622",
"O+	c #275C37",
"P+	c #2A5936",
"Q+	c #1B4B28",
"R+	c #154723",
"S+	c #2C5937",
"T+	c #0F3A1B",
"U+	c #17271B",
"V+	c #1E452A",
"W+	c #376F4A",
"X+	c #245D37",
"Y+	c #2E6D45",
"Z+	c #327048",
"`+	c #2F5938",
" @	c #2D5937",
".@	c #336D47",
"+@	c #174E29",
"@@	c #2B5F3A",
"#@	c #16401F",
"$@	c #113F1D",
"%@	c #1F4F2C",
"&@	c #295A36",
"*@	c #255733",
"=@	c #174925",
"-@	c #174724",
";@	c #173E1D",
">@	c #16411F",
",@	c #0D3819",
"'@	c #091A0D",
")@	c #264B31",
"!@	c #295E39",
"~@	c #235C36",
"{@	c #28663F",
"]@	c #377A50",
"^@	c #35724B",
"/@	c #224F2D",
"(@	c #255431",
"_@	c #2A643E",
":@	c #28643E",
"<@	c #205933",
"[@	c #3A6F4A",
"}@	c #336742",
"|@	c #1A4524",
"1@	c #1A4323",
"2@	c #1E4B29",
"3@	c #164421",
"4@	c #2E5C3A",
"5@	c #14411E",
"6@	c #143A1A",
"7@	c #17401F",
"8@	c #1B4425",
"9@	c #0B1C10",
"0@	c #2A5137",
"a@	c #3F7751",
"b@	c #27623B",
"c@	c #376A46",
"d@	c #3A724C",
"e@	c #37724B",
"f@	c #296740",
"g@	c #2B5E39",
"h@	c #184A26",
"i@	c #29643E",
"j@	c #2F613C",
"k@	c #214C2A",
"l@	c #163F1F",
"m@	c #1C4222",
"n@	c #1A3F20",
"o@	c #1C4424",
"p@	c #274F2F",
"q@	c #0F3817",
"r@	c #113918",
"s@	c #13401E",
"t@	c #153F1E",
"u@	c #254E2F",
"v@	c #325E42",
"w@	c #346F49",
"x@	c #2F6843",
"y@	c #295123",
"z@	c #325729",
"A@	c #3E6738",
"B@	c #3F6C3B",
"C@	c #3B6B39",
"D@	c #4A7C4A",
"E@	c #4E7747",
"F@	c #335D2D",
"G@	c #326331",
"H@	c #527D4D",
"I@	c #446B3D",
"J@	c #325629",
"K@	c #305124",
"L@	c #284A1D",
"M@	c #315528",
"N@	c #355B2D",
"O@	c #3F6537",
"P@	c #376032",
"Q@	c #295836",
"R@	c #285434",
"S@	c #0E2215",
"T@	c #215033",
"U@	c #225F38",
"V@	c #275D37",
"W@	c #164322",
"X@	c #B98D15",
"Y@	c #CE9D19",
"Z@	c #D5A620",
"`@	c #D6A820",
" #	c #D8AA1E",
".#	c #D5A71E",
"+#	c #D7A51C",
"@#	c #D0A31E",
"##	c #D6A91F",
"$#	c #D9B326",
"%#	c #DCB525",
"&#	c #DBB629",
"*#	c #DFBD2B",
"=#	c #DCB824",
"-#	c #DAB228",
";#	c #DAB528",
">#	c #DDB62A",
",#	c #C4B032",
"'#	c #1B5A37",
")#	c #2C613C",
"!#	c #30603F",
"~#	c #14291C",
"{#	c #0F3B1E",
"]#	c #235D37",
"^#	c #133E1C",
"/#	c #CB9A19",
"(#	c #E5AB1C",
"_#	c #E4AD20",
":#	c #E8B121",
"<#	c #E6AE1F",
"[#	c #EFBF28",
"}#	c #ECBE29",
"|#	c #EABD27",
"1#	c #ECBD29",
"2#	c #EFC831",
"3#	c #EEC52D",
"4#	c #EFC82E",
"5#	c #F5D443",
"6#	c #F1C62C",
"7#	c #EFC52C",
"8#	c #ECC22E",
"9#	c #EABB29",
"0#	c #C99E23",
"a#	c #2D714D",
"b#	c #2C633E",
"c#	c #285735",
"d#	c #13271A",
"e#	c #143C21",
"f#	c #1D522D",
"g#	c #285835",
"h#	c #14421F",
"i#	c #C9981D",
"j#	c #DFA620",
"k#	c #DFA51C",
"l#	c #E3AC20",
"m#	c #E8B828",
"n#	c #E7BC33",
"o#	c #EBC32D",
"p#	c #EBC32F",
"q#	c #E3B224",
"r#	c #E8BA27",
"s#	c #ECBF2B",
"t#	c #EAB71F",
"u#	c #EFC12B",
"v#	c #ECBE26",
"w#	c #E0A91B",
"x#	c #E3B120",
"y#	c #C6A326",
"z#	c #226440",
"A#	c #224C2D",
"B#	c #0A1C0F",
"C#	c #1F4128",
"D#	c #1A4826",
"E#	c #235330",
"F#	c #21522F",
"G#	c #6F6D1F",
"H#	c #848029",
"I#	c #827E29",
"J#	c #837D26",
"K#	c #84842C",
"L#	c #85862A",
"M#	c #817F23",
"N#	c #7F7D26",
"O#	c #807F27",
"P#	c #86852D",
"Q#	c #8D8A32",
"R#	c #8C8A2E",
"S#	c #969438",
"T#	c #858024",
"U#	c #85822C",
"V#	c #87822F",
"W#	c #848229",
"X#	c #72792A",
"Y#	c #1E5B36",
"Z#	c #13391B",
"`#	c #09190D",
" $	c #1D3D25",
".$	c #113E1C",
"+$	c #1E4F2B",
"@$	c #134B28",
"#$	c #144928",
"$$	c #154929",
"%$	c #1D4F30",
"&$	c #265839",
"*$	c #235839",
"=$	c #0D4222",
"-$	c #0E4525",
";$	c #0E4826",
">$	c #2C6745",
",$	c #19512F",
"'$	c #1C5131",
")$	c #306243",
"!$	c #1F5031",
"~$	c #1E5132",
"{$	c #326948",
"]$	c #195331",
"^$	c #2A6844",
"/$	c #1E5D34",
"($	c #356845",
"_$	c #154020",
":$	c #0D2113",
"<$	c #183920",
"[$	c #2A5937",
"}$	c #235933",
"|$	c #205530",
"1$	c #1D4E2B",
"2$	c #245230",
"3$	c #235430",
"4$	c #285B36",
"5$	c #1F5630",
"6$	c #124B25",
"7$	c #346844",
"8$	c #245631",
"9$	c #154421",
"0$	c #164120",
"a$	c #265231",
"b$	c #1B4A27",
"c$	c #275F3A",
"d$	c #36704A",
"e$	c #25633B",
"f$	c #225631",
"g$	c #1A4727",
"h$	c #1A3A22",
"i$	c #2F603C",
"j$	c #1F5530",
"k$	c #245632",
"l$	c #1E4D2B",
"m$	c #255330",
"n$	c #2A603A",
"o$	c #205833",
"p$	c #41724E",
"q$	c #2C5836",
"r$	c #1B4323",
"s$	c #0E3717",
"t$	c #0F3E1A",
"u$	c #174A26",
"v$	c #306843",
"w$	c #396D49",
"x$	c #275635",
"y$	c #14271A",
"z$	c #0D2E15",
"A$	c #285634",
"B$	c #1D502C",
"C$	c #245B35",
"D$	c #1B4C29",
"E$	c #204E2B",
"F$	c #1D4A28",
"G$	c #12411E",
"H$	c #1B4E29",
"I$	c #1E4A28",
"J$	c #1C3F20",
"K$	c #274F2E",
"L$	c #1B4C28",
"M$	c #184825",
"N$	c #295A37",
"O$	c #1F552F",
"P$	c #245433",
"Q$	c #0D1F12",
"R$	c #123219",
"S$	c #2B5938",
"T$	c #245431",
"U$	c #2C5E3C",
"V$	c #346644",
"W$	c #1A4526",
"X$	c #1A4324",
"Y$	c #1C4224",
"Z$	c #163F20",
"`$	c #24512F",
" %	c #416F4E",
".%	c #1A4625",
"+%	c #234C2E",
"@%	c #254A2D",
"#%	c #1F4728",
"$%	c #265433",
"%%	c #184424",
"&%	c #285132",
"*%	c #1B4223",
"=%	c #2B5636",
"-%	c #2B5C39",
";%	c #295A38",
">%	c #0A1B0F",
",%	c #0E2F17",
"'%	c #203F28",
")%	c #2B4A33",
"!%	c #20422A",
"~%	c #2F533A",
"{%	c #284B33",
"]%	c #1F4028",
"^%	c #1F3E27",
"/%	c #23412A",
"(%	c #1B3520",
"_%	c #1A3721",
":%	c #25422B",
"<%	c #42624B",
"[%	c #31553C",
"}%	c #2D5038",
"|%	c #2E4F37",
"1%	c #22412A",
"2%	c #17371F",
"3%	c #193B22",
"4%	c #204029",
"5%	c #26412C",
"6%	c #1B341F",
"7%	c #25412B",
"8%	c #2D5138",
"9%	c #23472F",
"0%	c #122216",
"a%	c #36533E",
"b%	c #3C5A45",
"c%	c #33533D",
"d%	c #30503A",
"e%	c #34523D",
"f%	c #27432E",
"g%	c #2D4935",
"h%	c #3A5943",
"i%	c #25402C",
"j%	c #3A5641",
"k%	c #3F5D48",
"l%	c #315039",
"m%	c #355640",
"n%	c #34563F",
"o%	c #35543D",
"p%	c #2F4C36",
"q%	c #2E4C36",
"r%	c #24442D",
"s%	c #27432D",
"t%	c #35523C",
"u%	c #2D4833",
"v%	c #3C5B46",
"w%	c #42604B",
"x%	c #304E38",
"y%	c #1D3725",
"  . + @ # $ % & * = - ; > , ' ) ! ~ { ] ^ / ( _ :   ",
"< [ } | 1 2 3 4 5 6 7 8 9 0 a b c d e f g h i j k l ",
"m n o p q r s t u v w x y z A B C D E F G H I J K L ",
"M N O P Q R S T U V W X Y Z `  ...+.@.#.$.%.| &.*.=.",
"-.;.>.,.'.).!.~.6 {.].^./.(._.:.<.[.}.|.1.2.3.4.5.6.",
"7.8.9.0.a.b.c.d.e.f.g.h.i.j.@.k.l.m.n.o.p.q.r.s.t.u.",
"v.w.n x.y.z.A.B.C.D.E.F.G.H.I.{ J.K.L.M.N.O.P.Q.R.S.",
"T.U.V.W.X.Y.Z.`. +.+++i.@+#+$+%+&+*+=+-+;+>+,+'+)+!+",
"~+{+]+^+/+(+_+:+<+[+}+|+1+/+2+3+4+g.5+6+7+8+9+0+a+b+",
"c+d+e+f+g+h+i+j+k+l+m+n+o+p+q+r+s+t+u+v+w+x+$+]+y+z+",
"A+B+C+D+E+F+G+n H+I+J+K+L+M+_+Q N+O+c.P+Q+R+S+f+T+U+",
"V+u W+X+Y+Z+`+ @.@+@@@$.#.; #@$@`.%@&@*@=@-@;@>@,@'@",
")@!@~@{@]@^@/@(@_@:@<@[@}@|@1@7+2@3@4@Q+f+5@6@7@8@9@",
"0@a@X+b@8+c@7 d@e@f@g@h@i@j@k@l@m@n@o@p@q@r@s@t@u@l ",
"v@w@x@i.y@z@A@B@C@D@E@F@G@H@I@J@K@L@M@N@O@P@u+Q@R@S@",
"T@U@V@W@X@Y@Z@`@ #.#+#@###$#%#&#*#=#-#;#>#,#'#)#!#~#",
"{#]#<+^#/#(#_#:#<#[#}#|#1#2#3#4#5#6#7#8#9#0#a#b#c#d#",
"e#f#g#h#i#j#k#l#m#n#m#o#p#q#r#s#t#u#v#w#x#y#z#G.A#B#",
"C#D#E#F#G#H#I#J#K#L#M#N#O#P#Q#R#S#T#U#V#W#X#Y#j+Z#`#",
" $.$+$3+@$#$$$%$&$*$=$-$;$>$,$'$)$!$~${$]$^$/$($_$:$",
"<$[$L._.}$|$1$R 2$3$4$5$6$7$8$9$0$a$b$s+c$d$e$f$g$d#",
"h$,.i$u+j$O+k$l$m$X. +n$o$p$q$r$6@s$t$u$N+|$v$w$x$y$",
"z$A$*@B$C$W.D$9$E$F$G$H$|$q+I$o@J$K$L$M$M$N${+O$P$Q$",
"R$y.S$T$U$V$O W$X$Y$Z$$ `$ %.%+%@%#%$%%%&%*%=%-%;%>%",
",%'%)%!%~%{%]%^%/%(%_%:%<%[%}%|%1%2%3%4%5%6%7%8%9%0%",
"  a%b%c%d%e%f%g%h%i%j%k%l%m%n%o%p%q%r%s%t%u%v%w%x%y%"};
