/* XPM */
static char * right_inactive_xpm[] = {
"1 21 20 1",
" 	c None",
".	c #571D09",
"+	c #581D0A",
"@	c #63230E",
"#	c #5B1F0B",
"$	c #692710",
"%	c #61230D",
"&	c #61220D",
"*	c #5C1F0B",
"=	c #66250F",
"-	c #581D09",
";	c #5F210C",
">	c #6A2711",
",	c #722A13",
"'	c #65250F",
")	c #5B1E0A",
"!	c #60210D",
"~	c #5E200C",
"{	c #5C200B",
"]	c #61230E",
".",
"+",
"@",
"#",
"$",
"%",
"&",
"*",
"*",
"=",
"-",
";",
">",
",",
"'",
")",
"!",
"~",
"@",
"{",
"]"};
