/* XPM */
static char * shade_pressed_xpm[] = {
"26 26 551 2",
"  	c None",
". 	c #061306",
"+ 	c #071A07",
"@ 	c #061407",
"# 	c #071708",
"$ 	c #0D250C",
"% 	c #0D270E",
"& 	c #0E3A0E",
"* 	c #0D3B0D",
"= 	c #0E420D",
"- 	c #0B340B",
"; 	c #062B05",
"> 	c #052D05",
", 	c #0F4A0F",
"' 	c #095E09",
") 	c #137514",
"! 	c #105810",
"~ 	c #052605",
"{ 	c #052C05",
"] 	c #063206",
"^ 	c #0B5D0A",
"/ 	c #0A470A",
"( 	c #062806",
"_ 	c #051A05",
": 	c #051205",
"< 	c #192818",
"[ 	c #1F301F",
"} 	c #1F2E1F",
"| 	c #1F3120",
"1 	c #263F26",
"2 	c #264226",
"3 	c #234723",
"4 	c #255525",
"5 	c #235723",
"6 	c #224922",
"7 	c #204B20",
"8 	c #205520",
"9 	c #1F4B1F",
"0 	c #246A25",
"a 	c #279627",
"b 	c #2A9C2B",
"c 	c #57BF57",
"d 	c #1F4D1F",
"e 	c #2A762A",
"f 	c #2AA12B",
"g 	c #205F21",
"h 	c #1F401F",
"i 	c #1B311B",
"j 	c #020802",
"k 	c #041104",
"l 	c #0F240E",
"m 	c #1A281A",
"n 	c #1A291A",
"o 	c #1B2D1B",
"p 	c #213B21",
"q 	c #234423",
"r 	c #20451F",
"s 	c #1A401A",
"t 	c #1C501C",
"u 	c #1A381A",
"v 	c #1A461A",
"w 	c #1B4C1B",
"x 	c #1A551A",
"y 	c #268E27",
"z 	c #259D25",
"A 	c #53C554",
"B 	c #2F8030",
"C 	c #1C4F1C",
"D 	c #4FB94F",
"E 	c #1D811D",
"F 	c #1A4E1A",
"G 	c #1A3A1A",
"H 	c #0C1D0C",
"I 	c #020702",
"J 	c #051005",
"K 	c #051605",
"L 	c #071907",
"M 	c #061906",
"N 	c #061706",
"O 	c #0A1F0A",
"P 	c #143914",
"Q 	c #113C11",
"R 	c #0A360B",
"S 	c #095109",
"T 	c #062606",
"U 	c #084008",
"V 	c #063806",
"W 	c #063906",
"X 	c #084608",
"Y 	c #096109",
"Z 	c #0B7D0B",
"` 	c #89D289",
" .	c #146414",
"..	c #1F6F1F",
"+.	c #2F982F",
"@.	c #085108",
"#.	c #072F07",
"$.	c #062006",
"%.	c #021102",
"&.	c #051105",
"*.	c #061A06",
"=.	c #071E07",
"-.	c #061C06",
";.	c #0A2C09",
">.	c #0D2C0D",
",.	c #123913",
"'.	c #0D2D0C",
").	c #083B09",
"!.	c #0B5C0C",
"~.	c #072C06",
"{.	c #094A0A",
"].	c #053E05",
"^.	c #044003",
"/.	c #073C07",
"(.	c #0A5A09",
"_.	c #0B670B",
":.	c #3B963B",
"<.	c #116911",
"[.	c #2A902A",
"}.	c #145F15",
"|.	c #094B08",
"1.	c #072A06",
"2.	c #061D07",
"3.	c #031302",
"4.	c #050F05",
"5.	c #061705",
"6.	c #061B07",
"7.	c #072407",
"8.	c #093009",
"9.	c #0F3510",
"0.	c #133C14",
"a.	c #0E2F0E",
"b.	c #0A430A",
"c.	c #0F6B10",
"d.	c #073307",
"e.	c #064105",
"f.	c #255327",
"g.	c #466A4A",
"h.	c #003600",
"i.	c #084907",
"j.	c #106010",
"k.	c #075807",
"l.	c #228122",
"m.	c #136D13",
"n.	c #064406",
"o.	c #084A08",
"p.	c #062406",
"q.	c #051A06",
"r.	c #071F07",
"s.	c #072507",
"t.	c #0E2A0E",
"u.	c #103610",
"v.	c #0F350F",
"w.	c #105010",
"x.	c #187718",
"y.	c #063A07",
"z.	c #225D24",
"A.	c #A7AEB5",
"B.	c #B4B9C1",
"C.	c #4C6D52",
"D.	c #043B04",
"E.	c #085308",
"F.	c #095A09",
"G.	c #1C881D",
"H.	c #0A6C09",
"I.	c #074B08",
"J.	c #074307",
"K.	c #062106",
"L.	c #021202",
"M.	c #051305",
"N.	c #061B06",
"O.	c #071D06",
"P.	c #071C07",
"Q.	c #0B240C",
"R.	c #0C2B0C",
"S.	c #0A2C0A",
"T.	c #083E09",
"U.	c #0A660A",
"V.	c #2D5C30",
"W.	c #A1A5AF",
"X.	c #B0B4BD",
"Y.	c #A3A6B2",
"Z.	c #5A7661",
"`.	c #105C11",
" +	c #0C690C",
".+	c #208A20",
"++	c #107210",
"@+	c #084308",
"#+	c #072207",
"$+	c #061F07",
"%+	c #031202",
"&+	c #020703",
"*+	c #061606",
"=+	c #081B07",
"-+	c #0D270C",
";+	c #0F320F",
">+	c #0B300B",
",+	c #043005",
"'+	c #48824E",
")+	c #989AA5",
"!+	c #9EA3AC",
"~+	c #B1B6BE",
"{+	c #B7BBC3",
"]+	c #9FA5AE",
"^+	c #B2B5BF",
"/+	c #91B297",
"(+	c #147614",
"_+	c #6FC66F",
":+	c #198019",
"<+	c #075107",
"[+	c #083D08",
"}+	c #072606",
"|+	c #050E04",
"1+	c #051405",
"2+	c #061806",
"3+	c #081E08",
"4+	c #0C220C",
"5+	c #0E2D0E",
"6+	c #093109",
"7+	c #64766B",
"8+	c #80858B",
"9+	c #9599A1",
"0+	c #A0A4AC",
"a+	c #B4B8C0",
"b+	c #B8BDC4",
"c+	c #A4AAB2",
"d+	c #AFB4BC",
"e+	c #D4D7DE",
"f+	c #CFDDD6",
"g+	c #A7E1A7",
"h+	c #329932",
"i+	c #095509",
"j+	c #063006",
"k+	c #062207",
"l+	c #031403",
"m+	c #050E05",
"n+	c #072707",
"o+	c #081A08",
"p+	c #163716",
"q+	c #7E8A85",
"r+	c #90929B",
"s+	c #7F838B",
"t+	c #9598A0",
"u+	c #A0A5AE",
"v+	c #B6BBC2",
"w+	c #BBBFC7",
"x+	c #A7ACB5",
"y+	c #D4D7DD",
"z+	c #E5E8ED",
"A+	c #E1E7E9",
"B+	c #44AF46",
"C+	c #085A08",
"D+	c #083708",
"E+	c #062206",
"F+	c #061E07",
"G+	c #031102",
"H+	c #050D05",
"I+	c #061605",
"J+	c #082C08",
"K+	c #051704",
"L+	c #2E402F",
"M+	c #A9B0AF",
"N+	c #AFB0B9",
"O+	c #8F919A",
"P+	c #848890",
"Q+	c #A1A6AE",
"R+	c #BABEC6",
"S+	c #BFC4CA",
"T+	c #ABB1B9",
"U+	c #BBC0C7",
"V+	c #D5D8DE",
"W+	c #E8EBEF",
"X+	c #E9EBF1",
"Y+	c #C8D3D1",
"Z+	c #427A46",
"`+	c #013000",
" @	c #072306",
".@	c #071C06",
"+@	c #021002",
"@@	c #061A07",
"#@	c #2F3E30",
"$@	c #C3C8C9",
"%@	c #CDCED3",
"&@	c #A7ABB0",
"*@	c #8C8F96",
"=@	c #878A92",
"-@	c #979AA2",
";@	c #A4A9B1",
">@	c #BDC1C9",
",@	c #C3C7CE",
"'@	c #B0B5BD",
")@	c #C1C6CD",
"!@	c #D8DBE0",
"~@	c #E7ECED",
"{@	c #D0D7D8",
"]@	c #ADB4B8",
"^@	c #547259",
"/@	c #052405",
"(@	c #031203",
"_@	c #040C05",
":@	c #071807",
"<@	c #091B09",
"[@	c #0D290D",
"}@	c #0C2C0C",
"|@	c #0C320B",
"1@	c #204622",
"2@	c #8E9199",
"3@	c #9DA1A8",
"4@	c #A6ABB3",
"5@	c #C0C4CA",
"6@	c #C5C9D0",
"7@	c #B5BAC1",
"8@	c #C5CAD1",
"9@	c #DADDE2",
"0@	c #8EB692",
"a@	c #054305",
"b@	c #0B570B",
"c@	c #0E570E",
"d@	c #062A06",
"e@	c #040B05",
"f@	c #102E10",
"g@	c #113410",
"h@	c #244A26",
"i@	c #9597A0",
"j@	c #A4A6AE",
"k@	c #ACB0B8",
"l@	c #C4C7CD",
"m@	c #C9CCD2",
"n@	c #BABFC6",
"o@	c #C7CCD2",
"p@	c #DEE0E5",
"q@	c #8FAC92",
"r@	c #084208",
"s@	c #073506",
"t@	c #0B4E0B",
"u@	c #061F06",
"v@	c #021402",
"w@	c #061506",
"x@	c #071806",
"y@	c #0F2D0F",
"z@	c #123A12",
"A@	c #0C3D0D",
"B@	c #234C25",
"C@	c #9C9EA6",
"D@	c #AAADB5",
"E@	c #AEB2B9",
"F@	c #C4C8CE",
"G@	c #BDC2C9",
"H@	c #CACED4",
"I@	c #E0E3E7",
"J@	c #8FA391",
"K@	c #072E07",
"L@	c #083A08",
"M@	c #072106",
"N@	c #031503",
"O@	c #050C04",
"P@	c #061406",
"Q@	c #0C280C",
"R@	c #124112",
"S@	c #285B2A",
"T@	c #A0A3AA",
"U@	c #AFB2B8",
"V@	c #B2B5BD",
"W@	c #C5C8CE",
"X@	c #CACDD3",
"Y@	c #C5C8CF",
"Z@	c #CDD1D6",
"`@	c #E3E6EA",
" #	c #90A692",
".#	c #052B06",
"+#	c #072D07",
"@#	c #072B07",
"##	c #0B280B",
"$#	c #0A380A",
"%#	c #0F5F0F",
"&#	c #256226",
"*#	c #A2A5AC",
"=#	c #AFB2B9",
"-#	c #B3B6BD",
";#	c #C6C9D0",
">#	c #CBCED4",
",#	c #D0D4D9",
"'#	c #E7E9ED",
")#	c #92AE94",
"!#	c #052705",
"~#	c #082B07",
"{#	c #071A06",
"]#	c #061607",
"^#	c #071406",
"/#	c #031103",
"(#	c #020602",
"_#	c #050C05",
":#	c #092109",
"<#	c #0E340E",
"[#	c #0C4A0C",
"}#	c #147814",
"|#	c #29722A",
"1#	c #A2A4AC",
"2#	c #B0B3BA",
"3#	c #B2B5BC",
"4#	c #C6C9CF",
"5#	c #CBCFD4",
"6#	c #CCD0D5",
"7#	c #D5D8DD",
"8#	c #EAEBEF",
"9#	c #90A492",
"0#	c #062007",
"a#	c #020D02",
"b#	c #051606",
"c#	c #0B310B",
"d#	c #114A11",
"e#	c #105410",
"f#	c #156E15",
"g#	c #2B7B2C",
"h#	c #A7A6B0",
"i#	c #B5B6BE",
"j#	c #B3B5BE",
"k#	c #C8CBD1",
"l#	c #CFD0D8",
"m#	c #D3D4DB",
"n#	c #DCDDE4",
"o#	c #EEEFF4",
"p#	c #91A494",
"q#	c #051E05",
"r#	c #071B07",
"s#	c #030B03",
"t#	c #040E05",
"u#	c #0A3C0A",
"v#	c #104810",
"w#	c #104B10",
"x#	c #0F600F",
"y#	c #226B22",
"z#	c #7EA685",
"A#	c #87A88E",
"B#	c #96B79C",
"C#	c #BACEC0",
"D#	c #92B698",
"E#	c #AACBB0",
"F#	c #ABCBB0",
"G#	c #A8C7AB",
"H#	c #647E66",
"I#	c #051805",
"J#	c #071B06",
"K#	c #061507",
"L#	c #061206",
"M#	c #020A03",
"N#	c #050D04",
"O#	c #051705",
"P#	c #083608",
"Q#	c #094109",
"R#	c #0D440D",
"S#	c #126512",
"T#	c #1A691A",
"U#	c #0C510C",
"V#	c #118411",
"W#	c #035D04",
"X#	c #208C1F",
"Y#	c #C6F1C5",
"Z#	c #004D00",
"`#	c #2B982A",
" $	c #48AA47",
".$	c #004F00",
"+$	c #002C00",
"@$	c #061007",
"#$	c #084609",
"$$	c #0E540F",
"%$	c #0E5A0E",
"&$	c #0B3F0B",
"*$	c #093809",
"=$	c #074607",
"-$	c #095B09",
";$	c #065C06",
">$	c #3AA43A",
",$	c #054606",
"'$	c #0F5D0F",
")$	c #5FBB5F",
"!$	c #043A04",
"~$	c #073207",
"{$	c #061106",
"]$	c #061006",
"^$	c #020B03",
"/$	c #020502",
"($	c #050F04",
"_$	c #0D280C",
":$	c #0D3E0D",
"<$	c #0D300D",
"[$	c #123C12",
"}$	c #153D15",
"|$	c #123512",
"1$	c #0D2E0D",
"2$	c #0C320C",
"3$	c #0C360C",
"4$	c #0F510F",
"5$	c #1A841A",
"6$	c #0F460F",
"7$	c #0D3F0D",
"8$	c #237C24",
"9$	c #155015",
"0$	c #0D310D",
"a$	c #0C200C",
"b$	c #0C170C",
"c$	c #0C160C",
"d$	c #0C150C",
"e$	c #020402",
"f$	c #081808",
"g$	c #152E15",
"h$	c #183E18",
"i$	c #162D16",
"j$	c #172817",
"k$	c #1C321C",
"l$	c #182618",
"m$	c #172916",
"n$	c #172C17",
"o$	c #172716",
"p$	c #163116",
"q$	c #164616",
"r$	c #193F19",
"s$	c #163216",
"t$	c #173E17",
"u$	c #275927",
"v$	c #162C16",
"w$	c #162516",
"x$	c #162016",
"y$	c #161E16",
"z$	c #161C16",
"A$	c #151915",
"B$	c #040704",
"C$	c #1E3D1E",
"D$	c #1D331D",
"E$	c #1C281C",
"F$	c #1D281D",
"G$	c #1E2B1E",
"H$	c #1F2B1F",
"I$	c #1D2A1D",
"J$	c #1B2A1B",
"K$	c #1B281A",
"L$	c #1B281B",
"M$	c #1B2F1B",
"N$	c #1B391B",
"O$	c #1D401D",
"P$	c #1C321B",
"Q$	c #1C301C",
"R$	c #244A24",
"S$	c #1A2A19",
"T$	c #192819",
"U$	c #1A231A",
"V$	c #1A211A",
"W$	c #1A201B",
"X$	c #1B211B",
"Y$	c #1C201C",
"Z$	c #1D211D",
"  . + @ # $ % & * = - ; > > , ' ) ! ~ { ] ^ / ( _   ",
": < [ } | 1 2 3 4 5 6 7 8 9 0 a b c 5 d e f g h i j ",
"k l m n o p q r s t u v w v x y z A B C D E F G H I ",
"J K L M N O P Q R S T U V W X Y Z `  ...+.@.#.$.%.j ",
"&.*.=.-.;.>.,.'.).!.~.{.].^./.(._.:.<.[.}.|.1.2.3.j ",
"4.5.6.7.8.9.0.a.b.c.d.e.f.g.h.i.j.k.l.m.n.o.p.M 3.j ",
"J q.r.s.2.t.u.v.w.x.y.z.A.B.C.D.E.F.G.H.I.J.K.M L.I ",
"M.N.O.P.L Q.R.S.T.U.V.W.X.B.Y.Z.`. +.+++J.@+#+$+%+&+",
": *.P.*+=+-+;+>+,+'+)+!+~+{+]+^+/+(+_+:+<+[+}+r.L.j ",
"|+1+2+N.3+4+5+6+7+8+9+0+a+b+c+d+e+f+g+h+i+j+p.k+l+I ",
"m+1+$.n+o+L p+q+r+s+t+u+v+w+x+B.y+z+A+B+C+D+E+F+G+I ",
"H+I+J+=.K+L+M+N+O+P+9+Q+R+S+T+U+V+W+X+Y+Z+`+ @.@+@I ",
"H+N =.@@#@$@%@&@*@=@-@;@>@,@'@)@!@~@A+{@]@^@/@-.(@I ",
"_@: :@6.<@[@}@|@1@2@3@4@5@6@7@8@9@0@a@b@c@d@#+r.G+I ",
"e@&.*+N K f@g@>+h@i@j@k@l@m@n@o@p@q@r@s@t@u@$+#+v@I ",
"e@: *+w@x@y@z@A@B@C@D@E@F@m@G@H@I@J@] K@L@*.@@M@N@I ",
"O@: P@w@M Q@R@! S@T@U@V@W@X@Y@Z@`@ #.#+#@#*.N M G+I ",
"H+M.. w@6.##$#%#&#*#=#-#;#>#m@,#'#)#!#~#n+{#]#^#/#(#",
"_#K P@2+:#<#[#}#|#1#2#3#4#5#6#7#8#9#~ 0#J+2+P@. a#(#",
"H+b#w@M c#d#e#f#g#h#i#j#k#l#m#n#o#p#q#r##+N P@. s#(#",
"t#M @ M@u#v#w#x#y#z#A#B#C#D#E#F#G#H#I#*+J#K#L#L#M#(#",
"N#O#*.P#Q#R#S#T#U#V#W#X#Y#Z#`# $.$+$5.P@x@. . @$s#(#",
"4.I#K.P##$$$%$&$*$=$-$;$>$,$'$)$!$~$2+w@*+. {$]$^$/$",
"($=._$:$<$[$}$|$1$2$3$4$5$6$7$8$9$0$a$H b$c$d$d$_@e$",
"f$g$h$i$j$k$o l$m$n$o$p$q$r$s$t$u$v$w$x$y$z$z$z$A$B$",
"  C$D$E$F$G$H$I$J$K$L$M$N$O$P$Q$R$S$T$U$V$W$X$Y$Z$  "};
