/* XPM */
static char * title_3_inactive_xpm[] = {
"2 26 39 1",
" 	c None",
".	c #571C09",
"+	c #571D09",
"@	c #581D0A",
"#	c #5A1E0A",
"$	c #65250F",
"%	c #62230D",
"&	c #5B1F0A",
"*	c #5B1F0B",
"=	c #5A1F0B",
"-	c #5F210D",
";	c #672610",
">	c #6D2A12",
",	c #682810",
"'	c #541C08",
")	c #591E0A",
"!	c #5C200D",
"~	c #5A1D0A",
"{	c #5E200C",
"]	c #62230E",
"^	c #5E210C",
"/	c #5C1F0C",
"(	c #61220C",
"_	c #60220D",
":	c #571C0A",
"<	c #561D0A",
"[	c #6C2811",
"}	c #6C2812",
"|	c #652510",
"1	c #732A13",
"2	c #712B13",
"3	c #702A14",
"4	c #5F210C",
"5	c #60220C",
"6	c #5D200C",
"7	c #61210D",
"8	c #571D0A",
"9	c #561B08",
"0	c #64240F",
".+",
"@#",
"$%",
"&*",
"=-",
";>",
",'",
")!",
"#~",
"{]",
"]^",
"/-",
"(_",
":<",
"[}",
"|;",
"11",
"23",
"45",
"^6",
"]]",
"_7",
"89",
"(0",
"*.",
"%#"};
