/* XPM */
static char * title_4_active_xpm[] = {
"2 26 43 1",
" 	c None",
".	c #571C09",
"+	c #581D0A",
"@	c #5A1E0A",
"#	c #65240E",
"$	c #62230D",
"%	c #5A1F0A",
"&	c #5A1F0B",
"*	c #5F210D",
"=	c #672610",
"-	c #6D2A12",
";	c #692810",
">	c #541B08",
",	c #591D0A",
"'	c #5C200C",
")	c #5A1D0A",
"!	c #5E200C",
"~	c #62230E",
"{	c #5F210C",
"]	c #5C1F0B",
"^	c #5E210C",
"/	c #61220C",
"(	c #60220D",
"_	c #571D09",
":	c #561D09",
"<	c #6C2812",
"[	c #6C2811",
"}	c #65250F",
"|	c #672611",
"1	c #722A13",
"2	c #732A12",
"3	c #702A13",
"4	c #5F200C",
"5	c #60220C",
"6	c #5D200B",
"7	c #63230E",
"8	c #60210D",
"9	c #61210D",
"0	c #571C0A",
"a	c #551C09",
"b	c #64240E",
"c	c #5B1F0B",
"d	c #61230D",
"..",
"+@",
"#$",
"%&",
"%*",
"=-",
";>",
",'",
"@)",
"!~",
"~{",
"]^",
"/(",
"_:",
"<[",
"}|",
"12",
"33",
"45",
"^6",
"~7",
"89",
"0a",
"(b",
"c.",
"d@"};
