/* XPM */
static char * top_left_active_xpm[] = {
"2 26 41 1",
" 	c None",
".	c #571D09",
"+	c #581D09",
"@	c #571C0A",
"#	c #5A1E0B",
"$	c #65250F",
"%	c #63240E",
"&	c #5B1F0A",
"*	c #5B1F0B",
"=	c #5A1F0B",
"-	c #5F210D",
";	c #672610",
">	c #6C2911",
",	c #682710",
"'	c #541B09",
")	c #5E210D",
"!	c #5E200C",
"~	c #5D1F0B",
"{	c #60220D",
"]	c #63230E",
"^	c #62230E",
"/	c #5C1F0B",
"(	c #62230D",
"_	c #61230E",
":	c #561C09",
"<	c #551C09",
"[	c #6D2811",
"}	c #6D2912",
"|	c #682610",
"1	c #742A13",
"2	c #732A13",
"3	c #712B13",
"4	c #702A13",
"5	c #5E210C",
"6	c #5C200B",
"7	c #61230D",
"8	c #5F210C",
"9	c #60210C",
"0	c #591E0A",
"a	c #571C09",
"b	c #662610",
".+",
"@#",
"$%",
"&*",
"=-",
";>",
",'",
"*)",
"!~",
"{]",
"^!",
"/-",
"(_",
":<",
"[}",
";|",
"12",
"34",
"!5",
"6/",
"{7",
"89",
"0a",
"]b",
"6a",
"^0"};
