/* XPM */
static char * bottom_active_xpm[] = {
"8 1 4 1",
" 	c #5F210C",
".	c #60210C",
"+	c #5E200C",
"@	c #5F200C",
" .  +  @"};
