/* XPM */
static char * hide_pressed_xpm[] = {
"26 26 559 2",
"  	c None",
". 	c #061306",
"+ 	c #071A07",
"@ 	c #071707",
"# 	c #0D250C",
"$ 	c #0D280E",
"% 	c #0E3A0E",
"& 	c #0D3A0D",
"* 	c #0D420D",
"= 	c #0B340B",
"- 	c #052B05",
"; 	c #052D05",
"> 	c #042D04",
", 	c #0E4A0E",
"' 	c #095E09",
") 	c #137514",
"! 	c #10570F",
"~ 	c #052605",
"{ 	c #052C05",
"] 	c #063206",
"^ 	c #0A5C0A",
"/ 	c #0A470A",
"( 	c #062806",
"_ 	c #051A05",
": 	c #051105",
"< 	c #182918",
"[ 	c #1F2F1F",
"} 	c #1F2D1E",
"| 	c #1F301F",
"1 	c #253F25",
"2 	c #254226",
"3 	c #234723",
"4 	c #245525",
"5 	c #235623",
"6 	c #214922",
"7 	c #1F4B1F",
"8 	c #1F551F",
"9 	c #246924",
"0 	c #269527",
"a 	c #2A9C2A",
"b 	c #57BF57",
"c 	c #1E4D1E",
"d 	c #2A762A",
"e 	c #2AA12B",
"f 	c #1F5D1F",
"g 	c #1F401E",
"h 	c #19301A",
"i 	c #020802",
"j 	c #041104",
"k 	c #0F250F",
"l 	c #1A291A",
"m 	c #1A2A1A",
"n 	c #1B2D1B",
"o 	c #213C21",
"p 	c #234423",
"q 	c #214520",
"r 	c #1A411B",
"s 	c #1C4F1C",
"t 	c #1B381A",
"u 	c #1A471B",
"v 	c #1B4B1B",
"w 	c #1A481A",
"x 	c #1B551B",
"y 	c #278E27",
"z 	c #259E26",
"A 	c #53C653",
"B 	c #308031",
"C 	c #1D501D",
"D 	c #4EB84E",
"E 	c #1E821E",
"F 	c #1A4E1B",
"G 	c #1B3A1A",
"H 	c #0C1D0C",
"I 	c #020702",
"J 	c #041005",
"K 	c #051505",
"L 	c #071907",
"M 	c #061906",
"N 	c #061606",
"O 	c #0A1F0A",
"P 	c #143A14",
"Q 	c #113C11",
"R 	c #0A360B",
"S 	c #095009",
"T 	c #062606",
"U 	c #084108",
"V 	c #063806",
"W 	c #063906",
"X 	c #084708",
"Y 	c #096009",
"Z 	c #0C7D0C",
"` 	c #8DD58D",
" .	c #156515",
"..	c #1F6F1F",
"+.	c #319B31",
"@.	c #085108",
"#.	c #073007",
"$.	c #061F06",
"%.	c #021202",
"&.	c #061B06",
"*.	c #071F07",
"=.	c #071C06",
"-.	c #092C09",
";.	c #0D2B0D",
">.	c #133A13",
",.	c #0D2D0C",
"'.	c #083B09",
").	c #0B5B0C",
"!.	c #062C06",
"~.	c #0A4B0A",
"{.	c #083F07",
"].	c #084308",
"^.	c #073C07",
"/.	c #095B0A",
"(.	c #0A670A",
"_.	c #399639",
":.	c #106911",
"<.	c #299029",
"[.	c #145F14",
"}.	c #084B08",
"|.	c #072A06",
"1.	c #061D07",
"2.	c #031302",
"3.	c #050F05",
"4.	c #051605",
"5.	c #071B07",
"6.	c #072307",
"7.	c #092F09",
"8.	c #0F350F",
"9.	c #133C13",
"0.	c #0D2F0D",
"a.	c #0B430B",
"b.	c #106C10",
"c.	c #073307",
"d.	c #073F07",
"e.	c #073D07",
"f.	c #084807",
"g.	c #0F600F",
"h.	c #055705",
"i.	c #228122",
"j.	c #146E14",
"k.	c #064406",
"l.	c #084A08",
"m.	c #062507",
"n.	c #051005",
"o.	c #072507",
"p.	c #0E2B0E",
"q.	c #113611",
"r.	c #103610",
"s.	c #0F5010",
"t.	c #177617",
"u.	c #073B07",
"v.	c #085008",
"w.	c #084508",
"x.	c #095209",
"y.	c #095B09",
"z.	c #1B871C",
"A.	c #0A6C0A",
"B.	c #074B07",
"C.	c #074208",
"D.	c #062007",
"E.	c #071906",
"F.	c #051304",
"G.	c #051B06",
"H.	c #071E06",
"I.	c #071D07",
"J.	c #0B240C",
"K.	c #0B2A0C",
"L.	c #092B09",
"M.	c #093F09",
"N.	c #0A660A",
"O.	c #074707",
"P.	c #074E08",
"Q.	c #0A590A",
"R.	c #0C690D",
"S.	c #208B20",
"T.	c #107210",
"U.	c #074207",
"V.	c #062207",
"W.	c #031202",
"X.	c #020703",
"Y.	c #051205",
"Z.	c #071C07",
"`.	c #061506",
" +	c #081B08",
".+	c #0C260D",
"++	c #103210",
"@+	c #0C310D",
"#+	c #083308",
"$+	c #138114",
"%+	c #085308",
"&+	c #074807",
"*+	c #084808",
"=+	c #095309",
"-+	c #0D540D",
";+	c #0B660B",
">+	c #0B710B",
",+	c #6DC56D",
"'+	c #198019",
")+	c #075107",
"!+	c #093D09",
"~+	c #062006",
"{+	c #050E04",
"]+	c #051406",
"^+	c #061706",
"/+	c #061C06",
"(+	c #081D08",
"_+	c #0C210C",
":+	c #0E2E0E",
"<+	c #0D320D",
"[+	c #0B3B0B",
"}+	c #105F10",
"|+	c #0B730C",
"1+	c #1B7B1B",
"2+	c #085208",
"3+	c #0A5B0A",
"4+	c #085B09",
"5+	c #0A5E0A",
"6+	c #075707",
"7+	c #8ECC8F",
"8+	c #B0E5B0",
"9+	c #349A34",
"0+	c #095609",
"a+	c #063006",
"b+	c #062406",
"c+	c #062107",
"d+	c #031403",
"e+	c #020602",
"f+	c #050D05",
"g+	c #072106",
"h+	c #072607",
"i+	c #091B08",
"j+	c #103110",
"k+	c #113810",
"l+	c #0A350B",
"m+	c #074307",
"n+	c #0C7E0C",
"o+	c #0E7A0E",
"p+	c #0B700B",
"q+	c #085B08",
"r+	c #0C680C",
"s+	c #0C760C",
"t+	c #ADE2AD",
"u+	c #97D997",
"v+	c #32A932",
"w+	c #095A09",
"x+	c #073708",
"y+	c #062206",
"z+	c #061F07",
"A+	c #031002",
"B+	c #050D04",
"C+	c #082B08",
"D+	c #081A08",
"E+	c #0C220B",
"F+	c #0F2F0F",
"G+	c #0A2C0A",
"H+	c #083108",
"I+	c #086309",
"J+	c #0A720A",
"K+	c #0D760D",
"L+	c #066206",
"M+	c #075908",
"N+	c #0F7C0F",
"O+	c #B3E4B3",
"P+	c #8ACF8A",
"Q+	c #1C971C",
"R+	c #0B5C0B",
"S+	c #073507",
"T+	c #072407",
"U+	c #021002",
"V+	c #061E07",
"W+	c #061B07",
"X+	c #051705",
"Y+	c #0D260C",
"Z+	c #0B320B",
"`+	c #093209",
" @	c #075808",
".@	c #1C8A1C",
"+@	c #279D27",
"@@	c #268F27",
"#@	c #0B740B",
"$@	c #19891A",
"%@	c #219121",
"&@	c #4DA04E",
"*@	c #156915",
"=@	c #178517",
"-@	c #064D06",
";@	c #073907",
">@	c #031203",
",@	c #040C05",
"'@	c #061A06",
")@	c #091C09",
"!@	c #0E290F",
"~@	c #0E2E0F",
"{@	c #0A360A",
"]@	c #0A6E0A",
"^@	c #086A08",
"/@	c #178917",
"(@	c #42B343",
"_@	c #53BA52",
":@	c #3EA63E",
"<@	c #3AA43B",
"[@	c #158415",
"}@	c #0A630B",
"|@	c #074408",
"1@	c #0D570C",
"2@	c #115B11",
"3@	c #072B07",
"4@	c #071E07",
"5@	c #021102",
"6@	c #172618",
"7@	c #203C22",
"8@	c #224023",
"9@	c #214221",
"0@	c #224E22",
"a@	c #268E27",
"b@	c #1D731E",
"c@	c #1D831E",
"d@	c #219022",
"e@	c #30A531",
"f@	c #47AB48",
"g@	c #59B559",
"h@	c #1B601D",
"i@	c #19531A",
"j@	c #1C531D",
"k@	c #1B441B",
"l@	c #1F5C1F",
"m@	c #182F19",
"n@	c #061E06",
"o@	c #072107",
"p@	c #040B05",
"q@	c #A5AAAE",
"r@	c #A6ACB2",
"s@	c #BFC5C8",
"t@	c #D7DCDD",
"u@	c #DFE4E4",
"v@	c #DCE8E1",
"w@	c #C5D2CC",
"x@	c #BAC5C2",
"y@	c #BDCAC5",
"z@	c #B7C6BF",
"A@	c #AFBAB9",
"B@	c #A4B0AD",
"C@	c #979D9F",
"D@	c #9AA0A2",
"E@	c #AEB1B5",
"F@	c #BFC3C4",
"G@	c #C9CFCE",
"H@	c #A8ACAB",
"I@	c #001400",
"J@	c #031603",
"K@	c #061406",
"L@	c #A9ADB4",
"M@	c #B9BDC6",
"N@	c #D1D4DB",
"O@	c #EAECF1",
"P@	c #EFF1F6",
"Q@	c #E0E2E8",
"R@	c #CBCED6",
"S@	c #B6BAC2",
"T@	c #C5C9D0",
"U@	c #C4C7CE",
"V@	c #ACAFB8",
"W@	c #9FA2AA",
"X@	c #91949C",
"Y@	c #95979E",
"Z@	c #B1B1B9",
"`@	c #CECFD4",
" #	c #E0E1E5",
".#	c #B4B7B9",
"+#	c #001000",
"@#	c #040D05",
"##	c #061505",
"$#	c #B1B6BB",
"%#	c #BDC1C9",
"&#	c #CCCFD6",
"*#	c #E0E3E8",
"=#	c #E3E6EA",
"-#	c #D5D9DD",
";#	c #B6BBC2",
">#	c #A0A7AE",
",#	c #B5BBC2",
"'#	c #A1A6AE",
")#	c #9599A1",
"!#	c #83868F",
"~#	c #8B8E96",
"{#	c #A1A3AB",
"]#	c #CBCDD2",
"^#	c #E6E8EB",
"/#	c #B9BDBD",
"(#	c #000F00",
"_#	c #031102",
":#	c #050B05",
"<#	c #061806",
"[#	c #66766A",
"}#	c #69806F",
"|#	c #6C8F72",
"1#	c #7BB180",
"2#	c #7AAB7E",
"3#	c #71A076",
"4#	c #75B17D",
"5#	c #568E5E",
"6#	c #639D6B",
"7#	c #78B17F",
"8#	c #7DB084",
"9#	c #679C6E",
"0#	c #436849",
"a#	c #506856",
"b#	c #56665B",
"c#	c #6C7970",
"d#	c #7A8D7C",
"e#	c #626C64",
"f#	c #061206",
"g#	c #020D02",
"h#	c #051606",
"i#	c #0C450B",
"j#	c #0B4F0A",
"k#	c #0F6D0F",
"l#	c #0A6B09",
"m#	c #0A5F09",
"n#	c #1F9E1F",
"o#	c #077207",
"p#	c #0A840A",
"q#	c #45B044",
"r#	c #56BE55",
"s#	c #48B148",
"t#	c #045E03",
"u#	c #023103",
"v#	c #011B01",
"w#	c #001500",
"x#	c #001D00",
"y#	c #001100",
"z#	c #061507",
"A#	c #020C03",
"B#	c #061407",
"C#	c #0B3C0A",
"D#	c #104810",
"E#	c #0F490F",
"F#	c #0E620E",
"G#	c #0D620E",
"H#	c #30A12F",
"I#	c #53AE54",
"J#	c #40A840",
"K#	c #72C172",
"L#	c #1B8D1B",
"M#	c #5BBB5B",
"N#	c #41A741",
"O#	c #147B14",
"P#	c #073207",
"Q#	c #061905",
"R#	c #030A03",
"S#	c #071A06",
"T#	c #083508",
"U#	c #0E470D",
"V#	c #136914",
"W#	c #1E721F",
"X#	c #0E560F",
"Y#	c #198919",
"Z#	c #065C06",
"`#	c #268D26",
" $	c #D5F6D5",
".$	c #004D00",
"+$	c #309A30",
"@$	c #59B15A",
"#$	c #09550A",
"$$	c #061805",
"%$	c #071806",
"&$	c #061307",
"*$	c #061006",
"=$	c #051805",
"-$	c #062106",
";$	c #083908",
">$	c #0D4E0E",
",$	c #0D590D",
"'$	c #083909",
")$	c #064306",
"!$	c #095809",
"~$	c #035B03",
"{$	c #3DA73D",
"]$	c #064706",
"^$	c #105C10",
"/$	c #54B555",
"($	c #053B05",
"_$	c #051806",
":$	c #061305",
"<$	c #051106",
"[$	c #051006",
"}$	c #030B02",
"|$	c #020502",
"1$	c #041004",
"2$	c #081E07",
"3$	c #0E2A0E",
"4$	c #0E400E",
"5$	c #0D310D",
"6$	c #143F14",
"7$	c #163F17",
"8$	c #143614",
"9$	c #0E2F0F",
"0$	c #0D340D",
"a$	c #0E370E",
"b$	c #105110",
"c$	c #1A841A",
"d$	c #104510",
"e$	c #0F420E",
"f$	c #297E28",
"g$	c #155116",
"h$	c #0E320E",
"i$	c #0D210D",
"j$	c #0D1D0D",
"k$	c #0D190D",
"l$	c #0D170D",
"m$	c #0D160E",
"n$	c #060D06",
"o$	c #122C12",
"p$	c #154015",
"q$	c #142714",
"r$	c #142614",
"s$	c #193019",
"t$	c #182B18",
"u$	c #162516",
"v$	c #152815",
"w$	c #142914",
"x$	c #142514",
"y$	c #132D14",
"z$	c #134113",
"A$	c #173C17",
"B$	c #142D14",
"C$	c #265726",
"D$	c #132A14",
"E$	c #132213",
"F$	c #131D13",
"G$	c #131B13",
"H$	c #121913",
"I$	c #131914",
"J$	c #131813",
"K$	c #131713",
"L$	c #040604",
"M$	c #203F1F",
"N$	c #203320",
"O$	c #1F2C1F",
"P$	c #202920",
"Q$	c #222D21",
"R$	c #232E23",
"S$	c #1D2B1D",
"T$	c #1D2C1D",
"U$	c #1E2C1E",
"V$	c #1F331F",
"W$	c #1F3D1F",
"X$	c #1F4220",
"Y$	c #1F351F",
"Z$	c #264B26",
"`$	c #1D2C1E",
" %	c #1E261E",
".%	c #1E251E",
"+%	c #1F241E",
"@%	c #1E251F",
"#%	c #1F241F",
"$%	c #202420",
"%%	c #2A2C2A",
"  . + . @ # $ % & * = - ; > , ' ) ! ~ { ] ^ / ( _   ",
": < [ } | 1 2 3 4 5 6 7 8 7 9 0 a b 5 c d e f g h i ",
"j k l m n o p q r s t u v w x y z A B C D E F G H I ",
"J K L M N O P Q R S T U V W X Y Z `  ...+.@.#.$.%.i ",
": &.*.=.-.;.>.,.'.).!.~.{.].^./.(._.:.<.[.}.|.1.2.i ",
"3.4.5.6.7.8.9.0.a.b.c.].d.^.e.f.g.h.i.j.k.l.m.M 2.i ",
"n._ *.o.1.p.q.r.s.t.u.v.e.w.e.e.x.y.z.A.B.C.D.E.%.I ",
"F.G.H.I.+ J.K.L.M.N.O.P.^.X ^.d.Q.R.S.T.U.].V.*.W.X.",
"Y.M Z.`. +.+++@+#+$+' %+&+*+=+-+;+>+,+'+)+!+T ~+W.I ",
"{+]+^+/+(+_+:+<+[+}+|+1+2+3+4+5+6+7+8+9+0+a+b+c+d+e+",
"f+K g+h+i+ +j+k+l+m+n+o+p+q+%+r+s+t+u+v+w+x+y+z+A+I ",
"B+^+C+*.D+E+F+G+H+*+I+J+K+L+M+N+Z O+P+Q+R+S+T+=.U+I ",
"f+^+V+W+X+Y+:+Z+`+R+ @.@+@@@#@$@%@&@*@=@-@;@m.&.>@I ",
",@Y.@ '@)@!@~@<+{@]@^@/@(@_@:@<@[@}@|@1@2@3@6.4@5@I ",
",@: N ^+6@7@8@9@0@a@b@c@d@e@f@g@h@i@j@k@l@m@n@o@2.I ",
"p@Y.`.`.q@r@s@t@u@v@w@x@y@z@A@B@C@D@E@F@G@H@I@g+J@I ",
"f+Y.K@`.L@M@N@O@P@Q@R@S@T@U@V@W@X@Y@Z@`@ #.#+#E.W.e+",
"@#Y.. ##$#%#&#*#=#-#;#>#;#,#'#)#!#~#{#]#^#/#(#`._#I ",
":#X+K@<#[#}#|#1#2#3#4#5#6#7#8#9#0#a#b#c#d#e#U+f#g#e+",
"@#h#K@'@{ i#j#k#l#m#n#o#p#q#r#s#t#u#v#w#x#y#z#. A#e+",
"f+&.B#g+C#D#E#F#G#H#I#J#K#L#M#N#O#P#Q#`.5.B#. f#R#e+",
"B+4.S#T#M.U#V#W#X#Y#Z#`# $.$+$@$#$P#$$K@%$&$. *$R#e+",
"3.=$-$;$X >$,$'$T#)$!$~${$]$^$/$($] _$`.N :$<$[$}$|$",
"1$2$3$4$5$6$7$8$9$0$a$b$c$d$e$f$g$h$i$j$k$l$l$m$n$|$",
"N o$p$q$r$s$t$u$v$w$x$y$z$A$B$P C$D$E$F$G$H$I$J$K$L$",
"  M$N$O$P$Q$R$O$S$T$U$V$W$X$Y$V$Z$`$S$ %.%+%@%#%$%%%"};
