/* XPM */
static char * hide_inactive_xpm[] = {
"26 26 561 2",
"  	c None",
". 	c #16361F",
"+ 	c #2C4B33",
"@ 	c #0B2A12",
"# 	c #15331B",
"$ 	c #12321A",
"% 	c #193C22",
"& 	c #183C22",
"* 	c #153C22",
"= 	c #1F442A",
"- 	c #183B21",
"; 	c #0E2D15",
"> 	c #102E16",
", 	c #112F18",
"' 	c #18371F",
") 	c #1A3C24",
"! 	c #30533A",
"~ 	c #2E563B",
"{ 	c #174225",
"] 	c #32583E",
"^ 	c #1E462B",
"/ 	c #275237",
"( 	c #1C492C",
"_ 	c #20492E",
": 	c #23492F",
"< 	c #142E1A",
"[ 	c #2F5338",
"} 	c #2F5237",
"| 	c #24492E",
"1 	c #25462C",
"2 	c #2E5237",
"3 	c #365C40",
"4 	c #325A3D",
"5 	c #265133",
"6 	c #2F593C",
"7 	c #234C2F",
"8 	c #25492F",
"9 	c #22452A",
"0 	c #224429",
"a 	c #24482D",
"b 	c #254B2F",
"c 	c #436C50",
"d 	c #527F60",
"e 	c #356345",
"f 	c #325B3E",
"g 	c #3A6547",
"h 	c #39694A",
"i 	c #356546",
"j 	c #2E5B3D",
"k 	c #2F5A3D",
"l 	c #122016",
"m 	c #0C2512",
"n 	c #1C3F25",
"o 	c #24472D",
"p 	c #284C31",
"q 	c #2F5238",
"r 	c #1C4026",
"s 	c #23492E",
"t 	c #355C41",
"u 	c #2B5538",
"v 	c #325C3F",
"w 	c #254C30",
"x 	c #22492E",
"y 	c #23472C",
"z 	c #2A4D33",
"A 	c #23482C",
"B 	c #14391D",
"C 	c #446E51",
"D 	c #3B6749",
"E 	c #295638",
"F 	c #2B5135",
"G 	c #264F32",
"H 	c #366446",
"I 	c #2D5639",
"J 	c #386346",
"K 	c #325A3F",
"L 	c #122218",
"M 	c #122C1A",
"N 	c #12351A",
"O 	c #13371D",
"P 	c #163A1F",
"Q 	c #0B3015",
"R 	c #335D40",
"S 	c #285336",
"T 	c #194225",
"U 	c #153C20",
"V 	c #0F3419",
"W 	c #2C5035",
"X 	c #274C32",
"Y 	c #224B2F",
"Z 	c #2D573B",
"` 	c #214D30",
" .	c #143D21",
"..	c #173C22",
"+.	c #254F32",
"@.	c #184125",
"#.	c #1F472D",
"$.	c #102117",
"%.	c #1B3521",
"&.	c #0E3218",
"*.	c #13361C",
"=.	c #22452B",
"-.	c #1D4026",
";.	c #0D3218",
">.	c #224A2E",
",.	c #1C4A2C",
"'.	c #325D40",
").	c #1C4629",
"!.	c #194125",
"~.	c #1F462B",
"{.	c #1A4226",
"].	c #275235",
"^.	c #2A5639",
"/.	c #133F22",
"(.	c #183F23",
"_.	c #193B21",
":.	c #0C3015",
"<.	c #214B2E",
"[.	c #1F462C",
"}.	c #1C4628",
"|.	c #1C442A",
"1.	c #0D1C12",
"2.	c #233D2A",
"3.	c #1B3D23",
"4.	c #35583E",
"5.	c #0F3218",
"6.	c #15381E",
"7.	c #12381D",
"8.	c #184224",
"9.	c #225032",
"0.	c #1F4C2E",
"a.	c #1B4629",
"b.	c #1F462A",
"c.	c #184326",
"d.	c #255436",
"e.	c #315F41",
"f.	c #183E23",
"g.	c #103117",
"h.	c #113319",
"i.	c #153E22",
"j.	c #1B492B",
"k.	c #204C2F",
"l.	c #163C23",
"m.	c #0A180F",
"n.	c #293F2E",
"o.	c #0F3117",
"p.	c #365B40",
"q.	c #21442A",
"r.	c #17371E",
"s.	c #11351A",
"t.	c #143B1F",
"u.	c #174024",
"v.	c #3F6E50",
"w.	c #1B482B",
"x.	c #184024",
"y.	c #1E4428",
"z.	c #2C5538",
"A.	c #2C593B",
"B.	c #3B694C",
"C.	c #163C21",
"D.	c #112F15",
"E.	c #1B3C22",
"F.	c #1E492C",
"G.	c #144325",
"H.	c #144123",
"I.	c #22472E",
"J.	c #0B180F",
"K.	c #1D3522",
"L.	c #0F3118",
"M.	c #1A3F24",
"N.	c #21492D",
"O.	c #204329",
"P.	c #122F16",
"Q.	c #15371D",
"R.	c #183E22",
"S.	c #183D22",
"T.	c #447053",
"U.	c #1B4428",
"V.	c #0F3418",
"W.	c #12361B",
"X.	c #173E22",
"Y.	c #224C2F",
"Z.	c #1F4B2E",
"`.	c #2F5C3F",
" +	c #1D4629",
".+	c #132F18",
"++	c #1F4027",
"@+	c #2B593C",
"#+	c #2D5B3D",
"$+	c #183B22",
"%+	c #07140B",
"&+	c #16331F",
"*+	c #194025",
"=+	c #22472C",
"-+	c #1B3E24",
";+	c #13341B",
">+	c #103218",
",+	c #1B3F25",
"'+	c #1B4227",
")+	c #173C20",
"!+	c #163A20",
"~+	c #18391F",
"{+	c #20452A",
"]+	c #274F33",
"^+	c #194427",
"/+	c #1A4227",
"(+	c #1B3921",
"_+	c #12331A",
":+	c #234F32",
"<+	c #154123",
"[+	c #1A4326",
"}+	c #1F4229",
"|+	c #121F15",
"1+	c #173822",
"2+	c #1A4628",
"3+	c #153D21",
"4+	c #0C2F15",
"5+	c #153A1F",
"6+	c #0F3519",
"7+	c #12341A",
"8+	c #184023",
"9+	c #284C32",
"0+	c #0F3318",
"a+	c #15351B",
"b+	c #19361E",
"c+	c #1C3E24",
"d+	c #2C4F35",
"e+	c #1A4025",
"f+	c #0F361A",
"g+	c #123B1F",
"h+	c #103118",
"i+	c #15381D",
"j+	c #113B1F",
"k+	c #183921",
"l+	c #142118",
"m+	c #1B3B26",
"n+	c #244F32",
"o+	c #164024",
"p+	c #0B3116",
"q+	c #0D361B",
"r+	c #204B2E",
"s+	c #123219",
"t+	c #1F4A2D",
"u+	c #24492F",
"v+	c #1A3E24",
"w+	c #0F3016",
"x+	c #17351D",
"y+	c #17361D",
"z+	c #0F351A",
"A+	c #1E462A",
"B+	c #204429",
"C+	c #15391F",
"D+	c #10361B",
"E+	c #22442A",
"F+	c #0B2C15",
"G+	c #121E15",
"H+	c #173520",
"I+	c #2A5539",
"J+	c #1B472A",
"K+	c #235335",
"L+	c #265637",
"M+	c #24442B",
"N+	c #275336",
"O+	c #123C1F",
"P+	c #21492C",
"Q+	c #113118",
"R+	c #0D3016",
"S+	c #1F4529",
"T+	c #1C4227",
"U+	c #12381C",
"V+	c #113218",
"W+	c #0A2B13",
"X+	c #07140A",
"Y+	c #1D3925",
"Z+	c #1F482C",
"`+	c #1F4E30",
" @	c #2A5D3D",
".@	c #285739",
"+@	c #1A3C22",
"@@	c #1C4025",
"#@	c #1F4C2F",
"$@	c #184427",
"%@	c #2C5539",
"&@	c #274F32",
"*@	c #14351B",
"=@	c #14331B",
"-@	c #17391F",
";@	c #113419",
">@	c #23462C",
",@	c #0F3217",
"'@	c #0F2C14",
")@	c #123118",
"!@	c #15341C",
"~@	c #08150C",
"{@	c #203E2A",
"]@	c #305B3E",
"^@	c #1E4B2D",
"/@	c #2A5135",
"(@	c #2C573A",
"_@	c #2A5739",
":@	c #1F4F31",
"<@	c #21482C",
"[@	c #12391D",
"}@	c #244A2E",
"|@	c #193A20",
"1@	c #113018",
"2@	c #15321A",
"3@	c #143018",
"4@	c #15341B",
"5@	c #1E3C24",
"6@	c #0B2B12",
"7@	c #0D2C12",
"8@	c #103017",
"9@	c #1C3C24",
"0@	c #264832",
"a@	c #285538",
"b@	c #244F33",
"c@	c #1F3E1B",
"d@	c #26421F",
"e@	c #2F4F2B",
"f@	c #30522D",
"g@	c #2D522C",
"h@	c #395F39",
"i@	c #3C5B36",
"j@	c #274722",
"k@	c #264C25",
"l@	c #3F5F3B",
"m@	c #34522F",
"n@	c #253E1B",
"o@	c #1F3916",
"p@	c #25411F",
"q@	c #284622",
"r@	c #304D2A",
"s@	c #2A4926",
"t@	c #1F4329",
"u@	c #1F4028",
"v@	c #0B1A10",
"w@	c #193D27",
"x@	c #1A492B",
"y@	c #1E472A",
"z@	c #11331A",
"A@	c #8D6C10",
"B@	c #9D7813",
"C@	c #A37F18",
"D@	c #A38018",
"E@	c #A58217",
"F@	c #A38017",
"G@	c #A47E15",
"H@	c #9F7C17",
"I@	c #A38118",
"J@	c #A6891D",
"K@	c #A88A1C",
"L@	c #A78B1F",
"M@	c #AA9021",
"N@	c #A88D1B",
"O@	c #A7881F",
"P@	c #A78A1F",
"Q@	c #A98B20",
"R@	c #968626",
"S@	c #15452A",
"T@	c #254930",
"U@	c #0F1F15",
"V@	c #0B2D17",
"W@	c #0F2F15",
"X@	c #9B7613",
"Y@	c #AF8315",
"Z@	c #AE8418",
"`@	c #B18719",
" #	c #B08518",
".#	c #B7921F",
"+#	c #B4911F",
"@#	c #B3901E",
"##	c #B4901F",
"$#	c #B79925",
"%#	c #B69622",
"&#	c #B79923",
"*#	c #BBA233",
"=#	c #B89722",
"-#	c #B79622",
";#	c #B49423",
">#	c #B38F1F",
",#	c #9A791B",
"'#	c #22563B",
")#	c #1F4228",
"!#	c #0F1E14",
"~#	c #0F2E19",
"{#	c #163F22",
"]#	c #1F4328",
"^#	c #9A7416",
"/#	c #AA7F18",
"(#	c #AA7E15",
"_#	c #AD8318",
":#	c #B18D1F",
"<#	c #B09027",
"[#	c #B39522",
"}#	c #B39524",
"|#	c #AD881B",
"1#	c #B18E1E",
"2#	c #B49221",
"3#	c #B38C18",
"4#	c #B79321",
"5#	c #B4911D",
"6#	c #AB8115",
"7#	c #AD8718",
"8#	c #977C1D",
"9#	c #1A4C31",
"0#	c #1A3A22",
"a#	c #08150B",
"b#	c #18321F",
"c#	c #14371D",
"d#	c #193F24",
"e#	c #555318",
"f#	c #65621F",
"g#	c #63601F",
"h#	c #645F1D",
"i#	c #656522",
"j#	c #666620",
"k#	c #63611B",
"l#	c #615F1D",
"m#	c #62611E",
"n#	c #666622",
"o#	c #6C6926",
"p#	c #6B6923",
"q#	c #73712B",
"r#	c #66621B",
"s#	c #666322",
"t#	c #676324",
"u#	c #65631F",
"v#	c #575C20",
"w#	c #174629",
"x#	c #0F2C15",
"y#	c #07130A",
"z#	c #162F1C",
"A#	c #0D2F15",
"B#	c #173C21",
"C#	c #0F391F",
"D#	c #0F381F",
"E#	c #10381F",
"F#	c #163C25",
"G#	c #1D432C",
"H#	c #1B432C",
"I#	c #0A321A",
"J#	c #0B351C",
"K#	c #0B371D",
"L#	c #224F35",
"M#	c #133E24",
"N#	c #153E25",
"O#	c #254B33",
"P#	c #183D25",
"Q#	c #173E26",
"R#	c #265037",
"S#	c #133F25",
"T#	c #204F34",
"U#	c #174728",
"V#	c #284F35",
"W#	c #0A190F",
"X#	c #122C18",
"Y#	c #20442A",
"Z#	c #1B4427",
"`#	c #1B4025",
" $	c #1F4629",
".$	c #184225",
"+$	c #0E391C",
"@$	c #284F34",
"#$	c #1B4225",
"$$	c #103419",
"%$	c #1D3F25",
"&$	c #15391E",
"*$	c #295639",
"=$	c #1C4C2D",
"-$	c #1A4225",
";$	c #14361E",
">$	c #142C1A",
",$	c #1B4226",
"'$	c #173B21",
")$	c #20492C",
"!$	c #184327",
"~$	c #32573C",
"{$	c #224329",
"]$	c #0B2F14",
"^$	c #254F33",
"/$	c #2C5338",
"($	c #1E4228",
"_$	c #0A2310",
":$	c #163D22",
"<$	c #1B4628",
"[$	c #183C21",
"}$	c #16391F",
"|$	c #0E3217",
"1$	c #153C1F",
"2$	c #153018",
"3$	c #1E3C23",
"4$	c #12371C",
"5$	c #1F452A",
"6$	c #184124",
"7$	c #1B4027",
"8$	c #0A180E",
"9$	c #0E2613",
"0$	c #21442B",
"a$	c #22482E",
"b$	c #284E34",
"c$	c #14351D",
"d$	c #15321B",
"e$	c #32553C",
"f$	c #14351C",
"g$	c #1B3A23",
"h$	c #1C3922",
"i$	c #18361F",
"j$	c #1D4027",
"k$	c #12341B",
"l$	c #1F3E26",
"m$	c #214229",
"n$	c #21462C",
"o$	c #1F452B",
"p$	c #0B2412",
"q$	c #18301F",
"r$	c #213927",
"s$	c #183220",
"t$	c #243F2C",
"u$	c #1F3927",
"v$	c #18311F",
"w$	c #182F1E",
"x$	c #1B3220",
"y$	c #152818",
"z$	c #142A19",
"A$	c #1C3221",
"B$	c #324B39",
"C$	c #25412E",
"D$	c #223D2B",
"E$	c #233C2A",
"F$	c #1A3220",
"G$	c #122A18",
"H$	c #132D1A",
"I$	c #1D3222",
"J$	c #223E2B",
"K$	c #1B3624",
"L$	c #0E1A11",
"M$	c #293F2F",
"N$	c #2E4535",
"O$	c #273F2F",
"P$	c #253D2C",
"Q$	c #283F2F",
"R$	c #1E3323",
"S$	c #223828",
"T$	c #2C4433",
"U$	c #1C3122",
"V$	c #2C4232",
"W$	c #304737",
"X$	c #284231",
"Y$	c #284230",
"Z$	c #28402F",
"`$	c #243A29",
" %	c #233A29",
".%	c #1B3422",
"+%	c #1E3322",
"@%	c #283F2E",
"#%	c #223727",
"$%	c #2E4635",
"%%	c #324939",
"&%	c #253C2B",
"*%	c #162A1C",
"  . + @ # $ % & * = - ; > , ' ) ! ~ { ] ^ / ( _ :   ",
"< [ } | 1 2 3 4 5 6 7 8 9 0 a b c d e f g h i j k l ",
"m n o p q r s t u v w x y z A B C D E F G H I J K L ",
"M N & % O P Q * R S T U V W X Y Z `  .& ..+.| @.#.$.",
"%.& &.*.=.-.;.>.6 ,.'.).!.~.{.].^./.(._.:.<.[.}.|.1.",
"2.% 3.4.5.6.7.~.8.9.0.a.b.(. .c.d.e.f.g.h.i.j.k.l.m.",
"n.o.n p.q.r.s.t.u.v.w.).x.y.z.{ A.B.C.D.E.F.G.H.I.J.",
"K.L.M.N.O.P.Q.R.S.T.U.b.V.W.X.Y.Z.`. +.+++@+#+].$+%+",
"&+*+(.=+-+;+>+,+'+K )+!+~+-+{+]+^+0./+(+_+:+<+[+}+|+",
"1+2+3+4+5+6+7+5+8+9+0+a+b+c+d+e+f+a.g+h+i+j+X.(.k+l+",
"m+n+o+p+q+r+s+n t+u+v+w+x+y+>+O z+A+7.B+C+D+E+4+F+G+",
"H+u I+J+K+L+M+E+N+O+P+..& ; Q+R+R.& S+T+U+W.P.V+W+X+",
"Y+Z+a.`+ @.@+@@@k.#@$@%@&@*@=@_+-@;@>@C+4+,@'@)@!@~@",
"{@]@J+^@:+/@7 (@_@:@<@[@#@}@|@1@2@3@4@5@6@7@o.8@9@l ",
"0@a@b@b.c@d@e@f@g@h@i@j@k@l@m@d@n@o@p@q@r@s@g+t@u@v@",
"w@x@y@z@A@B@C@D@E@F@G@H@I@J@K@L@M@N@O@P@Q@R@S@>.T@U@",
"V@J+'+W@X@Y@Z@`@ #.#+#@###$#%#&#*#=#-#;#>#,#'#Y.)#!#",
"~#{#]#5.^#/#(#_#:#<#:#[#}#|#1#2#3#4#5#6#7#8#9#x.0#a#",
"b#c#,+d#e#f#g#h#i#j#k#l#m#n#o#p#q#r#s#t#u#v#w#5+x#y#",
"z#A#B#]+C#D#E#F#G#H#I#J#K#L#M#N#O#P#Q#R#S#T#U#V#h+W#",
"X#Y#C.{.Z#@.C.P ,+`# $.$+$@$#$$$V+%$&$f+F.*$=$-$;$!#",
">$*.| g+@.A+,$'$n O.S.)$!$~${$# '@@ ]$[@z+@.^$/$($!#",
"_$)#T+:$<$N.5+$$[$}$|$1$@.d+-@4@2$3$5+4$4$5$*+6$7$8$",
"9$q.0$`#a$b$& c$=@d$1@$ -+e$f$g$h$i$j$k$l$d$m$n$o$a#",
"p$q$r$s$t$u$v$w$x$y$z$A$B$C$D$E$F$G$H$v$I$y$A$J$K$L$",
"  M$N$O$P$Q$R$S$T$U$V$W$P$X$Y$Z$`$ %.%+%@%#%$%%%&%*%"};
