/* XPM */
static char * maximize_active_xpm[] = {
"26 26 636 2",
"  	c None",
". 	c #1D4728",
"+ 	c #396243",
"@ 	c #0E3718",
"# 	c #1B4324",
"$ 	c #174222",
"% 	c #214E2D",
"& 	c #1F4E2D",
"* 	c #1C4E2C",
"= 	c #285937",
"- 	c #1F4D2B",
"; 	c #123B1B",
"> 	c #153C1D",
", 	c #163E1F",
"' 	c #1F4829",
") 	c #224F2F",
"! 	c #3F6D4C",
"~ 	c #3C704D",
"{ 	c #1E5631",
"] 	c #427351",
"^ 	c #275B38",
"/ 	c #336C48",
"( 	c #255F3A",
"_ 	c #2A603C",
": 	c #2E5F3D",
"< 	c #1A3C22",
"[ 	c #3D6D49",
"} 	c #3D6C48",
"| 	c #2F5F3C",
"1 	c #305B3A",
"2 	c #3C6C48",
"3 	c #477954",
"4 	c #417650",
"5 	c #326A43",
"6 	c #3E754F",
"7 	c #2E633E",
"8 	c #31603D",
"9 	c #2C5A37",
"0 	c #2C5936",
"a 	c #2F5E3B",
"b 	c #30623E",
"c 	c #588E69",
"d 	c #6BA67E",
"e 	c #45815A",
"f 	c #417751",
"g 	c #4C845D",
"h 	c #4A8A61",
"i 	c #46845B",
"j 	c #3C7750",
"k 	c #3D7650",
"l 	c #172A1D",
"m 	c #103118",
"n 	c #255331",
"o 	c #2F5D3B",
"p 	c #346340",
"q 	c #3D6B49",
"r 	c #255432",
"s 	c #2E5F3C",
"t 	c #467955",
"u 	c #386F49",
"v 	c #417852",
"w 	c #30643F",
"x 	c #2D5F3C",
"y 	c #2E5D3A",
"z 	c #376543",
"A 	c #2E5E3A",
"B 	c #1A4B26",
"C 	c #59906A",
"D 	c #4D8760",
"E 	c #367049",
"F 	c #386A46",
"G 	c #326842",
"H 	c #47835C",
"I 	c #3B704B",
"J 	c #49815B",
"K 	c #417653",
"L 	c #182D1F",
"M 	c #183A22",
"N 	c #174522",
"O 	c #204E2D",
"P 	c #214F2D",
"Q 	c #194826",
"R 	c #1D4C29",
"S 	c #0E3F1B",
"T 	c #1C4F2C",
"U 	c #437A54",
"V 	c #346D47",
"W 	c #215731",
"X 	c #1B4F2A",
"Y 	c #144421",
"Z 	c #396946",
"` 	c #336441",
" .	c #2D623D",
"..	c #3B724D",
"+.	c #2B653F",
"@.	c #1A502B",
"#.	c #1F4E2C",
"$.	c #1E4F2C",
"%.	c #306842",
"&.	c #205531",
"*.	c #295D3B",
"=.	c #152B1E",
"-.	c #23452B",
";.	c #204E2C",
">.	c #12411F",
",.	c #194725",
"'.	c #2C5A38",
").	c #265432",
"!.	c #11411F",
"~.	c #2D613C",
"{.	c #25613A",
"].	c #427A54",
"^.	c #255B36",
"/.	c #215530",
"(.	c #295C38",
"_.	c #225732",
":.	c #336B45",
"<.	c #37714B",
"[.	c #19532D",
"}.	c #20532E",
"|.	c #214D2B",
"1.	c #103F1C",
"2.	c #2B623C",
"3.	c #295C39",
"4.	c #255C35",
"5.	c #255937",
"6.	c #112518",
"7.	c #2E5037",
"8.	c #214F2C",
"9.	c #23502E",
"0.	c #467351",
"a.	c #144220",
"b.	c #1C4927",
"c.	c #184926",
"d.	c #285C38",
"e.	c #1F562F",
"f.	c #2C6942",
"g.	c #28633C",
"h.	c #235B36",
"i.	c #285C37",
"j.	c #1F532E",
"k.	c #1F5832",
"l.	c #316E47",
"m.	c #407C55",
"n.	c #20512E",
"o.	c #15401E",
"p.	c #164321",
"q.	c #1B512C",
"r.	c #245F38",
"s.	c #2A633D",
"t.	c #1D4F2E",
"u.	c #0D2013",
"v.	c #36533C",
"w.	c #14401E",
"x.	c #477754",
"y.	c #2B5937",
"z.	c #1E4827",
"A.	c #164522",
"B.	c #164A29",
"C.	c #17502F",
"D.	c #4E8F6C",
"E.	c #1D5B39",
"F.	c #1E5938",
"G.	c #18502F",
"H.	c #205535",
"I.	c #326B4A",
"J.	c #175231",
"K.	c #32724F",
"L.	c #478764",
"M.	c #154B2C",
"N.	c #153B1C",
"O.	c #244F2D",
"P.	c #27603A",
"Q.	c #1A5831",
"R.	c #1A552E",
"S.	c #2D5D3C",
"T.	c #0F2014",
"U.	c #26452D",
"V.	c #14401F",
"W.	c #22522F",
"X.	c #2B603B",
"Y.	c #2A5836",
"Z.	c #173D1D",
"`.	c #184726",
" +	c #7D8122",
".+	c #C49F19",
"++	c #D1AE28",
"@+	c #CFB22A",
"#+	c #CAA31D",
"$+	c #C4A01A",
"%+	c #C9A920",
"&+	c #CBAA22",
"*+	c #D1BA2A",
"=+	c #CAA921",
"-+	c #CFB32E",
";+	c #CCB526",
">+	c #3E5926",
",+	c #295433",
"'+	c #38754E",
")+	c #3B7750",
"!+	c #336C46",
"~+	c #1F4D2C",
"{+	c #091A0E",
"]+	c #1D4328",
"^+	c #215430",
"/+	c #20522E",
"(+	c #2D5D3A",
"_+	c #23512F",
":+	c #194423",
"<+	c #124121",
"[+	c #89761D",
"}+	c #DAA723",
"|+	c #B68F1D",
"1+	c #C2B23F",
"2+	c #B69118",
"3+	c #B58E1D",
"4+	c #BD9F23",
"5+	c #BF9C21",
"6+	c #C0A326",
"7+	c #BCA01F",
"8+	c #BAA22B",
"9+	c #F2CA30",
"0+	c #516A32",
"a+	c #184322",
"b+	c #2E6841",
"c+	c #1C552E",
"d+	c #225832",
"e+	c #285636",
"f+	c #17281B",
"g+	c #1E492C",
"h+	c #225B35",
"i+	c #1C502B",
"j+	c #103E1C",
"k+	c #1C4C28",
"l+	c #144521",
"m+	c #154322",
"n+	c #887D1F",
"o+	c #AE8C23",
"p+	c #41683E",
"q+	c #234B20",
"r+	c #294C23",
"s+	c #2E4C25",
"t+	c #32572D",
"u+	c #466D43",
"v+	c #305A2D",
"w+	c #225021",
"x+	c #326335",
"y+	c #DCAF21",
"z+	c #3E541E",
"A+	c #1B4926",
"B+	c #164D28",
"C+	c #1E512D",
"D+	c #1F4A2B",
"E+	c #1A2B1F",
"F+	c #234D32",
"G+	c #2F6842",
"H+	c #1D542F",
"I+	c #0F401D",
"J+	c #114723",
"K+	c #2A623C",
"L+	c #144122",
"M+	c #857523",
"N+	c #B39E29",
"O+	c #2F603D",
"P+	c #22512F",
"Q+	c #133F1D",
"R+	c #1E4626",
"S+	c #1E4726",
"T+	c #154220",
"U+	c #134622",
"V+	c #265B37",
"W+	c #DDAD1E",
"X+	c #4F6930",
"Y+	c #1B4B28",
"Z+	c #154723",
"`+	c #2C5937",
" @	c #0F3A1B",
".@	c #17271B",
"+@	c #1E452A",
"@@	c #376F4A",
"#@	c #245D37",
"$@	c #2E6D45",
"%@	c #327048",
"&@	c #2C5839",
"*@	c #8D7D26",
"=@	c #A9952B",
"-@	c #174E29",
";@	c #2B5F3A",
">@	c #16401F",
",@	c #113F1D",
"'@	c #20512D",
")@	c #DFB127",
"!@	c #4D6F33",
"~@	c #174925",
"{@	c #174724",
"]@	c #173E1D",
"^@	c #16411F",
"/@	c #0D3819",
"(@	c #091A0D",
"_@	c #264B31",
":@	c #295E39",
"<@	c #235C36",
"[@	c #28663F",
"}@	c #377A50",
"|@	c #35724B",
"1@	c #204D2E",
"2@	c #8D8222",
"3@	c #AF9E2C",
"4@	c #28643E",
"5@	c #205933",
"6@	c #3A6F4A",
"7@	c #336742",
"8@	c #1A4524",
"9@	c #1A4323",
"0@	c #1E4B29",
"a@	c #154421",
"b@	c #DAA91B",
"c@	c #425A23",
"d@	c #14411E",
"e@	c #143A1A",
"f@	c #17401F",
"g@	c #1B4425",
"h@	c #0B1C10",
"i@	c #2A5137",
"j@	c #3F7751",
"k@	c #27623B",
"l@	c #376A46",
"m@	c #2C6340",
"n@	c #94892C",
"o@	c #AD9B2D",
"p@	c #296740",
"q@	c #2B5E39",
"r@	c #184A26",
"s@	c #29643E",
"t@	c #2F613C",
"u@	c #214C2A",
"v@	c #163F1F",
"w@	c #1C4222",
"x@	c #193E20",
"y@	c #E3C83E",
"z@	c #4D612C",
"A@	c #0F3817",
"B@	c #113918",
"C@	c #13401E",
"D@	c #153F1E",
"E@	c #254E2F",
"F@	c #325E42",
"G@	c #346F49",
"H@	c #2F6843",
"I@	c #184925",
"J@	c #1E4D2A",
"K@	c #285D3B",
"L@	c #8F8528",
"M@	c #A3841D",
"N@	c #38754D",
"O@	c #3B6F4A",
"P@	c #205430",
"Q@	c #205C34",
"R@	c #3E744F",
"S@	c #326340",
"T@	c #1F4E2B",
"U@	c #1D4827",
"V@	c #123E1D",
"W@	c #D9A717",
"X@	c #49642D",
"Y@	c #2D5C39",
"Z@	c #275734",
"`@	c #194D28",
" #	c #295836",
".#	c #285434",
"+#	c #0E2215",
"@#	c #215033",
"##	c #225F38",
"$#	c #275D37",
"%#	c #164322",
"&#	c #174120",
"*#	c #174523",
"=#	c #1C4F2E",
"-#	c #91872C",
";#	c #B1A430",
">#	c #1F5933",
",#	c #285935",
"'#	c #2B643E",
")#	c #326D46",
"!#	c #2F6440",
"~#	c #245632",
"{#	c #205330",
"]#	c #DBA51A",
"^#	c #537038",
"/#	c #4A805B",
"(#	c #417752",
"_#	c #205D36",
":#	c #2C613C",
"<#	c #30603F",
"[#	c #14291C",
"}#	c #0F3B1E",
"|#	c #235D37",
"1#	c #245733",
"2#	c #133E1C",
"3#	c #103919",
"4#	c #224F2D",
"5#	c #275737",
"6#	c #90892D",
"7#	c #9F8723",
"8#	c #19512B",
"9#	c #1A4927",
"0#	c #305E3C",
"a#	c #437955",
"b#	c #29653E",
"c#	c #306942",
"d#	c #2B633E",
"e#	c #124521",
"f#	c #255935",
"g#	c #DCB322",
"h#	c #66874F",
"i#	c #669E78",
"j#	c #4D8660",
"k#	c #33734B",
"l#	c #2C633E",
"m#	c #285735",
"n#	c #13271A",
"o#	c #143C21",
"p#	c #1D522D",
"q#	c #285835",
"r#	c #14421F",
"s#	c #0D3817",
"t#	c #1E4727",
"u#	c #225131",
"v#	c #96822B",
"w#	c #9D7D16",
"x#	c #154B26",
"y#	c #1B4725",
"z#	c #366945",
"A#	c #2C653F",
"B#	c #376F49",
"C#	c #1F542F",
"D#	c #1F512D",
"E#	c #2B5E3B",
"F#	c #D19E17",
"G#	c #7B9B61",
"H#	c #5E936F",
"I#	c #316842",
"J#	c #29663F",
"K#	c #20542F",
"L#	c #224C2D",
"M#	c #0A1C0F",
"N#	c #1F4128",
"O#	c #1A4826",
"P#	c #235330",
"Q#	c #21532F",
"R#	c #204A29",
"S#	c #225130",
"T#	c #83701D",
"U#	c #B79E2B",
"V#	c #3A5B25",
"W#	c #3D5924",
"X#	c #455D26",
"Y#	c #466530",
"Z#	c #3E5F2B",
"`#	c #536F39",
" $	c #4D6B35",
".$	c #5F7A44",
"+$	c #53713D",
"@$	c #DCB028",
"#$	c #537239",
"$$	c #346643",
"%$	c #2C603B",
"&$	c #215C35",
"*$	c #1C4C29",
"=$	c #13391B",
"-$	c #09190D",
";$	c #1D3D25",
">$	c #113E1C",
",$	c #1E4F2B",
"'$	c #336843",
")$	c #184D28",
"!$	c #1B4C28",
"~$	c #184A28",
"{$	c #8C7C23",
"]$	c #E5B328",
"^$	c #D29D1E",
"/$	c #D9B12A",
"($	c #DEB427",
"_$	c #D8AA24",
":$	c #DCAD2A",
"<$	c #E1B227",
"[$	c #E4BA25",
"}$	c #E0AD20",
"|$	c #D19E1E",
"1$	c #EAB11E",
"2$	c #5C7C42",
"3$	c #1E552F",
"4$	c #2F6A43",
"5$	c #1E5C35",
"6$	c #356845",
"7$	c #154020",
"8$	c #0D2113",
"9$	c #183920",
"0$	c #2A5937",
"a$	c #1D4F2B",
"b$	c #235933",
"c$	c #205530",
"d$	c #1B4D2B",
"e$	c #526423",
"f$	c #92912D",
"g$	c #969539",
"h$	c #928C2F",
"i$	c #8A8425",
"j$	c #8B8D2D",
"k$	c #94912B",
"l$	c #96983C",
"m$	c #898823",
"n$	c #84791C",
"o$	c #847620",
"p$	c #796C16",
"q$	c #264E1F",
"r$	c #275F3A",
"s$	c #36704A",
"t$	c #25633B",
"u$	c #225631",
"v$	c #1A4727",
"w$	c #1A3A22",
"x$	c #2F603C",
"y$	c #1F5530",
"z$	c #275C37",
"A$	c #1B4C2B",
"B$	c #1E4F30",
"C$	c #235435",
"D$	c #194D2D",
"E$	c #245D3B",
"F$	c #195432",
"G$	c #3C7050",
"H$	c #255436",
"I$	c #143F23",
"J$	c #0E361A",
"K$	c #093518",
"L$	c #0A3C1B",
"M$	c #164A27",
"N$	c #306843",
"O$	c #396D49",
"P$	c #275635",
"Q$	c #14271A",
"R$	c #0D2E15",
"S$	c #285634",
"T$	c #255733",
"U$	c #1D502C",
"V$	c #245B35",
"W$	c #1B4C29",
"X$	c #204E2B",
"Y$	c #1D4A28",
"Z$	c #12411E",
"`$	c #1B4E29",
" %	c #396846",
".%	c #1E4A28",
"+%	c #1C4424",
"@%	c #1C3F20",
"#%	c #274F2E",
"$%	c #184825",
"%%	c #295A37",
"&%	c #1F552F",
"*%	c #245433",
"=%	c #0D1F12",
"-%	c #123219",
";%	c #2B5938",
">%	c #245431",
",%	c #2C5E3C",
"'%	c #346644",
")%	c #1A4526",
"!%	c #1A4324",
"~%	c #1C4224",
"{%	c #163F20",
"]%	c #24512F",
"^%	c #416F4E",
"/%	c #1A4625",
"(%	c #234C2E",
"_%	c #254A2D",
":%	c #1F4728",
"<%	c #265433",
"[%	c #184424",
"}%	c #285132",
"|%	c #1B4223",
"1%	c #2B5636",
"2%	c #2B5C39",
"3%	c #295A38",
"4%	c #0A1B0F",
"5%	c #0E2F17",
"6%	c #203F28",
"7%	c #2B4A33",
"8%	c #20422A",
"9%	c #2F533A",
"0%	c #284B33",
"a%	c #1F4028",
"b%	c #1F3E27",
"c%	c #23412A",
"d%	c #1B3520",
"e%	c #1A3721",
"f%	c #25422B",
"g%	c #42624B",
"h%	c #31553C",
"i%	c #2D5038",
"j%	c #2E4F37",
"k%	c #22412A",
"l%	c #17371F",
"m%	c #193B22",
"n%	c #204029",
"o%	c #26412C",
"p%	c #1B341F",
"q%	c #25412B",
"r%	c #2D5138",
"s%	c #23472F",
"t%	c #122216",
"u%	c #36533E",
"v%	c #3C5A45",
"w%	c #33533D",
"x%	c #30503A",
"y%	c #34523D",
"z%	c #27432E",
"A%	c #2D4935",
"B%	c #3A5943",
"C%	c #25402C",
"D%	c #3A5641",
"E%	c #3F5D48",
"F%	c #315039",
"G%	c #355640",
"H%	c #34563F",
"I%	c #35543D",
"J%	c #2F4C36",
"K%	c #2E4C36",
"L%	c #24442D",
"M%	c #27432D",
"N%	c #35523C",
"O%	c #2D4833",
"P%	c #3C5B46",
"Q%	c #42604B",
"R%	c #304E38",
"S%	c #1D3725",
"  . + @ # $ % & * = - ; > , ' ) ! ~ { ] ^ / ( _ :   ",
"< [ } | 1 2 3 4 5 6 7 8 9 0 a b c d e f g h i j k l ",
"m n o p q r s t u v w x y z A B C D E F G H I J K L ",
"M N O P Q R S T U V W X Y Z `  ...+.@.#.$.%.| &.*.=.",
"-.;.>.,.'.).!.~.6 {.].^./.(._.:.<.[.}.|.1.2.3.4.5.6.",
"7.8.9.0.a.b.c.d.e.f.g.h.i.j.@.k.l.m.n.o.p.q.r.s.t.u.",
"v.w.n x.y.z.A.B.C.D.E.F.G.H.I.J.K.L.M.N.O.P.Q.R.S.T.",
"U.V.W.X.Y.Z.`. +.+++@+#+$+%+&+*+=+-+;+>+,+'+)+!+~+{+",
"]+^+/+(+_+:+<+[+}+|+1+2+3+4+5+6+7+8+9+0+a+b+c+d+e+f+",
"g+h+i+j+k+l+m+n+o+p+q+r+s+t+u+v+w+x+y+z+A+B+C+/+D+E+",
"F+G+H+I+J+K+L+M+N+O+P+Q+R+S+T+Q U+V+W+X+Y+Z+`+j+ @.@",
"+@u @@#@$@%@&@*@=@-@;@$.#.; >@,@'@$.)@!@~@{@]@^@/@(@",
"_@:@<@[@}@|@1@2@3@4@5@6@7@8@9@a+0@a@b@c@j+d@e@f@g@h@",
"i@j@#@k@b+l@m@n@o@p@q@r@s@t@u@v@w@x@y@z@A@B@C@D@E@l ",
"F@G@H@i.I@J@K@L@M@N@O@P@Q@R@S@T@U@V@W@X@Y@Z@`@ #.#+#",
"@###$#%#&#*#=#-#;#>#,#,#'#)#V !#~#{#]#^#/#(#_#:#<#[#",
"}#|#1#2#3#4#5#6#7#8#9#0#a#b#c#d#e#f#g#h#i#j#k#l#m#n#",
"o#p#q#r#s#t#u#v#w#x#C@y#z#A#B#C#D#E#F#G#H#I#J#K#L#M#",
"N#O#P#Q#,.R#S#T#U#V#W#X#Y#Z#`# $.$+$@$#$$$%$&$*$=$-$",
";$>$,$'$)$!$~${$]$^$/$($_$:$<$[$}$|$1$2$3$4$5$6$7$8$",
"9$0$a$_.b$c$d$e$f$g$h$i$j$k$l$m$n$o$p$q$r$s$t$u$v$n#",
"w$,.x$)$y$z$~#A$B$C$D$E$F$G$H$I$J$K$L$M$U+c$N$O$P$Q$",
"R$S$T$U$V$X.W$a@X$Y$Z$`$c$ %.%+%@%#%!$$%$%%%^+&%*%=%",
"-%y.;%>%,%'%O )%!%~%{%$ ]%^%/%(%_%:%<%[%}%|%1%2%3%4%",
"5%6%7%8%9%0%a%b%c%d%e%f%g%h%i%j%k%l%m%n%o%p%q%r%s%t%",
"  u%v%w%x%y%z%A%B%C%D%E%F%G%H%I%J%K%L%M%N%O%P%Q%R%S%"};
