/* XPM */
static char * maximize_toggled_inactive_xpm[] = {
"26 26 647 2",
"  	c None",
". 	c #1D4728",
"+ 	c #396243",
"@ 	c #0E3718",
"# 	c #1B4324",
"$ 	c #174222",
"% 	c #214E2D",
"& 	c #1F4E2D",
"* 	c #1C4E2C",
"= 	c #285937",
"- 	c #1F4D2B",
"; 	c #123B1B",
"> 	c #153C1D",
", 	c #163E1F",
"' 	c #1F4829",
") 	c #224F2F",
"! 	c #3F6D4C",
"~ 	c #3C704D",
"{ 	c #1E5631",
"] 	c #427351",
"^ 	c #275B38",
"/ 	c #336C48",
"( 	c #255F3A",
"_ 	c #2A603C",
": 	c #2E5F3D",
"< 	c #1A3C22",
"[ 	c #3D6D49",
"} 	c #3D6C48",
"| 	c #2F5F3C",
"1 	c #305B3A",
"2 	c #3C6C48",
"3 	c #477954",
"4 	c #417650",
"5 	c #326A43",
"6 	c #3E754F",
"7 	c #2E633E",
"8 	c #31603D",
"9 	c #2C5A37",
"0 	c #2C5936",
"a 	c #2F5E3B",
"b 	c #30623E",
"c 	c #588E69",
"d 	c #6BA67E",
"e 	c #45815A",
"f 	c #417751",
"g 	c #4C845D",
"h 	c #4A8A61",
"i 	c #46845B",
"j 	c #3C7750",
"k 	c #3D7650",
"l 	c #172A1D",
"m 	c #103118",
"n 	c #255331",
"o 	c #2F5D3B",
"p 	c #346340",
"q 	c #3D6B49",
"r 	c #255432",
"s 	c #2E5F3C",
"t 	c #467955",
"u 	c #386F49",
"v 	c #417852",
"w 	c #30643F",
"x 	c #2D5F3C",
"y 	c #2E5D3A",
"z 	c #376543",
"A 	c #2E5E3A",
"B 	c #1A4B26",
"C 	c #59906A",
"D 	c #4D8760",
"E 	c #367049",
"F 	c #386A46",
"G 	c #326842",
"H 	c #47835C",
"I 	c #3B704B",
"J 	c #49815B",
"K 	c #417653",
"L 	c #182D1F",
"M 	c #183A22",
"N 	c #174522",
"O 	c #204E2D",
"P 	c #214F2D",
"Q 	c #194826",
"R 	c #1D4C29",
"S 	c #0E3F1B",
"T 	c #1C4F2C",
"U 	c #437A54",
"V 	c #346D47",
"W 	c #215731",
"X 	c #1B4F2A",
"Y 	c #144421",
"Z 	c #396946",
"` 	c #336441",
" .	c #2D623D",
"..	c #3B724D",
"+.	c #2B653F",
"@.	c #1A502B",
"#.	c #1F4E2C",
"$.	c #1E4F2C",
"%.	c #306842",
"&.	c #205531",
"*.	c #295D3B",
"=.	c #152B1E",
"-.	c #23452B",
";.	c #204E2C",
">.	c #12411F",
",.	c #194725",
"'.	c #2C5A38",
").	c #265432",
"!.	c #11411F",
"~.	c #2D613C",
"{.	c #266139",
"].	c #638A4B",
"^.	c #4A6C30",
"/.	c #45652A",
"(.	c #506F35",
"_.	c #486A2E",
":.	c #577B3E",
"<.	c #5D8447",
"[.	c #3B6326",
"}.	c #456A2F",
"|.	c #476027",
"1.	c #39571F",
"2.	c #4D763D",
"3.	c #275C39",
"4.	c #255C35",
"5.	c #255937",
"6.	c #112518",
"7.	c #2E5037",
"8.	c #214F2C",
"9.	c #23502E",
"0.	c #467351",
"a.	c #144220",
"b.	c #1C4927",
"c.	c #184926",
"d.	c #285C38",
"e.	c #1F562F",
"f.	c #2E6A41",
"g.	c #D2A216",
"h.	c #E4AC1D",
"i.	c #E9B31F",
"j.	c #E5B326",
"k.	c #E3A915",
"l.	c #E4AF1F",
"m.	c #E7B01B",
"n.	c #E7B218",
"o.	c #EFC428",
"p.	c #EBB621",
"q.	c #E6BE2C",
"r.	c #C6B731",
"s.	c #1C5A37",
"t.	c #2A633D",
"u.	c #1D4F2E",
"v.	c #0D2013",
"w.	c #36533C",
"x.	c #14401E",
"y.	c #477754",
"z.	c #2B5937",
"A.	c #1E4827",
"B.	c #164522",
"C.	c #164A29",
"D.	c #17502F",
"E.	c #51916C",
"F.	c #CF8A0E",
"G.	c #66732D",
"H.	c #596E2A",
"I.	c #5D712E",
"J.	c #6E823F",
"K.	c #566827",
"L.	c #6C863A",
"M.	c #788F4A",
"N.	c #5B722C",
"O.	c #5A641D",
"P.	c #838125",
"Q.	c #D2B831",
"R.	c #125531",
"S.	c #1A552E",
"T.	c #2D5D3C",
"U.	c #0F2014",
"V.	c #26452D",
"W.	c #14401F",
"X.	c #22522F",
"Y.	c #2B603B",
"Z.	c #2A5836",
"`.	c #173D1D",
" +	c #184726",
".+	c #7D8122",
"++	c #C49F19",
"@+	c #D1AE28",
"#+	c #DAA41D",
"$+	c #CAA21E",
"%+	c #C19F1A",
"&+	c #C6A820",
"*+	c #C9A922",
"=+	c #CEB92B",
"-+	c #C8A822",
";+	c #CCB230",
">+	c #C9B326",
",+	c #3B5726",
"'+	c #597035",
")+	c #CCA01F",
"!+	c #357552",
"~+	c #336C46",
"{+	c #1F4D2C",
"]+	c #091A0E",
"^+	c #1D4328",
"/+	c #215430",
"(+	c #20522E",
"_+	c #2D5D3A",
":+	c #23512F",
"<+	c #194423",
"[+	c #124121",
"}+	c #89761D",
"|+	c #DAA723",
"1+	c #B68F1C",
"2+	c #D89F24",
"3+	c #BA9318",
"4+	c #B58E1D",
"5+	c #BD9F23",
"6+	c #BF9C21",
"7+	c #C0A326",
"8+	c #BCA01F",
"9+	c #BAA22B",
"0+	c #F2CA30",
"a+	c #516A32",
"b+	c #4A5B1F",
"c+	c #D7B42B",
"d+	c #165230",
"e+	c #225832",
"f+	c #285636",
"g+	c #17281B",
"h+	c #1E492C",
"i+	c #225B35",
"j+	c #1C502B",
"k+	c #103E1C",
"l+	c #1C4C28",
"m+	c #144521",
"n+	c #154322",
"o+	c #887D1F",
"p+	c #AE8C23",
"q+	c #44693E",
"r+	c #E1AB17",
"s+	c #395524",
"t+	c #2E4C25",
"u+	c #32572D",
"v+	c #466D43",
"w+	c #305A2D",
"x+	c #225021",
"y+	c #326335",
"z+	c #DCAF21",
"A+	c #3E541E",
"B+	c #4D6426",
"C+	c #CB9C1E",
"D+	c #184F2E",
"E+	c #1F4A2B",
"F+	c #1A2B1F",
"G+	c #234D32",
"H+	c #2F6842",
"I+	c #1D542F",
"J+	c #0F401D",
"K+	c #114723",
"L+	c #2A623C",
"M+	c #144122",
"N+	c #857523",
"O+	c #B39E29",
"P+	c #315F3B",
"Q+	c #E5B423",
"R+	c #264A1E",
"S+	c #1E4626",
"T+	c #1E4726",
"U+	c #154220",
"V+	c #134622",
"W+	c #265B37",
"X+	c #DDAD1E",
"Y+	c #4F6930",
"Z+	c #516D2E",
"`+	c #CDA726",
" @	c #255637",
".@	c #0F3A1B",
"+@	c #17271B",
"@@	c #1E452A",
"#@	c #376F4A",
"$@	c #245D37",
"%@	c #2E6D45",
"&@	c #327048",
"*@	c #2C5839",
"=@	c #8D7D26",
"-@	c #A9952B",
";@	c #1A4F28",
">@	c #D99A16",
",@	c #2D552A",
"'@	c #16401F",
")@	c #113F1D",
"!@	c #20512D",
"~@	c #DFB127",
"{@	c #4D6F33",
"]@	c #48652B",
"^@	c #CDA21D",
"/@	c #0F3A1E",
"(@	c #16411F",
"_@	c #0D3819",
":@	c #091A0D",
"<@	c #264B31",
"[@	c #295E39",
"}@	c #235C36",
"|@	c #28663F",
"1@	c #377A50",
"2@	c #35724B",
"3@	c #204D2E",
"4@	c #8D8222",
"5@	c #AF9E2C",
"6@	c #2B653D",
"7@	c #D9A31A",
"8@	c #4A7849",
"9@	c #336742",
"0@	c #1A4524",
"a@	c #1A4323",
"b@	c #184322",
"c@	c #1E4B29",
"d@	c #154421",
"e@	c #DAA91B",
"f@	c #425A23",
"g@	c #405316",
"h@	c #CE9E1C",
"i@	c #0D361A",
"j@	c #17401F",
"k@	c #1B4425",
"l@	c #0B1C10",
"m@	c #2A5137",
"n@	c #3F7751",
"o@	c #27623B",
"p@	c #2E6841",
"q@	c #376A46",
"r@	c #2C6340",
"s@	c #94892C",
"t@	c #AD9B2D",
"u@	c #2C683F",
"v@	c #DBA721",
"w@	c #254E21",
"x@	c #29643E",
"y@	c #2F613C",
"z@	c #214C2A",
"A@	c #163F1F",
"B@	c #1C4222",
"C@	c #193E20",
"D@	c #E3C83E",
"E@	c #4D612C",
"F@	c #41551B",
"G@	c #CAA31E",
"H@	c #0B3C1E",
"I@	c #153F1E",
"J@	c #254E2F",
"K@	c #325E42",
"L@	c #346F49",
"M@	c #2F6843",
"N@	c #285C37",
"O@	c #184925",
"P@	c #1E4D2A",
"Q@	c #285D3B",
"R@	c #8F8528",
"S@	c #A3841D",
"T@	c #3B764D",
"U@	c #D79314",
"V@	c #2D592D",
"W@	c #1E5B34",
"X@	c #3C734F",
"Y@	c #306241",
"Z@	c #1E4D2C",
"`@	c #1B4727",
" #	c #103D1D",
".#	c #D9A717",
"+#	c #48632D",
"@#	c #5A7235",
"##	c #C3991A",
"$#	c #124A29",
"%#	c #295836",
"&#	c #285434",
"*#	c #0E2215",
"=#	c #215033",
"-#	c #225F38",
";#	c #275D37",
">#	c #164322",
",#	c #174120",
"'#	c #174523",
")#	c #1C4F2E",
"!#	c #91872C",
"~#	c #B1A430",
"{#	c #225A32",
"]#	c #D29017",
"^#	c #6B742B",
"/#	c #69803B",
"(#	c #698038",
"_#	c #687930",
":#	c #657434",
"<#	c #636D2E",
"[#	c #5F6B23",
"}#	c #DFA91D",
"|#	c #7E7D2D",
"1#	c #90913D",
"2#	c #CAAA29",
"3#	c #1B5A38",
"4#	c #2C613C",
"5#	c #30603F",
"6#	c #14291C",
"7#	c #0F3B1E",
"8#	c #235D37",
"9#	c #245733",
"0#	c #133E1C",
"a#	c #103919",
"b#	c #224F2D",
"c#	c #275737",
"d#	c #90892D",
"e#	c #9F8723",
"f#	c #1C522A",
"g#	c #E7AC21",
"h#	c #E2AC1B",
"i#	c #E6AD20",
"j#	c #EBB828",
"k#	c #EEBF29",
"l#	c #F0C02F",
"m#	c #EBB623",
"n#	c #F3C831",
"o#	c #F0C52B",
"p#	c #E7AF20",
"q#	c #E3A81B",
"r#	c #C79E20",
"s#	c #2E714D",
"t#	c #2C633E",
"u#	c #285735",
"v#	c #13271A",
"w#	c #143C21",
"x#	c #1D522D",
"y#	c #285835",
"z#	c #14421F",
"A#	c #0D3817",
"B#	c #1E4727",
"C#	c #225131",
"D#	c #96822B",
"E#	c #9D7D16",
"F#	c #164C26",
"G#	c #3B511C",
"H#	c #4A6424",
"I#	c #5D7C41",
"J#	c #547538",
"K#	c #5F7E40",
"L#	c #4F6C2E",
"M#	c #516E30",
"N#	c #59793E",
"O#	c #D29A13",
"P#	c #929F52",
"Q#	c #7C9B5F",
"R#	c #4C6935",
"S#	c #276640",
"T#	c #20542F",
"U#	c #224C2D",
"V#	c #0A1C0F",
"W#	c #1F4128",
"X#	c #1A4826",
"Y#	c #235330",
"Z#	c #21532F",
"`#	c #204A29",
" $	c #225130",
".$	c #83701D",
"+$	c #B79E2B",
"@$	c #3A5B25",
"#$	c #3A5825",
"$$	c #415A26",
"%$	c #436331",
"&$	c #3A5E2B",
"*$	c #4F6D3A",
"=$	c #496935",
"-$	c #5B7843",
";$	c #506F3D",
">$	c #DCB028",
",$	c #52713A",
"'$	c #326544",
")$	c #2A603D",
"!$	c #215C35",
"~$	c #1C4C29",
"{$	c #13391B",
"]$	c #09190D",
"^$	c #1D3D25",
"/$	c #113E1C",
"($	c #1E4F2B",
"_$	c #336843",
":$	c #184D28",
"<$	c #1B4C28",
"[$	c #184A28",
"}$	c #8C7C23",
"|$	c #E5B328",
"1$	c #D29D1E",
"2$	c #D9B12A",
"3$	c #DEB427",
"4$	c #D8AA24",
"5$	c #DCAD2A",
"6$	c #E1B227",
"7$	c #E4BA25",
"8$	c #E0AD20",
"9$	c #D19E1E",
"0$	c #EAB11E",
"a$	c #5C7C42",
"b$	c #1E552F",
"c$	c #2F6A43",
"d$	c #1E5C35",
"e$	c #356845",
"f$	c #154020",
"g$	c #0D2113",
"h$	c #183920",
"i$	c #2A5937",
"j$	c #1D4F2B",
"k$	c #225732",
"l$	c #235933",
"m$	c #205530",
"n$	c #1B4D2B",
"o$	c #526423",
"p$	c #92912D",
"q$	c #969539",
"r$	c #928C2F",
"s$	c #8A8425",
"t$	c #8B8D2D",
"u$	c #94912B",
"v$	c #96983C",
"w$	c #898823",
"x$	c #84791C",
"y$	c #847620",
"z$	c #796C16",
"A$	c #264E1F",
"B$	c #275F3A",
"C$	c #36704A",
"D$	c #25633B",
"E$	c #225631",
"F$	c #1A4727",
"G$	c #1A3A22",
"H$	c #2F603C",
"I$	c #1F5530",
"J$	c #275C37",
"K$	c #245632",
"L$	c #1B4C2B",
"M$	c #1E4F30",
"N$	c #235435",
"O$	c #194D2D",
"P$	c #245D3B",
"Q$	c #195432",
"R$	c #3C7050",
"S$	c #255436",
"T$	c #143F23",
"U$	c #0E361A",
"V$	c #093518",
"W$	c #0A3C1B",
"X$	c #164A27",
"Y$	c #306843",
"Z$	c #396D49",
"`$	c #275635",
" %	c #14271A",
".%	c #0D2E15",
"+%	c #285634",
"@%	c #255733",
"#%	c #1D502C",
"$%	c #245B35",
"%%	c #1B4C29",
"&%	c #204E2B",
"*%	c #1D4A28",
"=%	c #12411E",
"-%	c #1B4E29",
";%	c #396846",
">%	c #1E4A28",
",%	c #1C4424",
"'%	c #1C3F20",
")%	c #274F2E",
"!%	c #184825",
"~%	c #295A37",
"{%	c #1F552F",
"]%	c #245433",
"^%	c #0D1F12",
"/%	c #123219",
"(%	c #2B5938",
"_%	c #245431",
":%	c #2C5E3C",
"<%	c #346644",
"[%	c #1A4526",
"}%	c #1A4324",
"|%	c #1C4224",
"1%	c #163F20",
"2%	c #24512F",
"3%	c #416F4E",
"4%	c #1A4625",
"5%	c #234C2E",
"6%	c #254A2D",
"7%	c #1F4728",
"8%	c #265433",
"9%	c #184424",
"0%	c #285132",
"a%	c #1B4223",
"b%	c #2B5636",
"c%	c #2B5C39",
"d%	c #295A38",
"e%	c #0A1B0F",
"f%	c #0E2F17",
"g%	c #203F28",
"h%	c #2B4A33",
"i%	c #20422A",
"j%	c #2F533A",
"k%	c #284B33",
"l%	c #1F4028",
"m%	c #1F3E27",
"n%	c #23412A",
"o%	c #1B3520",
"p%	c #1A3721",
"q%	c #25422B",
"r%	c #42624B",
"s%	c #31553C",
"t%	c #2D5038",
"u%	c #2E4F37",
"v%	c #22412A",
"w%	c #17371F",
"x%	c #193B22",
"y%	c #204029",
"z%	c #26412C",
"A%	c #1B341F",
"B%	c #25412B",
"C%	c #2D5138",
"D%	c #23472F",
"E%	c #122216",
"F%	c #36533E",
"G%	c #3C5A45",
"H%	c #33533D",
"I%	c #30503A",
"J%	c #34523D",
"K%	c #27432E",
"L%	c #2D4935",
"M%	c #3A5943",
"N%	c #25402C",
"O%	c #3A5641",
"P%	c #3F5D48",
"Q%	c #315039",
"R%	c #355640",
"S%	c #34563F",
"T%	c #35543D",
"U%	c #2F4C36",
"V%	c #2E4C36",
"W%	c #24442D",
"X%	c #27432D",
"Y%	c #35523C",
"Z%	c #2D4833",
"`%	c #3C5B46",
" &	c #42604B",
".&	c #304E38",
"+&	c #1D3725",
"  . + @ # $ % & * = - ; > , ' ) ! ~ { ] ^ / ( _ :   ",
"< [ } | 1 2 3 4 5 6 7 8 9 0 a b c d e f g h i j k l ",
"m n o p q r s t u v w x y z A B C D E F G H I J K L ",
"M N O P Q R S T U V W X Y Z `  ...+.@.#.$.%.| &.*.=.",
"-.;.>.,.'.).!.~.6 {.].^./.(._.:.<.[.}.|.1.2.3.4.5.6.",
"7.8.9.0.a.b.c.d.e.f.g.h.i.j.k.l.m.n.o.p.q.r.s.t.u.v.",
"w.x.n y.z.A.B.C.D.E.F.G.H.I.J.K.L.M.N.O.P.Q.R.S.T.U.",
"V.W.X.Y.Z.`. +.+++@+#+$+%+&+*+=+-+;+>+,+'+)+!+~+{+]+",
"^+/+(+_+:+<+[+}+|+1+2+3+4+5+6+7+8+9+0+a+b+c+d+e+f+g+",
"h+i+j+k+l+m+n+o+p+q+r+s+t+u+v+w+x+y+z+A+B+C+D+(+E+F+",
"G+H+I+J+K+L+M+N+O+P+Q+R+S+T+U+Q V+W+X+Y+Z+`+ @k+.@+@",
"@@u #@$@%@&@*@=@-@;@>@,@#.; '@)@!@$.~@{@]@^@/@(@_@:@",
"<@[@}@|@1@2@3@4@5@6@7@8@9@0@a@b@c@d@e@f@g@h@i@j@k@l@",
"m@n@$@o@p@q@r@s@t@u@v@w@x@y@z@A@B@C@D@E@F@G@H@I@J@l ",
"K@L@M@N@O@P@Q@R@S@T@U@V@W@X@Y@Z@`@ #.#+#@###$#%#&#*#",
"=#-#;#>#,#'#)#!#~#{#]#^#/#(#_#:#<#[#}#|#1#2#3#4#5#6#",
"7#8#9#0#a#b#c#d#e#f#g#h#i#j#k#l#m#n#o#p#q#r#s#t#u#v#",
"w#x#y#z#A#B#C#D#E#F#G#H#I#J#K#L#M#N#O#P#Q#R#S#T#U#V#",
"W#X#Y#Z#,.`# $.$+$@$#$$$%$&$*$=$-$;$>$,$'$)$!$~${$]$",
"^$/$($_$:$<$[$}$|$1$2$3$4$5$6$7$8$9$0$a$b$c$d$e$f$g$",
"h$i$j$k$l$m$n$o$p$q$r$s$t$u$v$w$x$y$z$A$B$C$D$E$F$v#",
"G$,.H$:$I$J$K$L$M$N$O$P$Q$R$S$T$U$V$W$X$V+m$Y$Z$`$ %",
".%+%@%#%$%Y.%%d@&%*%=%-%m$;%>%,%'%)%<$!%!%~%/+{%]%^%",
"/%z.(%_%:%<%O [%}%|%1%$ 2%3%4%5%6%7%8%9%0%a%b%c%d%e%",
"f%g%h%i%j%k%l%m%n%o%p%q%r%s%t%u%v%w%x%y%z%A%B%C%D%E%",
"  F%G%H%I%J%K%L%M%N%O%P%Q%R%S%T%U%V%W%X%Y%Z%`% &.&+&"};
