/* XPM */
static char * maximize_toggled_prelight_xpm[] = {
"26 26 571 2",
"  	c None",
". 	c #061306",
"+ 	c #071A07",
"@ 	c #071707",
"# 	c #0D250C",
"$ 	c #0D280E",
"% 	c #0E3A0E",
"& 	c #0D3A0D",
"* 	c #0D420D",
"= 	c #0B340B",
"- 	c #052B05",
"; 	c #052D05",
"> 	c #042D04",
", 	c #0E4A0E",
"' 	c #095E09",
") 	c #137514",
"! 	c #10570F",
"~ 	c #052605",
"{ 	c #052C05",
"] 	c #063206",
"^ 	c #0A5C0A",
"/ 	c #0A470A",
"( 	c #062806",
"_ 	c #051A05",
": 	c #051105",
"< 	c #182918",
"[ 	c #1F2F1F",
"} 	c #1F2D1E",
"| 	c #1F301F",
"1 	c #253F25",
"2 	c #254226",
"3 	c #234723",
"4 	c #245525",
"5 	c #235623",
"6 	c #214922",
"7 	c #1F4B1F",
"8 	c #1F551F",
"9 	c #246924",
"0 	c #269527",
"a 	c #2A9C2A",
"b 	c #57BF57",
"c 	c #1E4D1E",
"d 	c #2A762A",
"e 	c #2AA12B",
"f 	c #1F5D1F",
"g 	c #1F401E",
"h 	c #19301A",
"i 	c #020802",
"j 	c #041104",
"k 	c #0F250F",
"l 	c #1A291A",
"m 	c #1A2A1A",
"n 	c #1B2D1B",
"o 	c #213C21",
"p 	c #234423",
"q 	c #214520",
"r 	c #1A411B",
"s 	c #1C4F1C",
"t 	c #1B381A",
"u 	c #1A471B",
"v 	c #1B4B1B",
"w 	c #1A481A",
"x 	c #1B551B",
"y 	c #278E27",
"z 	c #259E26",
"A 	c #53C653",
"B 	c #308031",
"C 	c #1D501D",
"D 	c #4EB84E",
"E 	c #1E821E",
"F 	c #1A4E1B",
"G 	c #1B3A1A",
"H 	c #0C1D0C",
"I 	c #020702",
"J 	c #041005",
"K 	c #051505",
"L 	c #071907",
"M 	c #061906",
"N 	c #061606",
"O 	c #0A1F0A",
"P 	c #143A14",
"Q 	c #113C11",
"R 	c #0A360B",
"S 	c #095009",
"T 	c #062606",
"U 	c #084108",
"V 	c #063806",
"W 	c #063906",
"X 	c #084708",
"Y 	c #096009",
"Z 	c #0C7D0C",
"` 	c #8DD58D",
" .	c #156515",
"..	c #1F6F1F",
"+.	c #319B31",
"@.	c #085108",
"#.	c #073007",
"$.	c #061F06",
"%.	c #021202",
"&.	c #061B06",
"*.	c #071F07",
"=.	c #071C06",
"-.	c #092C09",
";.	c #0D2B0D",
">.	c #133A13",
",.	c #0D2D0C",
"'.	c #083B09",
").	c #0D5D0D",
"!.	c #29472B",
"~.	c #2E6630",
"{.	c #326033",
"].	c #326333",
"^.	c #2E592F",
"/.	c #2E7330",
"(.	c #2C792E",
"_.	c #58A95A",
":.	c #2C742E",
"<.	c #479B47",
"[.	c #3A7A3B",
"}.	c #29602A",
"|.	c #052905",
"1.	c #061D07",
"2.	c #031302",
"3.	c #050F05",
"4.	c #051605",
"5.	c #071B07",
"6.	c #072307",
"7.	c #092F09",
"8.	c #0F350F",
"9.	c #133C13",
"0.	c #0D2F0D",
"a.	c #0B430B",
"b.	c #187118",
"c.	c #B5BBC0",
"d.	c #CDD0D6",
"e.	c #EFF1F4",
"f.	c #ECEFF1",
"g.	c #D6D9DE",
"h.	c #CDD0D5",
"i.	c #C2C5CB",
"j.	c #AEB3B8",
"k.	c #A1A3AB",
"l.	c #BEC0C5",
"m.	c #CFD0D4",
"n.	c #AFBDB3",
"o.	c #002000",
"p.	c #051005",
"q.	c #072507",
"r.	c #0E2B0E",
"s.	c #113611",
"t.	c #0C330C",
"u.	c #094B09",
"v.	c #177617",
"w.	c #C2C5CD",
"x.	c #477B4B",
"y.	c #4C714D",
"z.	c #4C794E",
"A.	c #446B46",
"B.	c #426944",
"C.	c #3E7341",
"D.	c #39733C",
"E.	c #3C8B40",
"F.	c #438845",
"G.	c #6E9170",
"H.	c #BEC5C2",
"I.	c #001B00",
"J.	c #071906",
"K.	c #051304",
"L.	c #051B06",
"M.	c #071E06",
"N.	c #071D07",
"O.	c #0B240C",
"P.	c #092809",
"Q.	c #637867",
"R.	c #9BA8A5",
"S.	c #C1D1C7",
"T.	c #BFC3CB",
"U.	c #B7C7BD",
"V.	c #ACB7B3",
"W.	c #A4B3AB",
"X.	c #939F9B",
"Y.	c #8B9792",
"Z.	c #92A199",
"`.	c #ACBEB1",
" +	c #BCCEC0",
".+	c #1E761E",
"++	c #386739",
"@+	c #BFC5C4",
"#+	c #001C00",
"$+	c #031202",
"%+	c #020703",
"&+	c #051205",
"*+	c #071C07",
"=+	c #061506",
"-+	c #081B08",
";+	c #0C260D",
">+	c #0D300C",
",+	c #778A7E",
"'+	c #AEB4BA",
")+	c #BAD3C0",
"!+	c #BEC2CA",
"~+	c #ADBFB3",
"{+	c #A4B5AA",
"]+	c #9FB1A6",
"^+	c #8EA996",
"/+	c #85978D",
"(+	c #8DA093",
"_+	c #A4BFA9",
":+	c #E4E1EA",
"<+	c #2A842B",
"[+	c #3B743C",
"}+	c #BEC2C2",
"|+	c #002100",
"1+	c #062006",
"2+	c #050E04",
"3+	c #051406",
"4+	c #061706",
"5+	c #061C06",
"6+	c #081D08",
"7+	c #0C210C",
"8+	c #0B2B0B",
"9+	c #75887B",
"0+	c #85958D",
"a+	c #256826",
"b+	c #BDC1C9",
"c+	c #328833",
"d+	c #165C17",
"e+	c #186418",
"f+	c #146116",
"g+	c #146216",
"h+	c #145D14",
"i+	c #9CD39D",
"j+	c #DEDEE3",
"k+	c #3D9B3E",
"l+	c #3C7A3E",
"m+	c #BDC1C2",
"n+	c #001F00",
"o+	c #062107",
"p+	c #031403",
"q+	c #020602",
"r+	c #050D05",
"s+	c #072106",
"t+	c #072607",
"u+	c #091B08",
"v+	c #75897B",
"w+	c #7F9088",
"x+	c #0E450E",
"y+	c #BCC0C8",
"z+	c #167C17",
"A+	c #0B700B",
"B+	c #085B08",
"C+	c #085308",
"D+	c #0C680C",
"E+	c #0C760C",
"F+	c #ADE2AD",
"G+	c #E1DFE6",
"H+	c #39A83A",
"I+	c #3D7E3E",
"J+	c #BEC2C3",
"K+	c #061F07",
"L+	c #031002",
"M+	c #050D04",
"N+	c #082B08",
"O+	c #081A08",
"P+	c #0C220B",
"Q+	c #0C2C0C",
"R+	c #708276",
"S+	c #809389",
"T+	c #0F4C0F",
"U+	c #BCBFC7",
"V+	c #127513",
"W+	c #0D760D",
"X+	c #066206",
"Y+	c #075908",
"Z+	c #0F7C0F",
"`+	c #B3E4B3",
" @	c #E1DFE7",
".@	c #339D34",
"+@	c #3F8141",
"@@	c #C0C5C6",
"#@	c #001E00",
"$@	c #021002",
"%@	c #061E07",
"&@	c #061B07",
"*@	c #051705",
"=@	c #0D260C",
"-@	c #0B2C0B",
";@	c #6E8275",
">@	c #81918A",
",@	c #126012",
"'@	c #BDC0C8",
")@	c #258E26",
"!@	c #279D27",
"~@	c #268F27",
"{@	c #0B740B",
"]@	c #19891A",
"^@	c #219121",
"/@	c #4CA04C",
"(@	c #DCDEE2",
"_@	c #2E922F",
":@	c #3C743D",
"<@	c #C4CAC8",
"[@	c #031203",
"}@	c #040C05",
"|@	c #061A06",
"1@	c #091C09",
"2@	c #0E290F",
"3@	c #0B2B0C",
"4@	c #6D8075",
"5@	c #82938B",
"6@	c #127112",
"7@	c #C0C4CB",
"8@	c #208E21",
"9@	c #42B343",
"0@	c #53BA52",
"a@	c #3EA63E",
"b@	c #3AA43B",
"c@	c #158415",
"d@	c #086209",
"e@	c #DDE0E2",
"f@	c #246724",
"g@	c #488849",
"h@	c #C5CAC9",
"i@	c #001D00",
"j@	c #071E07",
"k@	c #021102",
"l@	c #102D10",
"m@	c #6D7D74",
"n@	c #85988D",
"o@	c #188818",
"p@	c #C5C9D0",
"q@	c #117B12",
"r@	c #0E890E",
"s@	c #1FA11F",
"t@	c #3CAB3C",
"u@	c #47AE46",
"v@	c #0A550B",
"w@	c #064605",
"x@	c #E1E3E7",
"y@	c #1D461D",
"z@	c #3F7841",
"A@	c #C6C9CB",
"B@	c #001800",
"C@	c #072107",
"D@	c #040B05",
"E@	c #061806",
"F@	c #0F2E0F",
"G@	c #0F390F",
"H@	c #6F8776",
"I@	c #85998E",
"J@	c #259726",
"K@	c #C9CDD3",
"L@	c #4F8C53",
"M@	c #5BAA5D",
"N@	c #61B764",
"O@	c #6CB471",
"P@	c #438E48",
"Q@	c #3D6541",
"R@	c #355639",
"S@	c #C1C4C8",
"T@	c #4A634E",
"U@	c #728E76",
"V@	c #C4C7C8",
"W@	c #001300",
"X@	c #031603",
"Y@	c #061406",
"Z@	c #0C280C",
"`@	c #0F3D0F",
" #	c #74947A",
".#	c #869B8E",
"+#	c #308E30",
"@#	c #D2D2DC",
"##	c #CACAD5",
"$#	c #E2E3EB",
"%#	c #D9DBE2",
"&#	c #A3A7B2",
"*#	c #B1B3BE",
"=#	c #AEB1BC",
"-#	c #989BA5",
";#	c #7D8189",
">#	c #A5A8B0",
",#	c #E1E3E8",
"'#	c #C8CBCD",
")#	c #000F00",
"!#	c #040D05",
"~#	c #061505",
"{#	c #0C2A0C",
"]#	c #083908",
"^#	c #789A7E",
"/#	c #859E8E",
"(#	c #0F630F",
"_#	c #7EC180",
":#	c #469849",
"<#	c #3A953C",
"[#	c #79C47B",
"}#	c #52AB56",
"|#	c #3F9542",
"1#	c #2C6C30",
"2#	c #27542A",
"3#	c #CED0D4",
"4#	c #3E5540",
"5#	c #375039",
"6#	c #304031",
"7#	c #041405",
"8#	c #031102",
"9#	c #050B05",
"0#	c #0A210A",
"a#	c #0C310C",
"b#	c #074407",
"c#	c #7AA57F",
"d#	c #93AD9C",
"e#	c #317A32",
"f#	c #83CC84",
"g#	c #3F9C42",
"h#	c #28842A",
"i#	c #5FB561",
"j#	c #55AF57",
"k#	c #2C862E",
"l#	c #205C21",
"m#	c #274E27",
"n#	c #E8E9EC",
"o#	c #1D341D",
"p#	c #032703",
"q#	c #021502",
"r#	c #061206",
"s#	c #020D02",
"t#	c #051606",
"u#	c #0B320B",
"v#	c #124A12",
"w#	c #0D520D",
"x#	c #80A685",
"y#	c #C3C6CF",
"z#	c #CCD3D4",
"A#	c #D3DEDA",
"B#	c #ACB6B8",
"C#	c #95A2A3",
"D#	c #ADB7B9",
"E#	c #99A2A6",
"F#	c #838C8F",
"G#	c #999FA3",
"H#	c #BEC3C4",
"I#	c #F4F4F9",
"J#	c #203321",
"K#	c #020C03",
"L#	c #061407",
"M#	c #0B3C0A",
"N#	c #104810",
"O#	c #0D480D",
"P#	c #4A854C",
"Q#	c #6E9675",
"R#	c #89C38E",
"S#	c #90BF94",
"T#	c #8CBB93",
"U#	c #9EBCA6",
"V#	c #6BA072",
"W#	c #7AAA82",
"X#	c #5F9166",
"Y#	c #619066",
"Z#	c #718474",
"`#	c #848C86",
" $	c #142214",
".$	c #030A03",
"+$	c #071A06",
"@$	c #083508",
"#$	c #093F09",
"$$	c #0E470D",
"%$	c #146915",
"&$	c #1B6F1B",
"*$	c #095309",
"=$	c #148714",
"-$	c #035B03",
";$	c #228C21",
">$	c #D2F7D2",
",$	c #004C00",
"'$	c #2E9B2E",
")$	c #58B257",
"!$	c #055405",
"~$	c #012D01",
"{$	c #001100",
"]$	c #051305",
"^$	c #071806",
"/$	c #061307",
"($	c #061006",
"_$	c #051805",
":$	c #062106",
"<$	c #0D4E0E",
"[$	c #0D590D",
"}$	c #083909",
"|$	c #064306",
"1$	c #095809",
"2$	c #3DA73D",
"3$	c #064706",
"4$	c #105C10",
"5$	c #54B555",
"6$	c #053B05",
"7$	c #051806",
"8$	c #061305",
"9$	c #051106",
"0$	c #051006",
"a$	c #030B02",
"b$	c #020502",
"c$	c #041004",
"d$	c #081E07",
"e$	c #0E2A0E",
"f$	c #0E400E",
"g$	c #0D310D",
"h$	c #143F14",
"i$	c #163F17",
"j$	c #143614",
"k$	c #0E2F0F",
"l$	c #0D340D",
"m$	c #0E370E",
"n$	c #105110",
"o$	c #1A841A",
"p$	c #104510",
"q$	c #0F420E",
"r$	c #297E28",
"s$	c #155116",
"t$	c #0E320E",
"u$	c #0D210D",
"v$	c #0D1D0D",
"w$	c #0D190D",
"x$	c #0D170D",
"y$	c #0D160E",
"z$	c #060D06",
"A$	c #122C12",
"B$	c #154015",
"C$	c #142714",
"D$	c #142614",
"E$	c #193019",
"F$	c #182B18",
"G$	c #162516",
"H$	c #152815",
"I$	c #142914",
"J$	c #142514",
"K$	c #132D14",
"L$	c #134113",
"M$	c #173C17",
"N$	c #142D14",
"O$	c #265726",
"P$	c #132A14",
"Q$	c #132213",
"R$	c #131D13",
"S$	c #131B13",
"T$	c #121913",
"U$	c #131914",
"V$	c #131813",
"W$	c #131713",
"X$	c #040604",
"Y$	c #203F1F",
"Z$	c #203320",
"`$	c #1F2C1F",
" %	c #202920",
".%	c #222D21",
"+%	c #232E23",
"@%	c #1D2B1D",
"#%	c #1D2C1D",
"$%	c #1E2C1E",
"%%	c #1F331F",
"&%	c #1F3D1F",
"*%	c #1F4220",
"=%	c #1F351F",
"-%	c #264B26",
";%	c #1D2C1E",
">%	c #1E261E",
",%	c #1E251E",
"'%	c #1F241E",
")%	c #1E251F",
"!%	c #1F241F",
"~%	c #202420",
"{%	c #2A2C2A",
"  . + . @ # $ % & * = - ; > , ' ) ! ~ { ] ^ / ( _   ",
": < [ } | 1 2 3 4 5 6 7 8 7 9 0 a b 5 c d e f g h i ",
"j k l m n o p q r s t u v w x y z A B C D E F G H I ",
"J K L M N O P Q R S T U V W X Y Z `  ...+.@.#.$.%.i ",
": &.*.=.-.;.>.,.'.).!.~.{.].^./.(._.:.<.[.}.|.1.2.i ",
"3.4.5.6.7.8.9.0.a.b.c.d.e.f.g.h.i.j.k.l.m.n.o.M 2.i ",
"p._ *.q.1.r.s.t.u.v.w.x.y.z.A.B.C.D.E.F.G.H.I.J.%.I ",
"K.L.M.N.+ O.P.Q.R.S.T.U.V.W.X.Y.Z.`. +.+++@+#+*.$+%+",
"&+M *+=+-+;+>+,+'+)+!+~+{+]+^+/+(+_+:+<+[+}+|+1+$+I ",
"2+3+4+5+6+7+8+9+0+a+b+c+d+e+f+g+h+i+j+k+l+m+n+o+p+q+",
"r+K s+t+u+-+0.v+w+x+y+z+A+B+C+D+E+F+G+H+I+J+#+K+L+I ",
"M+4+N+*.O+P+Q+R+S+T+U+V+W+X+Y+Z+Z `+ @.@+@@@#@=.$@I ",
"r+4+%@&@*@=@-@;@>@,@'@)@!@~@{@]@^@/@(@_@:@<@n+&.[@I ",
"}@&+@ |@1@2@3@4@5@6@7@8@9@0@a@b@c@d@e@f@g@h@i@j@k@I ",
"}@: N 4+4.l@>+m@n@o@p@q@r@s@t@u@v@w@x@y@z@A@B@C@2.I ",
"D@&+=+=+E@F@G@H@I@J@K@L@M@N@O@P@Q@R@S@T@U@V@W@s+X@I ",
"r+&+Y@=+M Z@`@ #.#+#@###$#%#&#*#=#-#;#>#,#'#)#J.$+q+",
"!#&+. ~#|@{#]#^#/#(#_#:#<#[#}#|#1#2#3#4#5#6#7#=+8#I ",
"9#*@Y@E@0#a#b#c#d#e#f#g#h#i#j#k#l#m#n#o#p#q#Y@r#s#q+",
"!#t#Y@|@u#v#w#x#y#z#A#B#C#D#E#F#G#H#I#J#6.4+Y@. K#q+",
"r+&.L#s+M#N#O#P#Q#R#S#T#U#V#W#X#Y#Z#`# $5.L#. r#.$q+",
"M+4.+$@$#$$$%$&$*$=$-$;$>$,$'$)$!$~${$]$^$/$. ($.$q+",
"3._$:$]#X <$[$}$@$|$1$-$2$3$4$5$6$] 7$=+N 8$9$0$a$b$",
"c$d$e$f$g$h$i$j$k$l$m$n$o$p$q$r$s$t$u$v$w$x$x$y$z$b$",
"N A$B$C$D$E$F$G$H$I$J$K$L$M$N$P O$P$Q$R$S$T$U$V$W$X$",
"  Y$Z$`$ %.%+%`$@%#%$%%%&%*%=%%%-%;%@%>%,%'%)%!%~%{%"};
