/* XPM */
static char * maximize_inactive_xpm[] = {
"26 26 587 2",
"  	c None",
". 	c #16361F",
"+ 	c #2C4B33",
"@ 	c #0B2A12",
"# 	c #15331B",
"$ 	c #12321A",
"% 	c #193C22",
"& 	c #183C22",
"* 	c #153C22",
"= 	c #1F442A",
"- 	c #183B21",
"; 	c #0E2D15",
"> 	c #102E16",
", 	c #112F18",
"' 	c #18371F",
") 	c #1A3C24",
"! 	c #30533A",
"~ 	c #2E563B",
"{ 	c #174225",
"] 	c #32583E",
"^ 	c #1E462B",
"/ 	c #275237",
"( 	c #1C492C",
"_ 	c #20492E",
": 	c #23492F",
"< 	c #142E1A",
"[ 	c #2F5338",
"} 	c #2F5237",
"| 	c #24492E",
"1 	c #25462C",
"2 	c #2E5237",
"3 	c #365C40",
"4 	c #325A3D",
"5 	c #265133",
"6 	c #2F593C",
"7 	c #234C2F",
"8 	c #25492F",
"9 	c #22452A",
"0 	c #224429",
"a 	c #24482D",
"b 	c #254B2F",
"c 	c #436C50",
"d 	c #527F60",
"e 	c #356345",
"f 	c #325B3E",
"g 	c #3A6547",
"h 	c #39694A",
"i 	c #356546",
"j 	c #2E5B3D",
"k 	c #2F5A3D",
"l 	c #122016",
"m 	c #0C2512",
"n 	c #1C3F25",
"o 	c #24472D",
"p 	c #284C31",
"q 	c #2F5238",
"r 	c #1C4026",
"s 	c #23492E",
"t 	c #355C41",
"u 	c #2B5538",
"v 	c #325C3F",
"w 	c #254C30",
"x 	c #22492E",
"y 	c #23472C",
"z 	c #2A4D33",
"A 	c #23482C",
"B 	c #14391D",
"C 	c #446E51",
"D 	c #3B6749",
"E 	c #295638",
"F 	c #2B5135",
"G 	c #264F32",
"H 	c #366446",
"I 	c #2D5639",
"J 	c #386346",
"K 	c #325A3F",
"L 	c #122218",
"M 	c #122C1A",
"N 	c #12351A",
"O 	c #13371D",
"P 	c #163A1F",
"Q 	c #0B3015",
"R 	c #335D40",
"S 	c #285336",
"T 	c #194225",
"U 	c #153C20",
"V 	c #0F3419",
"W 	c #2C5035",
"X 	c #274C32",
"Y 	c #224B2F",
"Z 	c #2D573B",
"` 	c #214D30",
" .	c #143D21",
"..	c #173C22",
"+.	c #254F32",
"@.	c #184125",
"#.	c #1F472D",
"$.	c #102117",
"%.	c #1B3521",
"&.	c #0E3218",
"*.	c #13361C",
"=.	c #22452B",
"-.	c #1D4026",
";.	c #0D3218",
">.	c #224A2E",
",.	c #1C4A2C",
"'.	c #325D40",
").	c #1C4629",
"!.	c #194125",
"~.	c #1F462B",
"{.	c #1A4226",
"].	c #275235",
"^.	c #2A5639",
"/.	c #133F22",
"(.	c #183F23",
"_.	c #193B21",
":.	c #0C3015",
"<.	c #214B2E",
"[.	c #1F462C",
"}.	c #1C4628",
"|.	c #1C442A",
"1.	c #0D1C12",
"2.	c #233D2A",
"3.	c #1B3D23",
"4.	c #35583E",
"5.	c #0F3218",
"6.	c #15381E",
"7.	c #12381D",
"8.	c #184224",
"9.	c #225032",
"0.	c #1F4C2E",
"a.	c #1B4629",
"b.	c #1F462A",
"c.	c #184326",
"d.	c #255436",
"e.	c #315F41",
"f.	c #183E23",
"g.	c #103117",
"h.	c #113319",
"i.	c #153E22",
"j.	c #1B492B",
"k.	c #204C2F",
"l.	c #163C23",
"m.	c #0A180F",
"n.	c #293F2E",
"o.	c #0F3117",
"p.	c #365B40",
"q.	c #21442A",
"r.	c #17371E",
"s.	c #11351A",
"t.	c #11391F",
"u.	c #123D24",
"v.	c #3C6D52",
"w.	c #16462C",
"x.	c #17442B",
"y.	c #184128",
"z.	c #265239",
"A.	c #123F25",
"B.	c #26573C",
"C.	c #36674C",
"D.	c #103922",
"E.	c #102D15",
"F.	c #1B3C22",
"G.	c #1E492C",
"H.	c #144325",
"I.	c #144123",
"J.	c #22472E",
"K.	c #0B180F",
"L.	c #1D3522",
"M.	c #0F3118",
"N.	c #1A3F24",
"O.	c #21492D",
"P.	c #204329",
"Q.	c #122F16",
"R.	c #12361D",
"S.	c #5F631A",
"T.	c #967913",
"U.	c #A0851F",
"V.	c #9E8820",
"W.	c #9A7C16",
"X.	c #967A14",
"Y.	c #9A8118",
"Z.	c #9B821A",
"`.	c #A08E20",
" +	c #9A8119",
".+	c #9E8923",
"++	c #9C8A1D",
"@+	c #2F441D",
"#+	c #1F4027",
"$+	c #2B593C",
"%+	c #2D5B3D",
"&+	c #183B22",
"*+	c #07140B",
"=+	c #16331F",
"-+	c #194025",
";+	c #22472C",
">+	c #1B3E24",
",+	c #13341B",
"'+	c #0E3219",
")+	c #695A16",
"!+	c #A7801B",
"~+	c #8B6D16",
"{+	c #948830",
"]+	c #8B6F12",
"^+	c #8A6C16",
"/+	c #90791B",
"(+	c #927719",
"_+	c #937C1D",
":+	c #907A18",
"<+	c #8E7C21",
"[+	c #B99A25",
"}+	c #3E5126",
"|+	c #12331A",
"1+	c #234F32",
"2+	c #154123",
"3+	c #1A4326",
"4+	c #1F4229",
"5+	c #121F15",
"6+	c #173822",
"7+	c #1A4628",
"8+	c #153D21",
"9+	c #0C2F15",
"0+	c #153A1F",
"a+	c #0F3519",
"b+	c #10331A",
"c+	c #685F18",
"d+	c #856B1B",
"e+	c #324F2F",
"f+	c #1B3918",
"g+	c #1F3A1B",
"h+	c #233A1C",
"i+	c #264222",
"j+	c #355333",
"k+	c #254522",
"l+	c #1A3D19",
"m+	c #264C28",
"n+	c #A88619",
"o+	c #2F4017",
"p+	c #15381D",
"q+	c #113B1F",
"r+	c #173E22",
"s+	c #183921",
"t+	c #142118",
"u+	c #1B3B26",
"v+	c #244F32",
"w+	c #164024",
"x+	c #0B3116",
"y+	c #0D361B",
"z+	c #204B2E",
"A+	c #0F321A",
"B+	c #66591B",
"C+	c #89791F",
"D+	c #24492F",
"E+	c #1A3E24",
"F+	c #0F3016",
"G+	c #17351D",
"H+	c #17361D",
"I+	c #103218",
"J+	c #0F351A",
"K+	c #1D462A",
"L+	c #A98417",
"M+	c #3C5025",
"N+	c #15391F",
"O+	c #10361B",
"P+	c #22442A",
"Q+	c #0B2C15",
"R+	c #121E15",
"S+	c #173520",
"T+	c #2A5539",
"U+	c #1B472A",
"V+	c #235335",
"W+	c #265637",
"X+	c #22432C",
"Y+	c #6C5F1D",
"Z+	c #817221",
"`+	c #123C1F",
" @	c #21492C",
".@	c #113118",
"+@	c #0D3016",
"@@	c #183E22",
"#@	c #AA871E",
"$@	c #3B5527",
"%@	c #12381C",
"&@	c #12361B",
"*@	c #113218",
"=@	c #0A2B13",
"-@	c #07140A",
";@	c #1D3925",
">@	c #1F482C",
",@	c #1F4E30",
"'@	c #2A5D3D",
")@	c #285739",
"!@	c #183B23",
"~@	c #6C631A",
"{@	c #867922",
"]@	c #1F4C2F",
"^@	c #184427",
"/@	c #2C5539",
"(@	c #274F32",
"_@	c #14351B",
":@	c #14331B",
"<@	c #17391F",
"[@	c #103419",
"}@	c #A78115",
"|@	c #32451B",
"1@	c #0F3217",
"2@	c #0F2C14",
"3@	c #123118",
"4@	c #15341C",
"5@	c #08150C",
"6@	c #203E2A",
"7@	c #305B3E",
"8@	c #1E4B2D",
"9@	c #2A5135",
"0@	c #224C31",
"a@	c #716922",
"b@	c #847622",
"c@	c #1F4F31",
"d@	c #21482C",
"e@	c #12391D",
"f@	c #244A2E",
"g@	c #193A20",
"h@	c #113018",
"i@	c #15321A",
"j@	c #132F18",
"k@	c #AD992F",
"l@	c #3B4A22",
"m@	c #0B2B12",
"n@	c #0D2C12",
"o@	c #103017",
"p@	c #1C3C24",
"q@	c #264832",
"r@	c #285538",
"s@	c #244F33",
"t@	c #173B20",
"u@	c #6D661F",
"v@	c #7C6516",
"w@	c #2B593B",
"x@	c #2D5539",
"y@	c #184025",
"z@	c #184628",
"A@	c #264C31",
"B@	c #183C21",
"C@	c #16371E",
"D@	c #0E2F16",
"E@	c #A68012",
"F@	c #384C22",
"G@	c #22462C",
"H@	c #1E4228",
"I@	c #133B1F",
"J@	c #1F4329",
"K@	c #1F4028",
"L@	c #0B1A10",
"M@	c #193D27",
"N@	c #1A492B",
"O@	c #1E472A",
"P@	c #11331A",
"Q@	c #123218",
"R@	c #12351B",
"S@	c #153C23",
"T@	c #6F6722",
"U@	c #877D25",
"V@	c #1F4428",
"W@	c #214C2F",
"X@	c #265335",
"Y@	c #244C31",
"Z@	c #1B4226",
"`@	c #183F25",
" #	c #A77E14",
".#	c #3F562B",
"+#	c #396246",
"@#	c #325B3F",
"##	c #184729",
"$#	c #254930",
"%#	c #0F1F15",
"&#	c #0B2D17",
"*#	c #1B4227",
"=#	c #0F2F15",
"-#	c #0C2C13",
";#	c #1A3C22",
">#	c #1E422A",
",#	c #6E6922",
"'#	c #79671B",
")#	c #133E21",
"!#	c #14381E",
"~#	c #25482E",
"{#	c #335C41",
"]#	c #1F4D2F",
"^#	c #255032",
"/#	c #0E3519",
"(#	c #1C4428",
"_#	c #A8891A",
":#	c #4E673C",
"<#	c #4E795C",
"[#	c #3B6649",
"}#	c #275839",
"|#	c #224C2F",
"1#	c #1F4228",
"2#	c #0F1E14",
"3#	c #0F2E19",
"4#	c #163F22",
"5#	c #1F4328",
"6#	c #0A2B12",
"7#	c #17361E",
"8#	c #1A3E25",
"9#	c #736321",
"0#	c #785F11",
"a#	c #10391D",
"b#	c #15361C",
"c#	c #295035",
"d#	c #224D30",
"e#	c #2A5538",
"f#	c #184024",
"g#	c #21482D",
"h#	c #A07912",
"i#	c #5E764A",
"j#	c #487055",
"k#	c #1A3A22",
"l#	c #08150B",
"m#	c #18321F",
"n#	c #14371D",
"o#	c #1B3F25",
"p#	c #193F24",
"q#	c #18391F",
"r#	c #645616",
"s#	c #8C7921",
"t#	c #2C461C",
"u#	c #2F441B",
"v#	c #35471D",
"w#	c #354D25",
"x#	c #2F4921",
"y#	c #3F552C",
"z#	c #3B5228",
"A#	c #495D34",
"B#	c #3F562F",
"C#	c #A8861F",
"D#	c #3F572C",
"E#	c #284E33",
"F#	c #22492D",
"G#	c #194628",
"H#	c #0F2C15",
"I#	c #07130A",
"J#	c #162F1C",
"K#	c #0D2F15",
"L#	c #173C21",
"M#	c #274F33",
"N#	c #123B1F",
"O#	c #12391F",
"P#	c #6B5F1B",
"Q#	c #AF891F",
"R#	c #A07817",
"S#	c #A68720",
"T#	c #AA891E",
"U#	c #A5821B",
"V#	c #A88420",
"W#	c #AC881E",
"X#	c #AE8E1C",
"Y#	c #AB8418",
"Z#	c #A07917",
"`#	c #B38717",
" $	c #465F32",
".$	c #174124",
"+$	c #245133",
"@$	c #174628",
"#$	c #284F35",
"$$	c #103118",
"%$	c #0A190F",
"&$	c #122C18",
"*$	c #20442A",
"=$	c #163C21",
"-$	c #1B4427",
";$	c #153B21",
">$	c #3F4C1B",
",$	c #706F22",
"'$	c #73722C",
")$	c #706B24",
"!$	c #69651C",
"~$	c #6A6C22",
"{$	c #716F21",
"]$	c #73742E",
"^$	c #69681B",
"/$	c #655C15",
"($	c #655A18",
"_$	c #5C5211",
":$	c #1D3C18",
"<$	c #295639",
"[$	c #1C4C2D",
"}$	c #1A4225",
"|$	c #14361E",
"1$	c #142C1A",
"2$	c #1E462A",
"3$	c #153A21",
"4$	c #173C25",
"5$	c #1B4028",
"6$	c #133B22",
"7$	c #1B472D",
"8$	c #134026",
"9$	c #2E563D",
"0$	c #1C4029",
"a$	c #0F301B",
"b$	c #0B2914",
"c$	c #072812",
"d$	c #082E15",
"e$	c #11391E",
"f$	c #254F33",
"g$	c #2C5338",
"h$	c #0A2310",
"i$	c #1C4227",
"j$	c #163D22",
"k$	c #1B4628",
"l$	c #16391F",
"m$	c #0E3217",
"n$	c #153C1F",
"o$	c #2C4F35",
"p$	c #15341B",
"q$	c #153018",
"r$	c #1E3C23",
"s$	c #12371C",
"t$	c #1F452A",
"u$	c #184124",
"v$	c #1B4027",
"w$	c #0A180E",
"x$	c #0E2613",
"y$	c #21442B",
"z$	c #1B4025",
"A$	c #22482E",
"B$	c #284E34",
"C$	c #14351D",
"D$	c #15321B",
"E$	c #32553C",
"F$	c #14351C",
"G$	c #1B3A23",
"H$	c #1C3922",
"I$	c #18361F",
"J$	c #1D4027",
"K$	c #12341B",
"L$	c #1F3E26",
"M$	c #214229",
"N$	c #21462C",
"O$	c #1F452B",
"P$	c #0B2412",
"Q$	c #18301F",
"R$	c #213927",
"S$	c #183220",
"T$	c #243F2C",
"U$	c #1F3927",
"V$	c #18311F",
"W$	c #182F1E",
"X$	c #1B3220",
"Y$	c #152818",
"Z$	c #142A19",
"`$	c #1C3221",
" %	c #324B39",
".%	c #25412E",
"+%	c #223D2B",
"@%	c #233C2A",
"#%	c #1A3220",
"$%	c #122A18",
"%%	c #132D1A",
"&%	c #1D3222",
"*%	c #223E2B",
"=%	c #1B3624",
"-%	c #0E1A11",
";%	c #293F2F",
">%	c #2E4535",
",%	c #273F2F",
"'%	c #253D2C",
")%	c #283F2F",
"!%	c #1E3323",
"~%	c #223828",
"{%	c #2C4433",
"]%	c #1C3122",
"^%	c #2C4232",
"/%	c #304737",
"(%	c #284231",
"_%	c #284230",
":%	c #28402F",
"<%	c #243A29",
"[%	c #233A29",
"}%	c #1B3422",
"|%	c #1E3322",
"1%	c #283F2E",
"2%	c #223727",
"3%	c #2E4635",
"4%	c #324939",
"5%	c #253C2B",
"6%	c #162A1C",
"  . + @ # $ % & * = - ; > , ' ) ! ~ { ] ^ / ( _ :   ",
"< [ } | 1 2 3 4 5 6 7 8 9 0 a b c d e f g h i j k l ",
"m n o p q r s t u v w x y z A B C D E F G H I J K L ",
"M N & % O P Q * R S T U V W X Y Z `  .& ..+.| @.#.$.",
"%.& &.*.=.-.;.>.6 ,.'.).!.~.{.].^./.(._.:.<.[.}.|.1.",
"2.% 3.4.5.6.7.~.8.9.0.a.b.(. .c.d.e.f.g.h.i.j.k.l.m.",
"n.o.n p.q.r.s.t.u.v.w.x.u.y.z.A.B.C.D.E.F.G.H.I.J.K.",
"L.M.N.O.P.Q.R.S.T.U.V.W.X.Y.Z.`. +.+++@+#+$+%+].&+*+",
"=+-+(.;+>+,+'+)+!+~+{+]+^+/+(+_+:+<+[+}+|+1+2+3+4+5+",
"6+7+8+9+0+a+b+c+d+e+f+g+h+i+j+k+l+m+n+o+p+q+r+(.s+t+",
"u+v+w+x+y+z+A+B+C+D+E+F+G+H+I+O J+K+L+M+N+O+P+9+Q+R+",
"S+u T+U+V+W+X+Y+Z+`+ @..& ; .@+@@@..#@$@%@&@Q.*@=@-@",
";@>@a.,@'@)@!@~@{@]@^@/@(@_@:@|+<@[@}@|@9+1@2@3@4@5@",
"6@7@U+8@1+9@0@a@b@c@d@e@]@f@g@h@i@j@k@l@m@n@o.o@p@l ",
"q@r@s@b.%@t@#.u@v@w@x@y@z@6 A@B@C@D@E@F@G@H@I@J@K@L@",
"M@N@O@P@Q@R@S@T@U@^@V@V@W@X@S Y@Z@`@ #.#+#@###>.$#%#",
"&#U+*#=#-#;#>#,#'#)#!#~#{#]#^#W@/#(#_#:#<#[#}#|#1#2#",
"3#4#5#5.6#7#8#9#0#a#o.b#c#d#e#f#@@g#h#i#j#+.,@f#k#l#",
"m#n#o#p#*.q#8#r#s#t#u#v#w#x#y#z#A#B#C#D#E#F#G#0+H#I#",
"J#K#L#M#N#0+O#P#Q#R#S#T#U#V#W#X#Y#Z#`# $.$+$@$#$$$%$",
"&$*$=${.-$@.;$>$,$'$)$!$~${$]$^$/$($_$:$G.<$[$}$|$2#",
"1$*.| N#@.2$Z@3$4$5$6$7$8$9$0$a$b$c$d$e$J+@.f$g$H@2#",
"h$1#i$j$k$O.0+[@B@l$m$n$@.o$<@p$q$r$0+s$s$t$-+u$v$w$",
"x$q.y$z$A$B$& C$:@D$h@$ >+E$F$G$H$I$J$K$L$D$M$N$O$l#",
"P$Q$R$S$T$U$V$W$X$Y$Z$`$ %.%+%@%#%$%%%V$&%Y$`$*%=%-%",
"  ;%>%,%'%)%!%~%{%]%^%/%'%(%_%:%<%[%}%|%1%2%3%4%5%6%"};
