/* XPM */
static char * maximize_toggled_inactive_xpm[] = {
"26 26 616 2",
"  	c None",
". 	c #16361F",
"+ 	c #2C4B33",
"@ 	c #0B2A12",
"# 	c #15331B",
"$ 	c #12321A",
"% 	c #193C22",
"& 	c #183C22",
"* 	c #153C22",
"= 	c #1F442A",
"- 	c #183B21",
"; 	c #0E2D15",
"> 	c #102E16",
", 	c #112F18",
"' 	c #18371F",
") 	c #1A3C24",
"! 	c #30533A",
"~ 	c #2E563B",
"{ 	c #174225",
"] 	c #32583E",
"^ 	c #1E462B",
"/ 	c #275237",
"( 	c #1C492C",
"_ 	c #20492E",
": 	c #23492F",
"< 	c #142E1A",
"[ 	c #2F5338",
"} 	c #2F5237",
"| 	c #24492E",
"1 	c #25462C",
"2 	c #2E5237",
"3 	c #365C40",
"4 	c #325A3D",
"5 	c #265133",
"6 	c #2F593C",
"7 	c #234C2F",
"8 	c #25492F",
"9 	c #22452A",
"0 	c #224429",
"a 	c #24482D",
"b 	c #254B2F",
"c 	c #436C50",
"d 	c #527F60",
"e 	c #356345",
"f 	c #325B3E",
"g 	c #3A6547",
"h 	c #39694A",
"i 	c #356546",
"j 	c #2E5B3D",
"k 	c #2F5A3D",
"l 	c #122016",
"m 	c #0C2512",
"n 	c #1C3F25",
"o 	c #24472D",
"p 	c #284C31",
"q 	c #2F5238",
"r 	c #1C4026",
"s 	c #23492E",
"t 	c #355C41",
"u 	c #2B5538",
"v 	c #325C3F",
"w 	c #254C30",
"x 	c #22492E",
"y 	c #23472C",
"z 	c #2A4D33",
"A 	c #23482C",
"B 	c #14391D",
"C 	c #446E51",
"D 	c #3B6749",
"E 	c #295638",
"F 	c #2B5135",
"G 	c #264F32",
"H 	c #366446",
"I 	c #2D5639",
"J 	c #386346",
"K 	c #325A3F",
"L 	c #122218",
"M 	c #122C1A",
"N 	c #12351A",
"O 	c #13371D",
"P 	c #163A1F",
"Q 	c #0B3015",
"R 	c #335D40",
"S 	c #285336",
"T 	c #194225",
"U 	c #153C20",
"V 	c #0F3419",
"W 	c #2C5035",
"X 	c #274C32",
"Y 	c #224B2F",
"Z 	c #2D573B",
"` 	c #214D30",
" .	c #143D21",
"..	c #173C22",
"+.	c #254F32",
"@.	c #184125",
"#.	c #1F472D",
"$.	c #102117",
"%.	c #1B3521",
"&.	c #0E3218",
"*.	c #13361C",
"=.	c #22452B",
"-.	c #1D4026",
";.	c #0D3218",
">.	c #224A2E",
",.	c #1D4A2C",
"'.	c #4C6939",
").	c #395225",
"!.	c #354D20",
"~.	c #3D5528",
"{.	c #375123",
"].	c #425E2F",
"^.	c #476536",
"/.	c #2D4C1D",
"(.	c #355124",
"_.	c #36491E",
":.	c #2C4218",
"<.	c #3B5A2F",
"[.	c #1E462C",
"}.	c #1C4628",
"|.	c #1C442A",
"1.	c #0D1C12",
"2.	c #233D2A",
"3.	c #1B3D23",
"4.	c #35583E",
"5.	c #0F3218",
"6.	c #15381E",
"7.	c #12381D",
"8.	c #1F462B",
"9.	c #184224",
"0.	c #235132",
"a.	c #A07C11",
"b.	c #AE8316",
"c.	c #B28918",
"d.	c #AF891D",
"e.	c #AD8110",
"f.	c #AE8618",
"g.	c #B08615",
"h.	c #B08812",
"i.	c #B7961F",
"j.	c #B38B19",
"k.	c #B09122",
"l.	c #978C25",
"m.	c #15452A",
"n.	c #204C2F",
"o.	c #163C23",
"p.	c #0A180F",
"q.	c #293F2E",
"r.	c #0F3117",
"s.	c #365B40",
"t.	c #21442A",
"u.	c #17371E",
"v.	c #11351A",
"w.	c #11391F",
"x.	c #123D24",
"y.	c #3E6F52",
"z.	c #9E690B",
"A.	c #4E5822",
"B.	c #445420",
"C.	c #475623",
"D.	c #546330",
"E.	c #424F1E",
"F.	c #52662C",
"G.	c #5C6D39",
"H.	c #465722",
"I.	c #454C16",
"J.	c #64631C",
"K.	c #A08D25",
"L.	c #0E4125",
"M.	c #144123",
"N.	c #22472E",
"O.	c #0B180F",
"P.	c #1D3522",
"Q.	c #0F3118",
"R.	c #1A3F24",
"S.	c #21492D",
"T.	c #204329",
"U.	c #122F16",
"V.	c #12361D",
"W.	c #5F631A",
"X.	c #967913",
"Y.	c #A0851F",
"Z.	c #A77D16",
"`.	c #9A7C17",
" +	c #937914",
".+	c #978018",
"++	c #9A811A",
"@+	c #9D8D21",
"#+	c #99801A",
"$+	c #9C8825",
"%+	c #9A891D",
"&+	c #2D421D",
"*+	c #445628",
"=+	c #9C7A18",
"-+	c #28593F",
";+	c #275235",
">+	c #183B22",
",+	c #07140B",
"'+	c #16331F",
")+	c #194025",
"!+	c #183F23",
"~+	c #22472C",
"{+	c #1B3E24",
"]+	c #13341B",
"^+	c #0E3219",
"/+	c #695A16",
"(+	c #A7801B",
"_+	c #8B6D15",
":+	c #A5791B",
"<+	c #8E7012",
"[+	c #8A6C16",
"}+	c #90791B",
"|+	c #927719",
"1+	c #937C1D",
"2+	c #907A18",
"3+	c #8E7C21",
"4+	c #B99A25",
"5+	c #3E5126",
"6+	c #394618",
"7+	c #A48921",
"8+	c #113F25",
"9+	c #1A4326",
"0+	c #1F4229",
"a+	c #121F15",
"b+	c #173822",
"c+	c #1A4628",
"d+	c #153D21",
"e+	c #0C2F15",
"f+	c #153A1F",
"g+	c #0F3519",
"h+	c #10331A",
"i+	c #685F18",
"j+	c #856B1B",
"k+	c #34502F",
"l+	c #AC8312",
"m+	c #2C411B",
"n+	c #233A1C",
"o+	c #264222",
"p+	c #355333",
"q+	c #254522",
"r+	c #1A3D19",
"s+	c #264C28",
"t+	c #A88619",
"u+	c #2F4017",
"v+	c #3B4C1D",
"w+	c #9B7717",
"x+	c #123C23",
"y+	c #183921",
"z+	c #142118",
"A+	c #1B3B26",
"B+	c #244F32",
"C+	c #164024",
"D+	c #0B3116",
"E+	c #0D361B",
"F+	c #204B2E",
"G+	c #0F321A",
"H+	c #66591B",
"I+	c #89791F",
"J+	c #25492D",
"K+	c #AF891B",
"L+	c #1D3917",
"M+	c #17351D",
"N+	c #17361D",
"O+	c #103218",
"P+	c #0F351A",
"Q+	c #1D462A",
"R+	c #A98417",
"S+	c #3C5025",
"T+	c #3E5323",
"U+	c #9D801D",
"V+	c #1C422A",
"W+	c #0B2C15",
"X+	c #121E15",
"Y+	c #173520",
"Z+	c #2A5539",
"`+	c #1B472A",
" @	c #235335",
".@	c #265637",
"+@	c #22432C",
"@@	c #6C5F1D",
"#@	c #817221",
"$@	c #143C1F",
"%@	c #A67611",
"&@	c #224120",
"*@	c #113118",
"=@	c #0D3016",
"-@	c #183E22",
";@	c #AA871E",
">@	c #3B5527",
",@	c #374D21",
"'@	c #9D7C16",
")@	c #0B2C17",
"!@	c #113218",
"~@	c #0A2B13",
"{@	c #07140A",
"]@	c #1D3925",
"^@	c #1F482C",
"/@	c #1B4629",
"(@	c #1F4E30",
"_@	c #2A5D3D",
":@	c #285739",
"<@	c #183B23",
"[@	c #6C631A",
"}@	c #867922",
"|@	c #214D2F",
"1@	c #A67C14",
"2@	c #395C38",
"3@	c #274F32",
"4@	c #14351B",
"5@	c #14331B",
"6@	c #12331A",
"7@	c #17391F",
"8@	c #103419",
"9@	c #A78115",
"0@	c #32451B",
"a@	c #313F11",
"b@	c #9D7915",
"c@	c #0A2914",
"d@	c #123118",
"e@	c #15341C",
"f@	c #08150C",
"g@	c #203E2A",
"h@	c #305B3E",
"i@	c #1E4B2D",
"j@	c #234F32",
"k@	c #2A5135",
"l@	c #224C31",
"m@	c #716922",
"n@	c #847622",
"o@	c #224F30",
"p@	c #A78019",
"q@	c #1C3C19",
"r@	c #1F4C2F",
"s@	c #244A2E",
"t@	c #193A20",
"u@	c #113018",
"v@	c #15321A",
"w@	c #132F18",
"x@	c #AD992F",
"y@	c #3B4A22",
"z@	c #324115",
"A@	c #082E17",
"B@	c #103017",
"C@	c #1C3C24",
"D@	c #264832",
"E@	c #285538",
"F@	c #244F33",
"G@	c #1F462A",
"H@	c #12381C",
"I@	c #173B20",
"J@	c #6D661F",
"K@	c #7C6516",
"L@	c #2D5A3B",
"M@	c #A4700F",
"N@	c #224422",
"O@	c #174628",
"P@	c #2E583C",
"Q@	c #254B32",
"R@	c #173B22",
"S@	c #15361E",
"T@	c #0C2F16",
"U@	c #A68012",
"V@	c #374C22",
"W@	c #455728",
"X@	c #957514",
"Y@	c #0E391F",
"Z@	c #1F4329",
"`@	c #1F4028",
" #	c #0B1A10",
".#	c #193D27",
"+#	c #1A492B",
"@#	c #1E472A",
"##	c #11331A",
"$#	c #123218",
"%#	c #12351B",
"&#	c #153C23",
"*#	c #6F6722",
"=#	c #877D25",
"-#	c #1A4526",
";#	c #A06E12",
">#	c #525921",
",#	c #50622D",
"'#	c #50622B",
")#	c #4F5C25",
"!#	c #4D5928",
"~#	c #4C5323",
"{#	c #49521B",
"]#	c #AA8116",
"^#	c #605F22",
"/#	c #6E6F2F",
"(#	c #9A821F",
"_#	c #15452B",
":#	c #254930",
"<#	c #0F1F15",
"[#	c #0B2D17",
"}#	c #1B4227",
"|#	c #0F2F15",
"1#	c #0C2C13",
"2#	c #1A3C22",
"3#	c #1E422A",
"4#	c #6E6922",
"5#	c #79671B",
"6#	c #153F20",
"7#	c #B08319",
"8#	c #AD8315",
"9#	c #B08418",
"0#	c #B38D1F",
"a#	c #B6921F",
"b#	c #B79324",
"c#	c #B38B1B",
"d#	c #BA9925",
"e#	c #B79621",
"f#	c #B08618",
"g#	c #AD8015",
"h#	c #987918",
"i#	c #23563B",
"j#	c #224C2F",
"k#	c #1F4228",
"l#	c #0F1E14",
"m#	c #0F2E19",
"n#	c #163F22",
"o#	c #1F4328",
"p#	c #0A2B12",
"q#	c #17361E",
"r#	c #1A3E25",
"s#	c #736321",
"t#	c #785F11",
"u#	c #113A1D",
"v#	c #2D3E15",
"w#	c #394C1B",
"x#	c #475F32",
"y#	c #40592B",
"z#	c #496031",
"A#	c #3C5223",
"B#	c #3E5425",
"C#	c #445C2F",
"D#	c #A0760F",
"E#	c #70793F",
"F#	c #5F7649",
"G#	c #3A5028",
"H#	c #1E4E31",
"I#	c #184024",
"J#	c #1A3A22",
"K#	c #08150B",
"L#	c #18321F",
"M#	c #14371D",
"N#	c #1B3F25",
"O#	c #193F24",
"P#	c #18391F",
"Q#	c #645616",
"R#	c #8C7921",
"S#	c #2C461C",
"T#	c #2C431C",
"U#	c #32451D",
"V#	c #334C25",
"W#	c #2C4821",
"X#	c #3C532C",
"Y#	c #385028",
"Z#	c #465C33",
"`#	c #3D552F",
" $	c #A8861F",
".$	c #3F562C",
"+$	c #264D34",
"@$	c #20492F",
"#$	c #194628",
"$$	c #0F2C15",
"%$	c #07130A",
"&$	c #162F1C",
"*$	c #0D2F15",
"=$	c #173C21",
"-$	c #274F33",
";$	c #123B1F",
">$	c #12391F",
",$	c #6B5F1B",
"'$	c #AF891F",
")$	c #A07817",
"!$	c #A68720",
"~$	c #AA891E",
"{$	c #A5821B",
"]$	c #A88420",
"^$	c #AC881E",
"/$	c #AE8E1C",
"($	c #AB8418",
"_$	c #A07917",
":$	c #B38717",
"<$	c #465F32",
"[$	c #174124",
"}$	c #245133",
"|$	c #284F35",
"1$	c #103118",
"2$	c #0A190F",
"3$	c #122C18",
"4$	c #20442A",
"5$	c #163C21",
"6$	c #1A4226",
"7$	c #1B4427",
"8$	c #153B21",
"9$	c #3F4C1B",
"0$	c #706F22",
"a$	c #73722C",
"b$	c #706B24",
"c$	c #69651C",
"d$	c #6A6C22",
"e$	c #716F21",
"f$	c #73742E",
"g$	c #69681B",
"h$	c #655C15",
"i$	c #655A18",
"j$	c #5C5211",
"k$	c #1D3C18",
"l$	c #1E492C",
"m$	c #295639",
"n$	c #1C4C2D",
"o$	c #1A4225",
"p$	c #14361E",
"q$	c #142C1A",
"r$	c #1E462A",
"s$	c #1B4226",
"t$	c #153A21",
"u$	c #173C25",
"v$	c #1B4028",
"w$	c #133B22",
"x$	c #1B472D",
"y$	c #134026",
"z$	c #2E563D",
"A$	c #1C4029",
"B$	c #0F301B",
"C$	c #0B2914",
"D$	c #072812",
"E$	c #082E15",
"F$	c #11391E",
"G$	c #254F33",
"H$	c #2C5338",
"I$	c #1E4228",
"J$	c #0A2310",
"K$	c #1C4227",
"L$	c #163D22",
"M$	c #1B4628",
"N$	c #183C21",
"O$	c #16391F",
"P$	c #0E3217",
"Q$	c #153C1F",
"R$	c #2C4F35",
"S$	c #15341B",
"T$	c #153018",
"U$	c #1E3C23",
"V$	c #12371C",
"W$	c #1F452A",
"X$	c #184124",
"Y$	c #1B4027",
"Z$	c #0A180E",
"`$	c #0E2613",
" %	c #21442B",
".%	c #1B4025",
"+%	c #22482E",
"@%	c #284E34",
"#%	c #14351D",
"$%	c #15321B",
"%%	c #32553C",
"&%	c #14351C",
"*%	c #1B3A23",
"=%	c #1C3922",
"-%	c #18361F",
";%	c #1D4027",
">%	c #12341B",
",%	c #1F3E26",
"'%	c #214229",
")%	c #21462C",
"!%	c #1F452B",
"~%	c #0B2412",
"{%	c #18301F",
"]%	c #213927",
"^%	c #183220",
"/%	c #243F2C",
"(%	c #1F3927",
"_%	c #18311F",
":%	c #182F1E",
"<%	c #1B3220",
"[%	c #152818",
"}%	c #142A19",
"|%	c #1C3221",
"1%	c #324B39",
"2%	c #25412E",
"3%	c #223D2B",
"4%	c #233C2A",
"5%	c #1A3220",
"6%	c #122A18",
"7%	c #132D1A",
"8%	c #1D3222",
"9%	c #223E2B",
"0%	c #1B3624",
"a%	c #0E1A11",
"b%	c #293F2F",
"c%	c #2E4535",
"d%	c #273F2F",
"e%	c #253D2C",
"f%	c #283F2F",
"g%	c #1E3323",
"h%	c #223828",
"i%	c #2C4433",
"j%	c #1C3122",
"k%	c #2C4232",
"l%	c #304737",
"m%	c #284231",
"n%	c #284230",
"o%	c #28402F",
"p%	c #243A29",
"q%	c #233A29",
"r%	c #1B3422",
"s%	c #1E3322",
"t%	c #283F2E",
"u%	c #223727",
"v%	c #2E4635",
"w%	c #324939",
"x%	c #253C2B",
"y%	c #162A1C",
"  . + @ # $ % & * = - ; > , ' ) ! ~ { ] ^ / ( _ :   ",
"< [ } | 1 2 3 4 5 6 7 8 9 0 a b c d e f g h i j k l ",
"m n o p q r s t u v w x y z A B C D E F G H I J K L ",
"M N & % O P Q * R S T U V W X Y Z `  .& ..+.| @.#.$.",
"%.& &.*.=.-.;.>.6 ,.'.).!.~.{.].^./.(._.:.<.[.}.|.1.",
"2.% 3.4.5.6.7.8.9.0.a.b.c.d.e.f.g.h.i.j.k.l.m.n.o.p.",
"q.r.n s.t.u.v.w.x.y.z.A.B.C.D.E.F.G.H.I.J.K.L.M.N.O.",
"P.Q.R.S.T.U.V.W.X.Y.Z.`. +.+++@+#+$+%+&+*+=+-+;+>+,+",
"'+)+!+~+{+]+^+/+(+_+:+<+[+}+|+1+2+3+4+5+6+7+8+9+0+a+",
"b+c+d+e+f+g+h+i+j+k+l+m+n+o+p+q+r+s+t+u+v+w+x+!+y+z+",
"A+B+C+D+E+F+G+H+I+J+K+L+M+N+O+O P+Q+R+S+T+U+V+e+W+X+",
"Y+u Z+`+ @.@+@@@#@$@%@&@& ; *@=@-@..;@>@,@'@)@!@~@{@",
"]@^@/@(@_@:@<@[@}@|@1@2@3@4@5@6@7@8@9@0@a@b@c@d@e@f@",
"g@h@`+i@j@k@l@m@n@o@p@q@r@s@t@u@v@w@x@y@z@`.A@B@C@l ",
"D@E@F@G@H@I@#.J@K@L@M@N@O@P@Q@R@S@T@U@V@W@X@Y@Z@`@ #",
".#+#@###$#%#&#*#=#-#;#>#,#'#)#!#~#{#]#^#/#(#_#>.:#<#",
"[#`+}#|#1#2#3#4#5#6#7#8#9#0#a#b#c#d#e#f#g#h#i#j#k#l#",
"m#n#o#5.p#q#r#s#t#u#v#w#x#y#z#A#B#C#D#E#F#G#H#I#J#K#",
"L#M#N#O#*.P#r#Q#R#S#T#U#V#W#X#Y#Z#`# $.$+$@$#$f+$$%$",
"&$*$=$-$;$f+>$,$'$)$!$~${$]$^$/$($_$:$<$[$}$O@|$1$2$",
"3$4$5$6$7$@.8$9$0$a$b$c$d$e$f$g$h$i$j$k$l$m$n$o$p$l#",
"q$*.| ;$@.r$s$t$u$v$w$x$y$z$A$B$C$D$E$F$P+@.G$H$I$l#",
"J$k#K$L$M$S.f+8@N$O$P$Q$@.R$7@S$T$U$f+V$V$W$)+X$Y$Z$",
"`$t. %.%+%@%& #%5@$%u@$ {+%%&%*%=%-%;%>%,%$%'%)%!%K#",
"~%{%]%^%/%(%_%:%<%[%}%|%1%2%3%4%5%6%7%_%8%[%|%9%0%a%",
"  b%c%d%e%f%g%h%i%j%k%l%e%m%n%o%p%q%r%s%t%u%v%w%x%y%"};
