/* XPM */
static char * menu_inactive_xpm[] = {
"24 16 76 1",
" 	c None",
".	c #421507",
"+	c #421506",
"@	c #411506",
"#	c #431607",
"$	c #431506",
"%	c #431606",
"&	c #431507",
"*	c #4B1B0A",
"=	c #4A1A0A",
"-	c #49190A",
";	c #4B1A0A",
">	c #4A1B0A",
",	c #4A1B0B",
"'	c #4B1B0B",
")	c #4C1B0B",
"!	c #4C1B0A",
"~	c #441708",
"{	c #451707",
"]	c #451708",
"^	c #441607",
"/	c #441707",
"(	c #431608",
"_	c #421607",
":	c #461808",
"<	c #471908",
"[	c #481809",
"}	c #471808",
"|	c #461708",
"1	c #441608",
"2	c #501E0C",
"3	c #501D0C",
"4	c #4F1D0C",
"5	c #4F1C0C",
"6	c #4F1E0C",
"7	c #4F1D0B",
"8	c #4E1D0B",
"9	c #4D1C0B",
"0	c #511F0C",
"a	c #471809",
"b	c #491909",
"c	c #491908",
"d	c #481909",
"e	c #461809",
"f	c #461608",
"g	c #4C1A0B",
"h	c #481808",
"i	c #541F0E",
"j	c #531F0E",
"k	c #521E0D",
"l	c #531F0D",
"m	c #531E0D",
"n	c #511E0D",
"o	c #521E0C",
"p	c #521F0E",
"q	c #521F0D",
"r	c #56200F",
"s	c #56200E",
"t	c #57200F",
"u	c #561F0E",
"v	c #571F0E",
"w	c #551F0D",
"x	c #561F0F",
"y	c #57200E",
"z	c #481908",
"A	c #491809",
"B	c #4A1A09",
"C	c #491A09",
"D	c #451608",
"E	c #451607",
"F	c #441507",
"G	c #4A1909",
"H	c #4D1B0B",
"I	c #4B1A0B",
"J	c #491A0A",
"K	c #411505",
".+@++.++@...#.$.%...&.&.",
"*=-==;>==,')))!>;=>')!'>",
"~{]^&^$^///(_^]:<[[}:|#1",
"232454546227278)!*!!)960",
"ab=!)!**cd}|^^|}}}ea:^&#",
"|f|||:]||||:|||:|||:||||",
"::|::::}:}::::||:::||:}:",
"!))!))>)))))))))'!g*=)*!",
":{|:|:::::}:}}}b[he:::::",
"ijkklkmkknookkoopqpjlpjj",
"rstuvvusuuuurwuutxuuxuyu",
"bdb[h[dbz[}h}}[hhhAbabbb",
"bbbhAbbbb-bb[BCAbbb[dbAb",
"]]f|DDD]^^1^1EE1F&^1{D|^",
"b-bG;=;!;'))H))))9)H)II=",
":hBC=JBbbh}::|_.K+@++_|:"};
