/* XPM */
static char * menu_active_xpm[] = {
"24 16 104 2",
"  	c #571C09",
". 	c #561C08",
"+ 	c #551B08",
"@ 	c #561B08",
"# 	c #561C09",
"$ 	c #581D09",
"% 	c #581C08",
"& 	c #581D08",
"* 	c #581C09",
"= 	c #62230D",
"- 	c #61220D",
"; 	c #60210D",
"> 	c #62220D",
", 	c #61230D",
"' 	c #61230E",
") 	c #62230E",
"! 	c #63230E",
"~ 	c #63230D",
"{ 	c #591E0A",
"] 	c #5A1E09",
"^ 	c #5A1E0A",
"/ 	c #591D09",
"( 	c #591E09",
"_ 	c #581D0A",
": 	c #571D09",
"< 	c #5A1E0B",
"[ 	c #5C1F0B",
"} 	c #5D210B",
"| 	c #5E200C",
"1 	c #5D200B",
"2 	c #5B1E0A",
"3 	c #591D0A",
"4 	c #692710",
"5 	c #692610",
"6 	c #672610",
"7 	c #672510",
"8 	c #682510",
"9 	c #682610",
"0 	c #682710",
"a 	c #67260F",
"b 	c #68260F",
"c 	c #66260F",
"d 	c #64240E",
"e 	c #65250E",
"f 	c #6A2810",
"g 	c #5D200C",
"h 	c #5F210C",
"i 	c #63240D",
"j 	c #64240D",
"k 	c #5F210B",
"l 	c #5E210C",
"m 	c #5B1E0B",
"n 	c #5C1F0C",
"o 	c #5B1F0B",
"p 	c #5B1D0B",
"q 	c #5C1E0B",
"r 	c #5C1E0A",
"s 	c #5C1F0A",
"t 	c #5C200A",
"u 	c #5D1F0B",
"v 	c #5B1F0A",
"w 	c #5D1F0A",
"x 	c #63240E",
"y 	c #63220E",
"z 	c #5C200B",
"A 	c #5E200B",
"B 	c #5C200C",
"C 	c #6E2812",
"D 	c #6D2812",
"E 	c #6C2711",
"F 	c #6D2811",
"G 	c #6D2711",
"H 	c #6A2711",
"I 	c #6B2710",
"J 	c #6B2711",
"K 	c #6C2812",
"L 	c #6C2811",
"M 	c #712A13",
"N 	c #712A12",
"O 	c #722A13",
"P 	c #712912",
"Q 	c #722912",
"R 	c #702912",
"S 	c #6F2811",
"T 	c #712913",
"U 	c #722A12",
"V 	c #5E210B",
"W 	c #5F200C",
"X 	c #60210C",
"Y 	c #61220C",
"Z 	c #60220C",
"` 	c #5A1D0A",
" .	c #5A1D09",
"..	c #591C09",
"+.	c #61210C",
"@.	c #64230E",
"#.	c #65240E",
"$.	c #64240F",
"%.	c #65240F",
"&.	c #62220E",
"*.	c #60220D",
"=.	c #561B09",
"-.	c #551B07",
";.	c #571C08",
"  . + . .   @ @ +   # # $   %   &       *   *   ",
"= - ; - - > , - - ' ) ! ! ! ~ , > - , ) ! ~ ) , ",
"{ ] ^ / * / % / ( ( ( _ : / < [ } | | 1 [ 2 $ 3 ",
"4 5 4 6 7 6 8 9 0 4 4 a 4 b c d ~ = ~ ~ d e 0 f ",
"g h - i d j = = k l 1 2 / / m 1 1 1 n g o / * $ ",
"2 p 2 m q [ ^ m 2 q r [ 2 m 2 [ 2 m q [ 2 r q q ",
"[ s r s t [ [ u [ u s [ s s 2 2 s s s 2 r v w s ",
"~ d d i x ! , ! d x ! d d d d x ) ~ y = - ! = j ",
"v ] 2 v m s [ s z s 1 z 1 u 1 h | A B [ [ [ v v ",
"C D E E F E G E E H I I J J I I K L K D F K D D ",
"M N O P Q Q R N P R R R M S P R O T R P T P U P ",
"h l h | A | l h V | 1 A 1 1 | A A A W h g h h h ",
"h X h A W h X h X ; X h | Y Z W h h X | l h W h ",
"< ^ p 2 ` ` ` ^ / / 3 / 3  . .3 ..* / 3 ] ` 2 / ",
"X ; X +.> - > ~ > ) ! @.#.d @.x $.e @.%.! &.&.- ",
"[ A Y Z - *.Y h X A 1 z [ 2 : =.-.@ + . ;.: 2 [ "};
