/* XPM */
static char * right_inactive_xpm[] = {
"1 21 18 1",
" 	c None",
".	c #421607",
"+	c #431608",
"@	c #4C1B0B",
"#	c #461808",
"$	c #501E0C",
"%	c #4A1B0A",
"&	c #4A1A0A",
"*	c #4E1C0B",
"=	c #431607",
"-	c #491909",
";	c #511E0D",
">	c #57200F",
",	c #4D1C0B",
"'	c #461708",
")	c #49190A",
"!	c #481809",
"~	c #4A1B0B",
".",
"+",
"@",
"#",
"$",
"%",
"&",
"#",
"#",
"*",
"=",
"-",
";",
">",
",",
"'",
")",
"!",
"@",
"#",
"~"};
