/* XPM */
static char * shade_toggled_prelight_xpm[] = {
"26 26 548 2",
"  	c None",
". 	c #061306",
"+ 	c #071A07",
"@ 	c #061407",
"# 	c #071708",
"$ 	c #0D250C",
"% 	c #0D270E",
"& 	c #0E3A0E",
"* 	c #0D3B0D",
"= 	c #0E420D",
"- 	c #0B340B",
"; 	c #062B05",
"> 	c #052D05",
", 	c #0F4A0F",
"' 	c #095E09",
") 	c #137514",
"! 	c #105810",
"~ 	c #052605",
"{ 	c #052C05",
"] 	c #063206",
"^ 	c #0B5D0A",
"/ 	c #0A470A",
"( 	c #062806",
"_ 	c #051A05",
": 	c #051205",
"< 	c #192818",
"[ 	c #1F301F",
"} 	c #1F2E1F",
"| 	c #1F3120",
"1 	c #263F26",
"2 	c #264226",
"3 	c #234723",
"4 	c #255525",
"5 	c #235723",
"6 	c #224922",
"7 	c #204B20",
"8 	c #205520",
"9 	c #1F4B1F",
"0 	c #246A25",
"a 	c #279627",
"b 	c #2A9C2B",
"c 	c #57BF57",
"d 	c #1F4D1F",
"e 	c #2A762A",
"f 	c #2AA12B",
"g 	c #205F21",
"h 	c #1F401F",
"i 	c #1B311B",
"j 	c #020802",
"k 	c #041104",
"l 	c #0F240E",
"m 	c #1A281A",
"n 	c #1A291A",
"o 	c #1B2D1B",
"p 	c #213B21",
"q 	c #234423",
"r 	c #20451F",
"s 	c #1A401A",
"t 	c #1C501C",
"u 	c #1A381A",
"v 	c #1A461A",
"w 	c #1B4C1B",
"x 	c #1A551A",
"y 	c #268E27",
"z 	c #259D25",
"A 	c #53C554",
"B 	c #2F8030",
"C 	c #1C4F1C",
"D 	c #4FB94F",
"E 	c #1D811D",
"F 	c #1A4E1A",
"G 	c #1A3A1A",
"H 	c #0C1D0C",
"I 	c #020702",
"J 	c #051005",
"K 	c #051605",
"L 	c #071907",
"M 	c #061906",
"N 	c #061706",
"O 	c #0A1F0A",
"P 	c #143914",
"Q 	c #113C11",
"R 	c #0A360B",
"S 	c #095109",
"T 	c #062606",
"U 	c #084008",
"V 	c #063806",
"W 	c #063906",
"X 	c #084608",
"Y 	c #096109",
"Z 	c #0B7D0B",
"` 	c #89D289",
" .	c #146414",
"..	c #1F6F1F",
"+.	c #2F982F",
"@.	c #085108",
"#.	c #072F07",
"$.	c #062006",
"%.	c #021102",
"&.	c #051105",
"*.	c #061A06",
"=.	c #071E07",
"-.	c #061C06",
";.	c #0A2C09",
">.	c #0D2C0D",
",.	c #123913",
"'.	c #0D2D0C",
").	c #063A07",
"!.	c #055806",
"~.	c #012700",
"{.	c #034604",
"].	c #023B02",
"^.	c #023E02",
"/.	c #023802",
"(.	c #055704",
"_.	c #066506",
":.	c #399539",
"<.	c #116911",
"[.	c #2A902A",
"}.	c #145F15",
"|.	c #094B08",
"1.	c #072A06",
"2.	c #061D07",
"3.	c #031302",
"4.	c #050F05",
"5.	c #061705",
"6.	c #061B07",
"7.	c #072407",
"8.	c #093009",
"9.	c #0F3510",
"0.	c #133C14",
"a.	c #0D2F0D",
"b.	c #285929",
"c.	c #7CA87E",
"d.	c #708873",
"e.	c #6B8A70",
"f.	c #67866C",
"g.	c #648269",
"h.	c #5C7961",
"i.	c #5A7E5F",
"j.	c #58845D",
"k.	c #1F6521",
"l.	c #228122",
"m.	c #136D13",
"n.	c #064406",
"o.	c #084A08",
"p.	c #062406",
"q.	c #051A06",
"r.	c #071F07",
"s.	c #072507",
"t.	c #0E2A0E",
"u.	c #103610",
"v.	c #0E340E",
"w.	c #4E7C4F",
"x.	c #EFF0F3",
"y.	c #DADDE1",
"z.	c #D0D3D8",
"A.	c #CCCFD4",
"B.	c #C7CACF",
"C.	c #B4B8BE",
"D.	c #B2B5BB",
"E.	c #A7A9B0",
"F.	c #3B763E",
"G.	c #1B881C",
"H.	c #0A6C09",
"I.	c #074B08",
"J.	c #074307",
"K.	c #062106",
"L.	c #021202",
"M.	c #051305",
"N.	c #061B06",
"O.	c #071D06",
"P.	c #071C07",
"Q.	c #0B240C",
"R.	c #0C2B0C",
"S.	c #092C09",
"T.	c #4B6A4C",
"U.	c #EFF1F5",
"V.	c #D8DAE0",
"W.	c #CDD1D6",
"X.	c #CCCFD5",
"Y.	c #C8CBD1",
"Z.	c #B4B8BF",
"`.	c #B1B4BB",
" +	c #A5A7AF",
".+	c #408043",
"++	c #1F8A1F",
"@+	c #107210",
"#+	c #084308",
"$+	c #072207",
"%+	c #061F07",
"&+	c #031202",
"*+	c #020703",
"=+	c #061606",
"-+	c #081B07",
";+	c #0D270C",
">+	c #0F320F",
",+	c #0B2F0B",
"'+	c #4B644C",
")+	c #EEEFF3",
"!+	c #D4D7DC",
"~+	c #C8CCD2",
"{+	c #CBCFD5",
"]+	c #C7CBD0",
"^+	c #B5B8C0",
"/+	c #AFB2B9",
"(+	c #A5A7AE",
"_+	c #3A853E",
":+	c #6FC56F",
"<+	c #198019",
"[+	c #075107",
"}+	c #083D08",
"|+	c #072606",
"1+	c #050E04",
"2+	c #051405",
"3+	c #061806",
"4+	c #081E08",
"5+	c #0C220C",
"6+	c #0E2D0E",
"7+	c #0C320C",
"8+	c #4D714F",
"9+	c #EBEDF1",
"0+	c #D1D4DA",
"a+	c #C4C8CE",
"b+	c #CBCED4",
"c+	c #B5B8BF",
"d+	c #AEB1B8",
"e+	c #A3A5AC",
"f+	c #AECDB1",
"g+	c #ACE4AC",
"h+	c #339933",
"i+	c #095509",
"j+	c #063006",
"k+	c #062207",
"l+	c #031403",
"m+	c #050E05",
"n+	c #072707",
"o+	c #081A08",
"p+	c #103110",
"q+	c #103710",
"r+	c #4C6B4D",
"s+	c #E7EAEE",
"t+	c #CFD2D8",
"u+	c #BDC1C7",
"v+	c #C5C9CF",
"w+	c #B2B5BD",
"x+	c #AAAEB5",
"y+	c #9DA0A8",
"z+	c #B9D3BC",
"A+	c #9EDC9F",
"B+	c #33AA33",
"C+	c #095A09",
"D+	c #083708",
"E+	c #062206",
"F+	c #061E07",
"G+	c #031102",
"H+	c #050D05",
"I+	c #061605",
"J+	c #082C08",
"K+	c #0C230D",
"L+	c #0A2F0B",
"M+	c #4B674C",
"N+	c #E4E7EB",
"O+	c #CDD0D6",
"P+	c #B8BDC4",
"Q+	c #AFB2BA",
"R+	c #A5A8AF",
"S+	c #979AA1",
"T+	c #C9DBCD",
"U+	c #81CC81",
"V+	c #1B961B",
"W+	c #0B5C0B",
"X+	c #073507",
"Y+	c #072306",
"Z+	c #071C06",
"`+	c #021002",
" @	c #061A07",
".@	c #011300",
"+@	c #011900",
"@@	c #022001",
"#@	c #002200",
"$@	c #3F5D40",
"%@	c #DFE2E7",
"&@	c #B4B9C1",
"*@	c #C5C8CF",
"=@	c #C3C7CE",
"-@	c #ABAFB7",
";@	c #9EA2AA",
">@	c #90939B",
",@	c #58965C",
"'@	c #0C610B",
")@	c #0C7F0C",
"!@	c #004300",
"~@	c #013501",
"{@	c #072607",
"]@	c #031203",
"^@	c #040C05",
"/@	c #071807",
"(@	c #4A574F",
"_@	c #A7AEB2",
":@	c #BAC0C2",
"<@	c #CFD6D5",
"[@	c #D9DEDF",
"}@	c #DBDEE4",
"|@	c #C6CBD1",
"1@	c #B0B5BD",
"2@	c #C1C6CC",
"3@	c #C0C4CA",
"4@	c #A8ACB4",
"5@	c #989BA3",
"6@	c #898C94",
"7@	c #838C8C",
"8@	c #969F9E",
"9@	c #B7C2BD",
"0@	c #CBD5D0",
"a@	c #596F5B",
"b@	c #040B05",
"c@	c #001000",
"d@	c #56695C",
"e@	c #C9CED2",
"f@	c #EAECF2",
"g@	c #EAECF1",
"h@	c #D8DBE0",
"i@	c #C1C5CC",
"j@	c #AAB0B8",
"k@	c #BFC3C9",
"l@	c #BDC2C8",
"m@	c #A5A9B2",
"n@	c #969AA2",
"o@	c #878A93",
"p@	c #8C8E96",
"q@	c #A7A9B1",
"r@	c #C1C5C8",
"s@	c #608262",
"t@	c #001700",
"u@	c #021402",
"v@	c #061506",
"w@	c #071806",
"x@	c #082808",
"y@	c #405F42",
"z@	c #D3DADA",
"A@	c #E8EBF0",
"B@	c #D7DAE0",
"C@	c #BABFC7",
"D@	c #A6ACB4",
"E@	c #B9BEC6",
"F@	c #BABEC6",
"G@	c #A4A8B0",
"H@	c #9599A2",
"I@	c #848790",
"J@	c #8A8D95",
"K@	c #979DA1",
"L@	c #375538",
"M@	c #023602",
"N@	c #072106",
"O@	c #031503",
"P@	c #050C04",
"Q@	c #061406",
"R@	c #0C280C",
"S@	c #124012",
"T@	c #236524",
"U@	c #D2DAD9",
"V@	c #D7DADF",
"W@	c #B5BAC2",
"X@	c #A2A7AF",
"Y@	c #B7BCC3",
"Z@	c #B7BBC3",
"`@	c #A3A8B0",
" #	c #979BA3",
".#	c #83878F",
"+#	c #83898E",
"@#	c #133513",
"##	c #072D07",
"$#	c #072B07",
"%#	c #0B280B",
"&#	c #0A380A",
"*#	c #0E5E0E",
"=#	c #0D550D",
"-#	c #B1C3B8",
";#	c #B5B9C2",
">#	c #9CA2AB",
",#	c #B5B9C1",
"'#	c #B3B7C0",
")#	c #A1A6AE",
"!#	c #6D7C76",
"~#	c #073F07",
"{#	c #072807",
"]#	c #082B07",
"^#	c #071A06",
"/#	c #061607",
"(#	c #071406",
"_#	c #031103",
":#	c #020602",
"<#	c #050C05",
"[#	c #092109",
"}#	c #0C4A0C",
"|#	c #147814",
"1#	c #0D680C",
"2#	c #0D620D",
"3#	c #77AD7F",
"4#	c #9EA1AE",
"5#	c #B2B6BF",
"6#	c #A1A3AF",
"7#	c #7AA382",
"8#	c #074D07",
"9#	c #063606",
"0#	c #062007",
"a#	c #020D02",
"b#	c #051606",
"c#	c #0B310B",
"d#	c #114A11",
"e#	c #105410",
"f#	c #156E15",
"g#	c #0E6D0E",
"h#	c #0D5C0D",
"i#	c #199719",
"j#	c #4B8551",
"k#	c #B2B6C1",
"l#	c #B8B7C6",
"m#	c #7FB685",
"n#	c #49AE49",
"o#	c #065E06",
"p#	c #061F06",
"q#	c #071B07",
"r#	c #030B03",
"s#	c #040E05",
"t#	c #0A3C0A",
"u#	c #104810",
"v#	c #104B10",
"w#	c #0F600F",
"x#	c #0F610E",
"y#	c #32A232",
"z#	c #5EB55F",
"A#	c #37A436",
"B#	c #ABCEB2",
"C#	c #4F9654",
"D#	c #5ABB5A",
"E#	c #4AAC4A",
"F#	c #167D16",
"G#	c #073107",
"H#	c #071B06",
"I#	c #061507",
"J#	c #061206",
"K#	c #020A03",
"L#	c #050D04",
"M#	c #051705",
"N#	c #083608",
"O#	c #094109",
"P#	c #0D440D",
"Q#	c #126512",
"R#	c #1A691A",
"S#	c #0D520D",
"T#	c #178517",
"U#	c #075D08",
"V#	c #288E27",
"W#	c #C7F1C6",
"X#	c #004F00",
"Y#	c #319930",
"Z#	c #4FAC4F",
"`#	c #0A550A",
" $	c #073207",
".$	c #061007",
"+$	c #051805",
"@$	c #084609",
"#$	c #0E540F",
"$$	c #0E5A0E",
"%$	c #0B3F0B",
"&$	c #093809",
"*$	c #074607",
"=$	c #095B09",
"-$	c #065C06",
";$	c #3AA43A",
">$	c #054606",
",$	c #0F5D0F",
"'$	c #5FBB5F",
")$	c #043A04",
"!$	c #061106",
"~$	c #061006",
"{$	c #020B03",
"]$	c #020502",
"^$	c #050F04",
"/$	c #0D280C",
"($	c #0D3E0D",
"_$	c #0D300D",
":$	c #123C12",
"<$	c #153D15",
"[$	c #123512",
"}$	c #0D2E0D",
"|$	c #0C360C",
"1$	c #0F510F",
"2$	c #1A841A",
"3$	c #0F460F",
"4$	c #0D3F0D",
"5$	c #237C24",
"6$	c #155015",
"7$	c #0D310D",
"8$	c #0C200C",
"9$	c #0C170C",
"0$	c #0C160C",
"a$	c #0C150C",
"b$	c #020402",
"c$	c #081808",
"d$	c #152E15",
"e$	c #183E18",
"f$	c #162D16",
"g$	c #172817",
"h$	c #1C321C",
"i$	c #182618",
"j$	c #172916",
"k$	c #172C17",
"l$	c #172716",
"m$	c #163116",
"n$	c #164616",
"o$	c #193F19",
"p$	c #163216",
"q$	c #173E17",
"r$	c #275927",
"s$	c #162C16",
"t$	c #162516",
"u$	c #162016",
"v$	c #161E16",
"w$	c #161C16",
"x$	c #151915",
"y$	c #040704",
"z$	c #1E3D1E",
"A$	c #1D331D",
"B$	c #1C281C",
"C$	c #1D281D",
"D$	c #1E2B1E",
"E$	c #1F2B1F",
"F$	c #1D2A1D",
"G$	c #1B2A1B",
"H$	c #1B281A",
"I$	c #1B281B",
"J$	c #1B2F1B",
"K$	c #1B391B",
"L$	c #1D401D",
"M$	c #1C321B",
"N$	c #1C301C",
"O$	c #244A24",
"P$	c #1A2A19",
"Q$	c #192819",
"R$	c #1A231A",
"S$	c #1A211A",
"T$	c #1A201B",
"U$	c #1B211B",
"V$	c #1C201C",
"W$	c #1D211D",
"  . + @ # $ % & * = - ; > > , ' ) ! ~ { ] ^ / ( _   ",
": < [ } | 1 2 3 4 5 6 7 8 9 0 a b c 5 d e f g h i j ",
"k l m n o p q r s t u v w v x y z A B C D E F G H I ",
"J K L M N O P Q R S T U V W X Y Z `  ...+.@.#.$.%.j ",
"&.*.=.-.;.>.,.'.).!.~.{.].^./.(._.:.<.[.}.|.1.2.3.j ",
"4.5.6.7.8.9.0.a.b.c.d.e.f.g.h.i.j.k.l.m.n.o.p.M 3.j ",
"J q.r.s.2.t.u.v.w.x.y.z.A.B.C.D.E.F.G.H.I.J.K.M L.I ",
"M.N.O.P.L Q.R.S.T.U.V.W.X.Y.Z.`. +.+++@+J.#+$+%+&+*+",
": *.P.=+-+;+>+,+'+)+!+~+{+]+^+/+(+_+:+<+[+}+|+r.L.j ",
"1+2+3+N.4+5+6+7+8+9+0+a+b+]+c+d+e+f+g+h+i+j+p.k+l+I ",
"m+2+$.n+o+o+p+q+r+s+t+u+Y.v+w+x+y+z+A+B+C+D+E+F+G+I ",
"H+I+J+=.o+K+p+L+M+N+O+P+Y.v+Q+R+S+T+U+V+W+X+Y+Z+`+I ",
"H+N =. @.@+@@@#@$@%@{+&@*@=@-@;@>@,@'@)@!@~@{@-.]@I ",
"^@: /@6.(@_@:@<@[@}@|@1@2@3@4@5@6@7@8@9@0@a@K.r.G+I ",
"b@&.=+N c@d@e@f@g@h@i@j@k@l@m@n@o@p@q@r@s@t@%+$+u@I ",
"b@: =+v@w@x@y@z@A@B@C@D@E@F@G@H@I@J@K@L@M@*. @N@O@I ",
"P@: Q@v@M R@S@T@U@V@W@X@Y@Z@`@ #.#+#@###$#*.N M G+I ",
"H+M.. v@6.%#&#*#=#-#;#>#,#'#)#H@!#~#{#]#n+^#/#(#_#:#",
"<#K Q@3+[#v.}#|#1#2#3#4#'#5#6#7#8#9#n+0#J+3+Q@. a#:#",
"H+b#v@M c#d#e#f#g#h#i#j#k#l#m#n#o#X+p#q#$+N Q@. r#:#",
"s#M @ N@t#u#v#w#x#y#z#A#B#C#D#E#F#G#3+=+H#I#J#J#K#:#",
"L#M#*.N#O#P#Q#R#S#T#U#V#W#X#Y#Z#`# $5.Q@w@. . .$r#:#",
"4.+$K.N#@$#$$$%$&$*$=$-$;$>$,$'$)$ $3+v@=+. !$~${$]$",
"^$=./$($_$:$<$[$}$7+|$1$2$3$4$5$6$7$8$H 9$0$a$a$^@b$",
"c$d$e$f$g$h$o i$j$k$l$m$n$o$p$q$r$s$t$u$v$w$w$w$x$y$",
"  z$A$B$C$D$E$F$G$H$I$J$K$L$M$N$O$P$Q$R$S$T$U$V$W$  "};
