/* XPM */
static char * shade_inactive_xpm[] = {
"26 26 638 2",
"  	c None",
". 	c #1D4628",
"+ 	c #396243",
"@ 	c #0E3618",
"# 	c #1B4325",
"$ 	c #174222",
"% 	c #214E2D",
"& 	c #1F4E2D",
"* 	c #1C4E2B",
"= 	c #285937",
"- 	c #1F4D2B",
"; 	c #123B1B",
"> 	c #153D1E",
", 	c #173E1F",
"' 	c #1E4929",
") 	c #224F2F",
"! 	c #3F6E4C",
"~ 	c #3C714E",
"{ 	c #1E5531",
"] 	c #427351",
"^ 	c #275B38",
"/ 	c #336D48",
"( 	c #255F3A",
"_ 	c #295F3C",
": 	c #2E5F3D",
"< 	c #1A3C22",
"[ 	c #3D6D49",
"} 	c #3C6C48",
"| 	c #30603C",
"1 	c #315C3B",
"2 	c #477954",
"3 	c #417751",
"4 	c #336B44",
"5 	c #3E764F",
"6 	c #2F633E",
"7 	c #31613D",
"8 	c #2C5B37",
"9 	c #2C5936",
"0 	c #2F5F3B",
"a 	c #30623E",
"b 	c #598F69",
"c 	c #6BA67E",
"d 	c #45825A",
"e 	c #4C855E",
"f 	c #4B8B62",
"g 	c #47855C",
"h 	c #3C7850",
"i 	c #3E7751",
"j 	c #172B1D",
"k 	c #103118",
"l 	c #245230",
"m 	c #2F5D3B",
"n 	c #33623F",
"o 	c #3C6B48",
"p 	c #255331",
"q 	c #2E5E3B",
"r 	c #457954",
"s 	c #386F49",
"t 	c #407851",
"u 	c #30643F",
"v 	c #2D5F3B",
"w 	c #2F5E3B",
"x 	c #376542",
"y 	c #2D5D3A",
"z 	c #1A4A26",
"A 	c #588E68",
"B 	c #4C865F",
"C 	c #356F48",
"D 	c #376A45",
"E 	c #316742",
"F 	c #46835B",
"G 	c #3A6F4A",
"H 	c #49805A",
"I 	c #417653",
"J 	c #182C1F",
"K 	c #183A21",
"L 	c #174423",
"M 	c #204F2D",
"N 	c #204E2D",
"O 	c #1A4826",
"P 	c #1C4B28",
"Q 	c #0E3E1C",
"R 	c #1C4F2B",
"S 	c #437954",
"T 	c #346D47",
"U 	c #215832",
"V 	c #1C4F2A",
"W 	c #134420",
"X 	c #386745",
"Y 	c #336541",
"Z 	c #2C623D",
"` 	c #3C734E",
" .	c #2B653E",
"..	c #1A502B",
"+.	c #204E2C",
"@.	c #1E4F2B",
"#.	c #2F6741",
"$.	c #2E5D3B",
"%.	c #215631",
"&.	c #2A5E3B",
"*.	c #152B1E",
"=.	c #23452C",
"-.	c #204D2C",
";.	c #13411E",
">.	c #2A5837",
",.	c #265431",
"'.	c #11411E",
").	c #2D613C",
"!.	c #3E754F",
"~.	c #26613A",
"{.	c #417953",
"].	c #265B36",
"^.	c #1F5431",
"/.	c #245938",
"(.	c #235732",
"_.	c #336B45",
":.	c #367049",
"<.	c #1A542E",
"[.	c #1F522E",
"}.	c #204C2B",
"|.	c #103F1C",
"1.	c #2B623C",
"2.	c #2A5E3A",
"3.	c #245B35",
"4.	c #255836",
"5.	c #112518",
"6.	c #2F5037",
"7.	c #224F2D",
"8.	c #23512F",
"9.	c #457250",
"0.	c #154320",
"a.	c #194926",
"b.	c #285B37",
"c.	c #1E552F",
"d.	c #2B6941",
"e.	c #28633C",
"f.	c #205A35",
"g.	c #406735",
"h.	c #707F28",
"i.	c #0F4A2B",
"j.	c #1F5832",
"k.	c #336F48",
"l.	c #417C55",
"m.	c #20512E",
"n.	c #143F1E",
"o.	c #164322",
"p.	c #1C512C",
"q.	c #235E37",
"r.	c #2A643E",
"s.	c #1E4F2E",
"t.	c #0E2013",
"u.	c #36543C",
"v.	c #13401E",
"w.	c #255330",
"x.	c #487956",
"y.	c #1E4827",
"z.	c #164522",
"A.	c #1A4B28",
"B.	c #1E532F",
"C.	c #528F68",
"D.	c #3C6433",
"E.	c #D7A522",
"F.	c #E8B52F",
"G.	c #898531",
"H.	c #1A5531",
"I.	c #38754D",
"J.	c #4D8962",
"K.	c #1D4F2C",
"L.	c #173D1D",
"M.	c #244F2E",
"N.	c #265F39",
"O.	c #1A5931",
"P.	c #19542E",
"Q.	c #2D5E3C",
"R.	c #102115",
"S.	c #27452D",
"T.	c #14411E",
"U.	c #21522F",
"V.	c #2A5F3A",
"W.	c #2B5937",
"X.	c #183E1E",
"Y.	c #21512E",
"Z.	c #1F512D",
"`.	c #58936E",
" +	c #557432",
".+	c #D98C0B",
"++	c #DB9D19",
"@+	c #DCA51C",
"#+	c #E4AB1D",
"$+	c #9F9E39",
"%+	c #34693D",
"&+	c #3C7952",
"*+	c #255B35",
"=+	c #1B3F20",
"-+	c #285332",
";+	c #38754E",
">+	c #3A764F",
",+	c #316B45",
"'+	c #1F4D2D",
")+	c #0A1A0E",
"!+	c #1D4329",
"~+	c #215530",
"{+	c #1F502D",
"]+	c #2C5D3A",
"^+	c #22502E",
"/+	c #194423",
"(+	c #154220",
"_+	c #245431",
":+	c #1D5432",
"<+	c #9A9E3F",
"[+	c #F3C025",
"}+	c #F0C72B",
"|+	c #E5B31F",
"1+	c #E9BC26",
"2+	c #EEC733",
"3+	c #F0C32D",
"4+	c #B8B556",
"5+	c #37693A",
"6+	c #1F5532",
"7+	c #22492A",
"8+	c #194523",
"9+	c #2D6741",
"0+	c #1C542F",
"a+	c #205731",
"b+	c #285636",
"c+	c #18281C",
"d+	c #1E492D",
"e+	c #225A34",
"f+	c #1C502B",
"g+	c #0F3D1B",
"h+	c #1E4D2B",
"i+	c #144522",
"j+	c #184422",
"k+	c #15492A",
"l+	c #9E9933",
"m+	c #E8B521",
"n+	c #F5CD37",
"o+	c #DDA117",
"p+	c #E2AA21",
"q+	c #E6BA27",
"r+	c #E6B82D",
"s+	c #E4AE1C",
"t+	c #E6B733",
"u+	c #E0C53D",
"v+	c #2B592C",
"w+	c #143E1F",
"x+	c #1A4926",
"y+	c #164E28",
"z+	c #1E502C",
"A+	c #225430",
"B+	c #1F4B2B",
"C+	c #1A2B1E",
"D+	c #224D31",
"E+	c #2F6942",
"F+	c #1E5530",
"G+	c #10411D",
"H+	c #114822",
"I+	c #28603B",
"J+	c #1B4421",
"K+	c #AC961E",
"L+	c #F8D133",
"M+	c #EAB51C",
"N+	c #E5AE1A",
"O+	c #E5B11D",
"P+	c #E3B424",
"Q+	c #F5D53F",
"R+	c #EFCA32",
"S+	c #E6B220",
"T+	c #E1A71C",
"U+	c #DC970F",
"V+	c #E7A919",
"W+	c #49632F",
"X+	c #1C4C29",
"Y+	c #144622",
"Z+	c #2C5937",
"`+	c #113F1D",
" @	c #0D3919",
".@	c #17281C",
"+@	c #1E462B",
"@@	c #356D47",
"#@	c #245E37",
"$@	c #2B6D45",
"%@	c #4C733C",
"&@	c #B99824",
"*@	c #F4C82E",
"=@	c #F1C62C",
"-@	c #E8BC2D",
";@	c #F4D83E",
">@	c #F4D23F",
",@	c #F6D846",
"'@	c #EBBD25",
")@	c #F2CD2D",
"!@	c #E7B723",
"~@	c #EFC72E",
"{@	c #E7BB2E",
"]@	c #E9B31D",
"^@	c #DB9D17",
"/@	c #63681D",
"(@	c #124425",
"_@	c #163E1D",
":@	c #164220",
"<@	c #0F3A1A",
"[@	c #091A0E",
"}@	c #274B32",
"|@	c #2B603A",
"1@	c #235D37",
"2@	c #26653D",
"3@	c #5E8D4D",
"4@	c #CBAC27",
"5@	c #E4C033",
"6@	c #E2B629",
"7@	c #EAC73C",
"8@	c #F1C12F",
"9@	c #F1CA31",
"0@	c #EECB38",
"a@	c #EBC02C",
"b@	c #F2CF3F",
"c@	c #EDC42D",
"d@	c #F6D854",
"e@	c #EEC330",
"f@	c #EAC235",
"g@	c #D9A31E",
"h@	c #D7A323",
"i@	c #D19517",
"j@	c #80731A",
"k@	c #123A1B",
"l@	c #163F1F",
"m@	c #174122",
"n@	c #0A1B0F",
"o@	c #2A5136",
"p@	c #3D7450",
"q@	c #245D37",
"r@	c #27613B",
"s@	c #2B643E",
"t@	c #396D4A",
"u@	c #295F3B",
"v@	c #37704C",
"w@	c #558048",
"x@	c #F6D43C",
"y@	c #E8B91E",
"z@	c #E6B927",
"A@	c #EABE26",
"B@	c #E9BC2A",
"C@	c #E7B41E",
"D@	c #F5D132",
"E@	c #E4B017",
"F@	c #AE8B1A",
"G@	c #184223",
"H@	c #234D2D",
"I@	c #0F3818",
"J@	c #103919",
"K@	c #123F1D",
"L@	c #17401F",
"M@	c #2A5334",
"N@	c #182B1E",
"O@	c #315D41",
"P@	c #346F48",
"Q@	c #2E6640",
"R@	c #275B36",
"S@	c #1A4C28",
"T@	c #1C4D29",
"U@	c #2C5F3B",
"V@	c #2D6540",
"W@	c #466E35",
"X@	c #F0CA28",
"Y@	c #E8BD21",
"Z@	c #F0D138",
"`@	c #E3AE15",
" #	c #ECBE28",
".#	c #E4B01F",
"+#	c #F6D038",
"@#	c #B89D22",
"##	c #194928",
"$#	c #275633",
"%#	c #194D28",
"&#	c #265632",
"*#	c #265232",
"=#	c #0F2316",
"-#	c #215134",
";#	c #24623A",
">#	c #275D38",
",#	c #194625",
"'#	c #15401F",
")#	c #184624",
"!#	c #356A45",
"~#	c #547B43",
"{#	c #F2CC35",
"]#	c #F2D13D",
"^#	c #EDC22A",
"/#	c #E8BB20",
"(#	c #E2AD22",
"_#	c #EAB926",
":#	c #ECC02D",
"<#	c #F2C932",
"[#	c #B6931A",
"}#	c #134924",
"|#	c #2B613C",
"1#	c #4D835E",
"2#	c #205D35",
"3#	c #2F643F",
"4#	c #30603F",
"5#	c #152A1C",
"6#	c #0D391C",
"7#	c #215C35",
"8#	c #255834",
"9#	c #123C1C",
"0#	c #113919",
"a#	c #214D2B",
"b#	c #2D5B39",
"c#	c #32571F",
"d#	c #FCDD39",
"e#	c #F2CA23",
"f#	c #F1C92E",
"g#	c #ECC32F",
"h#	c #EAB826",
"i#	c #E4B628",
"j#	c #DB9918",
"k#	c #DF9B11",
"l#	c #B38715",
"m#	c #215935",
"n#	c #467E59",
"o#	c #669D78",
"p#	c #4D8560",
"q#	c #35754C",
"r#	c #2A613D",
"s#	c #275635",
"t#	c #13271A",
"u#	c #153D22",
"v#	c #1F532F",
"w#	c #285734",
"x#	c #144320",
"y#	c #0E3918",
"z#	c #204A29",
"A#	c #24522F",
"B#	c #2D5D3B",
"C#	c #43662A",
"D#	c #F6D23C",
"E#	c #ECBC23",
"F#	c #E5AA18",
"G#	c #E0A818",
"H#	c #DA9919",
"I#	c #E29C17",
"J#	c #E3A012",
"K#	c #B7921E",
"L#	c #386E4A",
"M#	c #5F946F",
"N#	c #5D926D",
"O#	c #336943",
"P#	c #29663E",
"Q#	c #225532",
"R#	c #224B2C",
"S#	c #0A1C10",
"T#	c #214229",
"U#	c #174624",
"V#	c #1F4827",
"W#	c #255230",
"X#	c #245331",
"Y#	c #44682D",
"Z#	c #F1C22B",
"`#	c #E0A513",
" $	c #EAB924",
".$	c #EFC634",
"+$	c #E6B422",
"@$	c #E2AD1D",
"#$	c #E2A71B",
"$$	c #E7B21A",
"%$	c #BCA435",
"&$	c #275937",
"*$	c #32633F",
"=$	c #356643",
"-$	c #2A5D39",
";$	c #235F38",
">$	c #1C4C28",
",$	c #13391B",
"'$	c #09190D",
")$	c #1C3D25",
"!$	c #103C1A",
"~$	c #366B46",
"{$	c #1A4D28",
"]$	c #235230",
"^$	c #52723C",
"/$	c #F3BE1D",
"($	c #EAB118",
"_$	c #E9B015",
":$	c #EEAF14",
"<$	c #EDB823",
"[$	c #E5A71A",
"}$	c #EEB31A",
"|$	c #DA940F",
"1$	c #CAC151",
"2$	c #235331",
"3$	c #3E724D",
"4$	c #19502A",
"5$	c #306C45",
"6$	c #1D5C33",
"7$	c #366945",
"8$	c #164123",
"9$	c #0E2114",
"0$	c #15371E",
"a$	c #2A5835",
"b$	c #1F4F2C",
"c$	c #245934",
"d$	c #225833",
"e$	c #205630",
"f$	c #1B4D2A",
"g$	c #1D4C29",
"h$	c #3E6130",
"i$	c #B9B33C",
"j$	c #B7AF2E",
"k$	c #AC9D27",
"l$	c #AA991F",
"m$	c #B09F25",
"n$	c #B19F21",
"o$	c #A78F18",
"p$	c #A08213",
"q$	c #8E8C28",
"r$	c #1C4C2A",
"s$	c #114521",
"t$	c #2D6640",
"u$	c #37724B",
"v$	c #255A35",
"w$	c #174524",
"x$	c #14281A",
"y$	c #1B3C23",
"z$	c #1C4B29",
"A$	c #2D5E3B",
"B$	c #1B512C",
"C$	c #205631",
"D$	c #285D38",
"E$	c #235431",
"F$	c #204F2C",
"G$	c #214F2E",
"H$	c #1D4F33",
"I$	c #15492E",
"J$	c #1D5839",
"K$	c #155234",
"L$	c #366B4F",
"M$	c #215237",
"N$	c #103E24",
"O$	c #0B361C",
"P$	c #083519",
"Q$	c #11401C",
"R$	c #174A26",
"S$	c #134621",
"T$	c #235833",
"U$	c #316A44",
"V$	c #346845",
"W$	c #2B5938",
"X$	c #14271A",
"Y$	c #0A2A11",
"Z$	c #245633",
"`$	c #255B36",
" %	c #1D4E2B",
".%	c #23512E",
"+%	c #13421F",
"@%	c #1D4E2A",
"#%	c #205530",
"$%	c #386744",
"%%	c #1E4A29",
"&%	c #1A4120",
"*%	c #193D1E",
"=%	c #27502F",
"-%	c #184825",
";%	c #285835",
">%	c #0D1F12",
",%	c #13341C",
"'%	c #295736",
")%	c #21512F",
"!%	c #2C5E3B",
"~%	c #316340",
"{%	c #1D4B2A",
"]%	c #174323",
"^%	c #16401F",
"/%	c #1A4123",
"(%	c #153E1E",
"_%	c #184424",
":%	c #1D4A28",
"<%	c #3E6B4A",
"[%	c #194424",
"}%	c #244D2E",
"|%	c #274C2D",
"1%	c #1F4929",
"2%	c #245231",
"3%	c #275131",
"4%	c #1B4324",
"5%	c #2B5636",
"6%	c #255734",
"7%	c #295B39",
"8%	c #103018",
"9%	c #22422B",
"0%	c #2F5038",
"a%	c #264A32",
"b%	c #30543B",
"c%	c #2E533A",
"d%	c #22442B",
"e%	c #22432B",
"f%	c #26442E",
"g%	c #1C3922",
"h%	c #1E3B24",
"i%	c #26442C",
"j%	c #45654E",
"k%	c #375C43",
"l%	c #2D5138",
"m%	c #2E5138",
"n%	c #24422B",
"o%	c #1A3A23",
"p%	c #1E4129",
"q%	c #23422B",
"r%	c #2A4630",
"s%	c #1C3721",
"t%	c #2A4731",
"u%	c #34573E",
"v%	c #254B31",
"w%	c #122317",
"x%	c #34503B",
"y%	c #395741",
"z%	c #2D4E37",
"A%	c #2E4F38",
"B%	c #2F4D38",
"C%	c #23402A",
"D%	c #294631",
"E%	c #36543E",
"F%	c #223D28",
"G%	c #37523D",
"H%	c #3C5A44",
"I%	c #2F4D37",
"J%	c #31533C",
"K%	c #32543D",
"L%	c #32513B",
"M%	c #2C4A34",
"N%	c #284631",
"O%	c #1F3F29",
"P%	c #233F29",
"Q%	c #314D38",
"R%	c #2A442F",
"S%	c #37553F",
"T%	c #3D5B45",
"U%	c #2C4B35",
"  . + @ # $ % & * = - ; > , ' ) ! ~ { ] ^ / ( _ :   ",
"< [ } | 1 [ 2 3 4 5 6 7 8 9 0 a b c d 3 e f g h i j ",
"k l m n o p q r s t u v w x y z A B C D E F G H I J ",
"K L M N O P Q R S T U V W X Y Z `  ...+.@.#.$.%.&.*.",
"=.-.;.O >.,.'.).!.~.{.].^./.(._.:.<.[.}.|.1.2.3.4.5.",
"6.7.8.9.0.P a.b.c.d.e.f.g.h.i.j.k.l.m.n.o.p.q.r.s.t.",
"u.v.w.x.>.y.z.A.B.C.q.D.E.F.G.H.I.J.K.L.M.N.O.P.Q.R.",
"S.T.U.V.W.X.O Y.Z.`. +.+++@+#+$+%+&+*+=+-+;+>+,+'+)+",
"!+~+{+]+^+/+(+_+:+<+[+}+|+1+2+3+4+5+6+7+8+9+0+a+b+c+",
"d+e+f+g+h+i+j+k+l+m+n+o+p+q+r+s+t+u+v+w+x+y+z+A+B+C+",
"D+E+F+G+H+I+J+K+L+M+N+O+P+Q+R+S+T+U+V+W+X+Y+Z+`+ @.@",
"+@@@@@#@$@%@&@*@=@-@;@>@,@'@)@!@~@{@]@^@/@(@_@:@<@[@",
"}@|@1@2@3@4@5@6@7@8@9@0@a@b@c@d@e@f@g@h@i@j@k@l@m@n@",
"o@p@q@r@s@t@u@v@w@x@y@z@A@B@C@D@E@F@G@H@I@J@K@L@M@N@",
"O@P@Q@R@S@T@U@V@W@Q+X@Y@Z@`@ #.#+#@###8.W.$#%#&#*#=#",
"-#;#>#,#'#)#@.!#~#{#]#^#/#(#_#:#<#[#}#|#1#S 2#3#4#5#",
"6#7#8#9#0#a#b#A+c#d#e#f#g#h#i#j#k#l#m#n#o#p#q#r#s#t#",
"u#v#w#x#y#z#A#B#C#D#_#E#F#G#H#I#J#K#L#M#N#O#P#Q#R#S#",
"T#)#Y.m.U#V#W#X#Y#Z#`# $.$+$@$#$$$%$&$*$=$-$;$>$,$'$",
")$!${+~$%#{$X+]$^$/$($_$:$<$[$}$|$1$2$3$4$5$6$7$8$9$",
"0$a$b$c$d$e$f$g$h$i$j$k$l$m$n$o$p$q$r$s$t$u$;#v$w$x$",
"y$z$A$B$C$D$E$F$G$H$I$J$K$L$M$N$O$P$Q$R$S$T$U$V$W$X$",
"Y$$#Z$%#`$V. %'..%}.+%@%#%$%%%&%*%=%A.-%U#;%K.%.& >%",
",%b#'%)%!%~%{%]%^%/%(%_%:%<%[%}%|%1%2%]%3%4%5%6%7%[@",
"8%9%0%a%b%c%d%e%f%g%h%i%j%k%l%m%n%o%p%q%r%s%t%u%v%w%",
"  x%y%z%A%B%C%D%E%F%G%H%I%J%K%L%M%N%O%P%Q%R%S%T%U%  "};
