/* XPM */
static char * shade_toggled_inactive_xpm[] = {
"26 26 589 2",
"  	c None",
". 	c #16351F",
"+ 	c #2C4B33",
"@ 	c #0B2912",
"# 	c #15331C",
"$ 	c #12321A",
"% 	c #193C22",
"& 	c #183C22",
"* 	c #153C21",
"= 	c #1F442A",
"- 	c #183B21",
"; 	c #0E2D15",
"> 	c #102F17",
", 	c #122F18",
"' 	c #17381F",
") 	c #1A3C24",
"! 	c #30543A",
"~ 	c #2E563C",
"{ 	c #174125",
"] 	c #32583E",
"^ 	c #1E462B",
"/ 	c #275337",
"( 	c #1C492C",
"_ 	c #1F492E",
": 	c #23492F",
"< 	c #142E1A",
"[ 	c #2F5338",
"} 	c #2E5237",
"| 	c #25492E",
"1 	c #25462D",
"2 	c #365C40",
"3 	c #325B3E",
"4 	c #275234",
"5 	c #2F5A3C",
"6 	c #244C2F",
"7 	c #254A2F",
"8 	c #22462A",
"9 	c #224429",
"0 	c #24492D",
"a 	c #254B2F",
"b 	c #446D50",
"c 	c #527F60",
"d 	c #356345",
"e 	c #3A6648",
"f 	c #396A4B",
"g 	c #366646",
"h 	c #2E5C3D",
"i 	c #2F5B3E",
"j 	c #122116",
"k 	c #0C2512",
"l 	c #1B3F25",
"m 	c #24472D",
"n 	c #274B30",
"o 	c #1C3F25",
"p 	c #23482D",
"q 	c #355C40",
"r 	c #2B5538",
"s 	c #315C3E",
"t 	c #254C30",
"u 	c #22492D",
"v 	c #24482D",
"w 	c #2A4D32",
"x 	c #22472C",
"y 	c #14391D",
"z 	c #436C4F",
"A 	c #3A6649",
"B 	c #285537",
"C 	c #2A5135",
"D 	c #254F32",
"E 	c #356446",
"F 	c #2C5539",
"G 	c #386245",
"H 	c #325A3F",
"I 	c #122218",
"J 	c #122C19",
"K 	c #12341B",
"L 	c #14371D",
"M 	c #15391F",
"N 	c #0B2F15",
"O 	c #335C40",
"P 	c #285336",
"Q 	c #194326",
"R 	c #153C20",
"S 	c #0F3418",
"T 	c #2B4F35",
"U 	c #274D32",
"V 	c #224B2F",
"W 	c #2E583C",
"X 	c #214D2F",
"Y 	c #143D21",
"Z 	c #173C21",
"` 	c #244F32",
" .	c #23472D",
"..	c #194225",
"+.	c #20482D",
"@.	c #102117",
"#.	c #1B3522",
"$.	c #183B22",
"%.	c #0F3217",
"&.	c #20432A",
"*.	c #1D4025",
"=.	c #0D3217",
"-.	c #224A2E",
";.	c #2F593C",
">.	c #18492E",
",.	c #2D5B40",
"'.	c #18432A",
").	c #153F26",
"!.	c #1B442B",
"~.	c #154027",
"{.	c #224F35",
"].	c #255439",
"^.	c #113F24",
"/.	c #183F23",
"(.	c #183A21",
"_.	c #0C3015",
":.	c #214B2E",
"<.	c #20482C",
"[.	c #1B4628",
"}.	c #1C4329",
"|.	c #0D1C12",
"1.	c #243D2A",
"2.	c #1A3C22",
"3.	c #1B3E24",
"4.	c #35573D",
"5.	c #103318",
"6.	c #13381D",
"7.	c #1F462A",
"8.	c #254824",
"9.	c #65681B",
"0.	c #6A7025",
"a.	c #686E1F",
"b.	c #66661C",
"c.	c #63661B",
"d.	c #63691F",
"e.	c #687025",
"f.	c #6A7525",
"g.	c #637432",
"h.	c #183E23",
"i.	c #0F3017",
"j.	c #11331A",
"k.	c #153E22",
"l.	c #1B482A",
"m.	c #204C2F",
"n.	c #173C23",
"o.	c #0B180F",
"p.	c #29402E",
"q.	c #0F3117",
"r.	c #375C42",
"s.	c #17371E",
"t.	c #11351A",
"u.	c #14391F",
"v.	c #34522A",
"w.	c #B69019",
"x.	c #AA7809",
"y.	c #AA7910",
"z.	c #AD7E11",
"A.	c #B7941A",
"B.	c #AD810F",
"C.	c #B18616",
"D.	c #B7961E",
"E.	c #9A8B2D",
"F.	c #153C22",
"G.	c #122F16",
"H.	c #1B3C23",
"I.	c #1D492C",
"J.	c #144425",
"K.	c #134023",
"L.	c #22482E",
"M.	c #0C1910",
"N.	c #1E3522",
"O.	c #193F24",
"P.	c #20492C",
"Q.	c #21442A",
"R.	c #122F17",
"S.	c #193E23",
"T.	c #334E28",
"U.	c #B48F22",
"V.	c #AE8315",
"W.	c #A7790C",
"X.	c #A77B13",
"Y.	c #B59423",
"Z.	c #B4901F",
"`.	c #B18614",
" +	c #B18714",
".+	c #9C9328",
"++	c #1B4529",
"@+	c #153018",
"#+	c #1F3F26",
"$+	c #2B593C",
"%+	c #2C5A3C",
"&+	c #255235",
"*+	c #08140B",
"=+	c #16331F",
"-+	c #194125",
";+	c #183D22",
">+	c #1A3D23",
",+	c #13341B",
"'+	c #103218",
")+	c #1B4025",
"!+	c #304920",
"~+	c #AF7C0A",
"{+	c #AF800F",
"]+	c #A67111",
"^+	c #AD8315",
"/+	c #B08819",
"(+	c #B7931E",
"_+	c #B0891A",
":+	c #B7961D",
"<+	c #918317",
"[+	c #184226",
"}+	c #1A381F",
"|+	c #13351B",
"1+	c #224F32",
"2+	c #154024",
"3+	c #184225",
"4+	c #1F4229",
"5+	c #121F15",
"6+	c #173822",
"7+	c #1A4528",
"8+	c #153D21",
"9+	c #173B21",
"0+	c #0F351A",
"a+	c #12341A",
"b+	c #2A4219",
"c+	c #B38518",
"d+	c #A77513",
"e+	c #AB841F",
"f+	c #B28D1B",
"g+	c #B18D1F",
"h+	c #B5921B",
"i+	c #BDA735",
"j+	c #B89B22",
"k+	c #948A27",
"l+	c #123A1F",
"m+	c #103018",
"n+	c #14381D",
"o+	c #113C1F",
"p+	c #173D22",
"q+	c #1A4025",
"r+	c #183921",
"s+	c #142117",
"t+	c #1A3B25",
"u+	c #245032",
"v+	c #0C3216",
"w+	c #0D371A",
"x+	c #1F492D",
"y+	c #12331A",
"z+	c #344F25",
"A+	c #B58918",
"B+	c #AF820E",
"C+	c #B3911B",
"D+	c #AD8318",
"E+	c #B08D1F",
"F+	c #B39622",
"G+	c #B89E2B",
"H+	c #BAA336",
"I+	c #968627",
"J+	c #12391F",
"K+	c #1F4328",
"L+	c #153A1F",
"M+	c #22442A",
"N+	c #0D3016",
"O+	c #0A2C13",
"P+	c #173521",
"Q+	c #235435",
"R+	c #255536",
"S+	c #23432A",
"T+	c #23442A",
"U+	c #3E5C30",
"V+	c #BC9D28",
"W+	c #AC7C10",
"X+	c #B79526",
"Y+	c #AE8515",
"Z+	c #B29018",
"`+	c #B2921B",
" @	c #B79B22",
".@	c #B69922",
"+@	c #8D7B1E",
"@@	c #1D4228",
"#@	c #1C4327",
"$@	c #12381D",
"%@	c #12361C",
"&@	c #112F16",
"*@	c #113218",
"=@	c #0B2C14",
"-@	c #07140B",
";@	c #1E3926",
">@	c #21492C",
",@	c #1B472A",
"'@	c #1D4D2F",
")@	c #285E3F",
"!@	c #1F543B",
"~@	c #123924",
"{@	c #133C26",
"]@	c #31532D",
"^@	c #B48D18",
"/@	c #B79928",
"(@	c #B18D1B",
"_@	c #AF8817",
":@	c #B39522",
"<@	c #B4941F",
"[@	c #B08C19",
"}@	c #BDA731",
"|@	c #8C7A1F",
"1@	c #18412C",
"2@	c #0B341F",
"3@	c #012813",
"4@	c #082D18",
"5@	c #112E15",
"6@	c #113018",
"7@	c #08150B",
"8@	c #203E29",
"9@	c #2F593D",
"0@	c #1E4A2D",
"a@	c #42592A",
"b@	c #9A6F15",
"c@	c #96781A",
"d@	c #9B771B",
"e@	c #A38322",
"f@	c #B28E1F",
"g@	c #B3901F",
"h@	c #B09022",
"i@	c #B89A2E",
"j@	c #B6982C",
"k@	c #B3941F",
"l@	c #B79825",
"m@	c #BA9E32",
"n@	c #B49629",
"o@	c #A28523",
"p@	c #9F8925",
"q@	c #A08925",
"r@	c #706211",
"s@	c #0A2E15",
"t@	c #123118",
"u@	c #203F28",
"v@	c #122117",
"w@	c #254732",
"x@	c #234E31",
"y@	c #1E4629",
"z@	c #11391F",
"A@	c #434F19",
"B@	c #9D7615",
"C@	c #A7750F",
"D@	c #B89C28",
"E@	c #B89A21",
"F@	c #B89D25",
"G@	c #B99C27",
"H@	c #BCA737",
"I@	c #B69521",
"J@	c #B69D3C",
"K@	c #B7941F",
"L@	c #B89820",
"M@	c #B28D1F",
"N@	c #76691F",
"O@	c #194129",
"P@	c #133C1F",
"Q@	c #1D4226",
"R@	c #1D3F26",
"S@	c #0B1B11",
"T@	c #193E28",
"U@	c #1B4B2C",
"V@	c #1E472B",
"W@	c #13351C",
"X@	c #103118",
"Y@	c #0F341C",
"Z@	c #2D431B",
"`@	c #98791C",
" #	c #AD7910",
".#	c #A77C13",
"+#	c #AD8010",
"@#	c #B79A25",
"##	c #BA9F2B",
"$#	c #B09024",
"%#	c #AD8618",
"&#	c #B08612",
"*#	c #BB991E",
"=#	c #585F27",
"-#	c #396347",
";#	c #184728",
">#	c #244C30",
",#	c #254930",
"'#	c #102015",
")#	c #0A2C15",
"!#	c #194628",
"~#	c #1C4328",
"{#	c #0E2E15",
"]#	c #0D2C13",
"^#	c #193B21",
"/#	c #22462C",
"(#	c #1F4324",
"_#	c #8D7C20",
":#	c #B28A1B",
"<#	c #AC8014",
"[#	c #AE8419",
"}#	c #B08E1F",
"|#	c #AF891F",
"1#	c #A97C14",
"2#	c #B08618",
"3#	c #B58D18",
"4#	c #B68912",
"5#	c #39572C",
"6#	c #366044",
"7#	c #4E785C",
"8#	c #3B6649",
"9#	c #28593A",
"0#	c #204A2F",
"a#	c #1E4228",
"b#	c #0F1E14",
"c#	c #102F1A",
"d#	c #183F24",
"e#	c #1F4228",
"f#	c #0F3318",
"g#	c #0B2C12",
"h#	c #18391F",
"i#	c #1B3F24",
"j#	c #22472D",
"k#	c #807522",
"l#	c #BA9C30",
"m#	c #BAA12F",
"n#	c #B69925",
"o#	c #AD8312",
"p#	c #B6951F",
"q#	c #BDA739",
"r#	c #A98E24",
"s#	c #395932",
"t#	c #2A5338",
"u#	c #497155",
"v#	c #477053",
"w#	c #275033",
"x#	c #1F4E2F",
"y#	c #1A4126",
"z#	c #1A3922",
"A#	c #08150C",
"B#	c #19321F",
"C#	c #12351B",
"D#	c #18371E",
"E#	c #0F391F",
"F#	c #646C2C",
"G#	c #B5901B",
"H#	c #AC861B",
"I#	c #A67811",
"J#	c #B38318",
"K#	c #8E791C",
"L#	c #3F5633",
"M#	c #1C4128",
"N#	c #264C30",
"O#	c #284E33",
"P#	c #20472C",
"Q#	c #1B492B",
"R#	c #0F2C15",
"S#	c #07130A",
"T#	c #152F1C",
"U#	c #0C2E14",
"V#	c #295235",
"W#	c #133B1F",
"X#	c #143B1F",
"Y#	c #23462C",
"Z#	c #22482C",
"`#	c #10361B",
" $	c #394A1A",
".$	c #B0861B",
"+$	c #B0831E",
"@$	c #78671B",
"#$	c #1E4222",
"$$	c #294C33",
"%$	c #1D4026",
"&$	c #1C4025",
"*$	c #2F573B",
"=$	c #133D20",
"-$	c #164627",
";$	c #295035",
">$	c #11321B",
",$	c #0B190F",
"'$	c #102A17",
")$	c #204328",
"!$	c #1B4428",
"~$	c #1A4327",
"{$	c #153B20",
"]$	c #163A1F",
"^$	c #1B4227",
"/$	c #355120",
"($	c #797424",
"_$	c #133D25",
":$	c #12361B",
"<$	c #123218",
"[$	c #163B20",
"}$	c #0D3519",
"|$	c #224E31",
"1$	c #2A5739",
"2$	c #1C4528",
"3$	c #0F1F14",
"4$	c #152E1B",
"5$	c #22482D",
"6$	c #1F472B",
"7$	c #1B3D23",
"8$	c #183D23",
"9$	c #164227",
"0$	c #2A523C",
"a$	c #224329",
"b$	c #15341B",
"c$	c #102D15",
"d$	c #0C2C13",
"e$	c #0D3115",
"f$	c #12391D",
"g$	c #0F3519",
"h$	c #1B4327",
"i$	c #255134",
"j$	c #284F35",
"k$	c #21442B",
"l$	c #08200D",
"m$	c #1E4227",
"n$	c #1C4629",
"o$	c #163C21",
"p$	c #1B3E23",
"q$	c #0F3218",
"r$	c #163C20",
"s$	c #184125",
"t$	c #2B4F34",
"u$	c #17391F",
"v$	c #143218",
"w$	c #132F17",
"x$	c #1E3D24",
"y$	c #12371C",
"z$	c #163C22",
"A$	c #0A180E",
"B$	c #0F2815",
"C$	c #193E24",
"D$	c #254C31",
"E$	c #163920",
"F$	c #12331B",
"G$	c #113118",
"H$	c #14321B",
"I$	c #16391F",
"J$	c #2F5239",
"K$	c #1B3B23",
"L$	c #1E3A22",
"M$	c #18381F",
"N$	c #1E3E25",
"O$	c #15331B",
"P$	c #214229",
"Q$	c #1C4228",
"R$	c #1F462C",
"S$	c #1A3221",
"T$	c #243D2B",
"U$	c #1D3926",
"V$	c #25402D",
"W$	c #233F2C",
"X$	c #1A3421",
"Y$	c #1A3321",
"Z$	c #1D3423",
"`$	c #152C1A",
" %	c #172D1B",
".%	c #1D3422",
"+%	c #354D3C",
"@%	c #2A4633",
"#%	c #223E2B",
"$%	c #233E2B",
"%%	c #1B3221",
"&%	c #142C1B",
"*%	c #17321F",
"=%	c #203525",
"-%	c #152A19",
";%	c #203625",
">%	c #28422F",
",%	c #1C3925",
"'%	c #0E1B12",
")%	c #283D2D",
"!%	c #2C4232",
"~%	c #223C2A",
"{%	c #233C2B",
"]%	c #243B2B",
"^%	c #1B3120",
"/%	c #1F3525",
"(%	c #29402F",
"_%	c #1A2F1F",
":%	c #2A3F2F",
"<%	c #2E4534",
"[%	c #243B2A",
"}%	c #253F2E",
"|%	c #26402F",
"1%	c #263E2D",
"2%	c #223928",
"3%	c #18301F",
"4%	c #1B301F",
"5%	c #253B2B",
"6%	c #203424",
"7%	c #2A4130",
"8%	c #2F4635",
"  . + @ # $ % & * = - ; > , ' ) ! ~ { ] ^ / ( _ :   ",
"< [ } | 1 [ 2 3 4 5 6 7 8 9 0 a b c d 3 e f g h i j ",
"k l m n } o p q r s t u v w x y z A B C D E F G H I ",
"J K & & L M N * O P Q R S T U V W X Y & Z `  ...+.@.",
"#.$.%.L &.*.=.-.;.>.,.'.).!.~.{.].^./.(._.:.<.[.}.|.",
"1.2.3.4.5.M 6.7.8.9.0.a.b.c.d.e.f.g.h.i.j.k.l.m.n.o.",
"p.q.o r.&.s.t.u.v.w.x.y.z.A.B.C.D.E.F.G.H.I.J.K.L.M.",
"N.%.O.P.Q.R.L S.T.U.V.W.X.Y.Z.`. +.+++@+#+$+%+&+$.*+",
"=+-+;+x >+,+'+)+!+~+{+]+^+/+(+_+:+<+[+}+|+1+2+3+4+5+",
"6+7+8+N 9+0+a+M b+c+d+e+f+g+h+i+j+k+l+m+n+o+p+q+r+s+",
"t+u+{ v+w+x+y+o z+A+B+C+D+E+F+G+H+I+J+K+L+0+M+N+O+5+",
"P+P P l.Q+R+S+T+U+V+W+X+Y+Z+`+ @.@+@@@#@$@%@&@*@=@-@",
";@>@,@'@)@!@~@{@]@^@/@(@_@:@<@[@}@|@1@2@3@4@5@6@$ 7@",
"8@9@,@0@a@b@c@d@e@f@g@h@i@j@k@l@m@n@o@p@q@r@s@t@u@v@",
"w@B x@y@z@A@B@C@^@D@E@F@:+G@H@I@J@K@L@M@N@O@P@Q@R@S@",
"T@U@V@W@X@Y@Z@`@ #.#+#@###$#@#%#&#L@*#=#-#O ;#>#,#'#",
")#!#~#{#]#^#/#(#_#:#<#[#}#|#1#2#3#4#5#6#7#8#9#0#a#b#",
"c#d#e#f#g#h#i#j#F.k#l#m#n#o#p#q#r#s#t#u#v#w#x#y#z#A#",
"B#C#S.h.C#D#o l d#E#F#G#H#I#J#K#L#M#= N#O#P#Q#L+R#S#",
"T#U#;+V#W#X#L+l Y#Z#`# $.$+$@$#$$$%$&$*$=$&+-$;$>$,$",
"'$)$& !$~$3+{$]$o & ^${ /$($_$:$<$e#[$}$|$1$U@2$C#3$",
"4$M 5$k.3+6$)+& 7$e#8$6$9$0$a$b$c$d$e$f$g$h$i$j$k$b#",
"l$m$^$W#n$P.o$=.p$(.q$r$s$t$u$v$w$x$u.y$C#K+z$..& A$",
"B$/#4+C$5$D$E$F$G$H$> K I$J$,+K$L$M$l F$N$O$P$Q$R$-@",
"k S$T$U$V$W$X$Y$Z$`$ %.%+%@%#%$%%%&%*%%%=%-%;%>%,%'%",
"  )%!%~%{%]%^%/%(%_%:%<%[%}%|%1%2%/%3%4%5%6%7%8%2%  "};
