/* XPM */
static char * shade_toggled_inactive_xpm[] = {
"26 26 647 2",
"  	c None",
". 	c #1D4628",
"+ 	c #396243",
"@ 	c #0E3618",
"# 	c #1B4325",
"$ 	c #174222",
"% 	c #214E2D",
"& 	c #1F4E2D",
"* 	c #1C4E2B",
"= 	c #285937",
"- 	c #1F4D2B",
"; 	c #123B1B",
"> 	c #153D1E",
", 	c #173E1F",
"' 	c #1E4929",
") 	c #224F2F",
"! 	c #3F6E4C",
"~ 	c #3C714E",
"{ 	c #1E5531",
"] 	c #427351",
"^ 	c #275B38",
"/ 	c #336D48",
"( 	c #255F3A",
"_ 	c #295F3C",
": 	c #2E5F3D",
"< 	c #1A3C22",
"[ 	c #3D6D49",
"} 	c #3C6C48",
"| 	c #30603C",
"1 	c #315C3B",
"2 	c #477954",
"3 	c #417751",
"4 	c #336B44",
"5 	c #3E764F",
"6 	c #2F633E",
"7 	c #31613D",
"8 	c #2C5B37",
"9 	c #2C5936",
"0 	c #2F5F3B",
"a 	c #30623E",
"b 	c #598F69",
"c 	c #6BA67E",
"d 	c #45825A",
"e 	c #4C855E",
"f 	c #4B8B62",
"g 	c #47855C",
"h 	c #3C7850",
"i 	c #3E7751",
"j 	c #172B1D",
"k 	c #103118",
"l 	c #245230",
"m 	c #2F5D3B",
"n 	c #33623F",
"o 	c #3C6B48",
"p 	c #255331",
"q 	c #2E5E3B",
"r 	c #457954",
"s 	c #386F49",
"t 	c #407851",
"u 	c #30643F",
"v 	c #2D5F3B",
"w 	c #2F5E3B",
"x 	c #376542",
"y 	c #2D5D3A",
"z 	c #1A4A26",
"A 	c #588E68",
"B 	c #4C865F",
"C 	c #356F48",
"D 	c #376A45",
"E 	c #316742",
"F 	c #46835B",
"G 	c #3A6F4A",
"H 	c #49805A",
"I 	c #417653",
"J 	c #182C1F",
"K 	c #183A21",
"L 	c #174423",
"M 	c #204F2D",
"N 	c #204E2D",
"O 	c #1A4826",
"P 	c #1C4B28",
"Q 	c #0E3E1C",
"R 	c #1C4F2B",
"S 	c #437954",
"T 	c #346D47",
"U 	c #215832",
"V 	c #1C4F2A",
"W 	c #134420",
"X 	c #386745",
"Y 	c #336541",
"Z 	c #2C623D",
"` 	c #3C734E",
" .	c #2B653E",
"..	c #1A502B",
"+.	c #204E2C",
"@.	c #1E4F2B",
"#.	c #2F6741",
"$.	c #2E5D3B",
"%.	c #215631",
"&.	c #2A5E3B",
"*.	c #152B1E",
"=.	c #23452C",
"-.	c #204D2C",
";.	c #13411E",
">.	c #2A5837",
",.	c #265431",
"'.	c #11411E",
").	c #2D613C",
"!.	c #3D754F",
"~.	c #20603C",
"{.	c #3B7754",
"].	c #205837",
"^.	c #1C5332",
"/.	c #235938",
"(.	c #1C5433",
"_.	c #2D6845",
":.	c #316E4B",
"<.	c #16522F",
"[.	c #1F522E",
"}.	c #204C2B",
"|.	c #103F1C",
"1.	c #2B623C",
"2.	c #2A5E3A",
"3.	c #245B35",
"4.	c #255836",
"5.	c #112518",
"6.	c #2F5037",
"7.	c #224F2D",
"8.	c #23512F",
"9.	c #457250",
"0.	c #154320",
"a.	c #194926",
"b.	c #285B37",
"c.	c #305E2F",
"d.	c #848824",
"e.	c #8B9231",
"f.	c #889029",
"g.	c #858525",
"h.	c #828524",
"i.	c #828A28",
"j.	c #889230",
"k.	c #8B9930",
"l.	c #819842",
"m.	c #1F512E",
"n.	c #143F1E",
"o.	c #164322",
"p.	c #1C512C",
"q.	c #235E37",
"r.	c #2A643E",
"s.	c #1E4F2E",
"t.	c #0E2013",
"u.	c #36543C",
"v.	c #13401E",
"w.	c #255330",
"x.	c #487956",
"y.	c #1E4827",
"z.	c #164522",
"A.	c #1A4B28",
"B.	c #446C37",
"C.	c #EEBC21",
"D.	c #DF9D0C",
"E.	c #DF9E15",
"F.	c #E3A516",
"G.	c #F0C222",
"H.	c #E3A914",
"I.	c #E8AF1D",
"J.	c #EFC427",
"K.	c #C9B63B",
"L.	c #1B4E2C",
"M.	c #173D1D",
"N.	c #244F2E",
"O.	c #265F39",
"P.	c #1A5931",
"Q.	c #19542E",
"R.	c #2D5E3C",
"S.	c #102115",
"T.	c #27452D",
"U.	c #14411E",
"V.	c #21522F",
"W.	c #2A5F3A",
"X.	c #2B5937",
"Y.	c #183E1E",
"Z.	c #21512E",
"`.	c #436634",
" +	c #ECBB2C",
".+	c #E4AB1C",
"++	c #DB9E10",
"@+	c #DAA119",
"#+	c #EDC22E",
"$+	c #ECBD29",
"%+	c #E8AF1A",
"&+	c #E8B11A",
"*+	c #CCC035",
"=+	c #245A36",
"-+	c #1B3F20",
";+	c #285332",
">+	c #38754E",
",+	c #3A764F",
"'+	c #316B45",
")+	c #1F4D2D",
"!+	c #0A1A0E",
"~+	c #1D4329",
"{+	c #215530",
"]+	c #1F502D",
"^+	c #2C5D3A",
"/+	c #22502E",
"(+	c #194423",
"_+	c #154220",
":+	c #245431",
"<+	c #3F5F2A",
"[+	c #E5A20D",
"}+	c #E5A714",
"|+	c #D99416",
"1+	c #E2AC1B",
"2+	c #E7B221",
"3+	c #EFC027",
"4+	c #E6B422",
"5+	c #EFC426",
"6+	c #BEAC1E",
"7+	c #205632",
"8+	c #224929",
"9+	c #194523",
"0+	c #2D6741",
"a+	c #1C542F",
"b+	c #205731",
"c+	c #285636",
"d+	c #18281C",
"e+	c #1E492D",
"f+	c #225A34",
"g+	c #1C502B",
"h+	c #0F3D1B",
"i+	c #1E4D2B",
"j+	c #144522",
"k+	c #184422",
"l+	c #1B4B28",
"m+	c #375621",
"n+	c #EBAE20",
"o+	c #DA9919",
"p+	c #E0AD28",
"q+	c #E9B823",
"r+	c #E8B829",
"s+	c #EDBF23",
"t+	c #F7DB46",
"u+	c #F1CB2C",
"v+	c #C2B533",
"w+	c #174C28",
"x+	c #153F1F",
"y+	c #1A4926",
"z+	c #164E28",
"A+	c #1E502C",
"B+	c #225430",
"C+	c #1F4B2B",
"D+	c #1A2B1E",
"E+	c #224D31",
"F+	c #2F6942",
"G+	c #1E5530",
"H+	c #10411D",
"I+	c #114822",
"J+	c #29603B",
"K+	c #184322",
"L+	c #255231",
"M+	c #446830",
"N+	c #EDB320",
"O+	c #E5AA12",
"P+	c #EABE24",
"Q+	c #E3AC20",
"R+	c #E6B928",
"S+	c #EBC52D",
"T+	c #F1CF38",
"U+	c #F4D547",
"V+	c #C4B033",
"W+	c #174A28",
"X+	c #295835",
"Y+	c #1B4C29",
"Z+	c #144622",
"`+	c #2C5937",
" @	c #113F1D",
".@	c #0D3919",
"+@	c #17281C",
"@@	c #1E462B",
"#@	c #356D47",
"$@	c #245E37",
"%@	c #2E6E45",
"&@	c #316F47",
"*@	c #2E5837",
"=@	c #2E5937",
"-@	c #51783F",
";@	c #F6CE34",
">@	c #E1A315",
",@	c #EFC332",
"'@	c #E4AE1B",
")@	c #E9BC20",
"!@	c #E9BF23",
"~@	c #F0CB2C",
"{@	c #EEC82C",
"]@	c #B9A127",
"^@	c #265735",
"/@	c #255833",
"(@	c #174926",
"_@	c #184725",
":@	c #163E1D",
"<@	c #164220",
"[@	c #0F3A1A",
"}@	c #091A0E",
"|@	c #274B32",
"1@	c #2B603A",
"2@	c #235D37",
"3@	c #26653D",
"4@	c #357B53",
"5@	c #296E4D",
"6@	c #184B2F",
"7@	c #194F32",
"8@	c #406D3B",
"9@	c #ECB81F",
"0@	c #EFC834",
"a@	c #E8B923",
"b@	c #E5B21E",
"c@	c #EBC32C",
"d@	c #ECC229",
"e@	c #E6B721",
"f@	c #F7DB40",
"g@	c #B7A028",
"h@	c #20553A",
"i@	c #0E4428",
"j@	c #013519",
"k@	c #0A3B1F",
"l@	c #163C1B",
"m@	c #163F1F",
"n@	c #174122",
"o@	c #0A1B0F",
"p@	c #2A5136",
"q@	c #3D7450",
"r@	c #245D37",
"s@	c #27613B",
"t@	c #577537",
"u@	c #CA911C",
"v@	c #C59D22",
"w@	c #CB9C23",
"x@	c #D5AB2D",
"y@	c #E9BA29",
"z@	c #EABC28",
"A@	c #E7BD2D",
"B@	c #F1C93C",
"C@	c #EEC739",
"D@	c #EAC228",
"E@	c #F0C731",
"F@	c #F4CF41",
"G@	c #ECC436",
"H@	c #D4AE2E",
"I@	c #D0B330",
"J@	c #D1B430",
"K@	c #928016",
"L@	c #0D3C1C",
"M@	c #17401F",
"N@	c #2A5334",
"O@	c #182B1E",
"P@	c #315D41",
"Q@	c #346F48",
"R@	c #2E6640",
"S@	c #275B36",
"T@	c #164A29",
"U@	c #586721",
"V@	c #CE9B1B",
"W@	c #DA9913",
"X@	c #F1CC35",
"Y@	c #F1CA2B",
"Z@	c #F1CD30",
"`@	c #EFC526",
" #	c #F2CC33",
".#	c #F6DA48",
"+#	c #EEC32B",
"@#	c #EECD4F",
"##	c #F0C229",
"$#	c #F1C72A",
"%#	c #E9B928",
"&#	c #9A8A28",
"*#	c #215536",
"=#	c #194E28",
"-#	c #265632",
";#	c #265232",
">#	c #0F2316",
",#	c #215134",
"'#	c #24623A",
")#	c #275D38",
"!#	c #194625",
"~#	c #15401F",
"{#	c #134425",
"]#	c #3B5824",
"^#	c #C79F25",
"/#	c #E29E15",
"(#	c #DBA219",
"_#	c #E2A815",
":#	c #EFCA31",
"<#	c #F3D038",
"[#	c #E7BD2F",
"}#	c #F0CA31",
"|#	c #E3B020",
"1#	c #E7B018",
"2#	c #F5C827",
"3#	c #737D33",
"4#	c #4A815D",
"5#	c #437854",
"6#	c #205D35",
"7#	c #2F643F",
"8#	c #30603F",
"9#	c #152A1C",
"0#	c #0D391C",
"a#	c #215C35",
"b#	c #255834",
"c#	c #123C1C",
"d#	c #113919",
"e#	c #214D2B",
"f#	c #2C5B39",
"g#	c #28582F",
"h#	c #B8A22A",
"i#	c #E9B524",
"j#	c #E1A81A",
"k#	c #E4AD21",
"l#	c #E6BA29",
"m#	c #E5B429",
"n#	c #DDA31A",
"o#	c #E6B01F",
"p#	c #EDB91F",
"q#	c #EEB417",
"r#	c #4B7239",
"s#	c #477E59",
"t#	c #669D78",
"u#	c #4D8560",
"v#	c #35754C",
"w#	c #2A613D",
"x#	c #275635",
"y#	c #13271A",
"z#	c #153D22",
"A#	c #1F532F",
"B#	c #285734",
"C#	c #144320",
"D#	c #0E3918",
"E#	c #204A29",
"F#	c #24522F",
"G#	c #2D5D3B",
"H#	c #1B4F2C",
"I#	c #A8992D",
"J#	c #F3CC3F",
"K#	c #F4D33E",
"L#	c #EEC831",
"M#	c #E3AB17",
"N#	c #EEC328",
"O#	c #F8DA4A",
"P#	c #DDBA2F",
"Q#	c #4A7441",
"R#	c #376D49",
"S#	c #5F946F",
"T#	c #5D926D",
"U#	c #336943",
"V#	c #29663E",
"W#	c #225532",
"X#	c #224B2C",
"Y#	c #0A1C10",
"Z#	c #214229",
"`#	c #184624",
" $	c #20512E",
".$	c #174624",
"+$	c #1F4827",
"@$	c #255230",
"#$	c #245331",
"$$	c #20522F",
"%$	c #134B29",
"&$	c #838E39",
"*$	c #EDBC24",
"=$	c #E1AF24",
"-$	c #D99D16",
";$	c #EAAC20",
">$	c #BA9F25",
",$	c #527143",
"'$	c #255534",
")$	c #295937",
"!$	c #32633F",
"~$	c #356643",
"{$	c #2A5D39",
"]$	c #235F38",
"^$	c #1C4C28",
"/$	c #13391B",
"($	c #09190D",
"_$	c #1C3D25",
":$	c #103C1A",
"<$	c #366B46",
"[$	c #194D28",
"}$	c #1A4D28",
"|$	c #1C4C29",
"1$	c #235230",
"2$	c #2E5C3A",
"3$	c #2D5E3A",
"4$	c #154723",
"5$	c #4A6122",
"6$	c #E7AF24",
"7$	c #E7AB27",
"8$	c #9D8723",
"9$	c #27562D",
"0$	c #366443",
"a$	c #265432",
"b$	c #255431",
"c$	c #3E724D",
"d$	c #19502A",
"e$	c #306C45",
"f$	c #1D5C33",
"g$	c #366945",
"h$	c #164123",
"i$	c #0E2114",
"j$	c #15371E",
"k$	c #2A5835",
"l$	c #1F4F2C",
"m$	c #245934",
"n$	c #225833",
"o$	c #205630",
"p$	c #1B4D2A",
"q$	c #1D4C29",
"r$	c #245733",
"s$	c #456A2A",
"t$	c #9E982F",
"u$	c #195031",
"v$	c #184724",
"w$	c #174220",
"x$	c #295634",
"y$	c #1D4D2A",
"z$	c #114521",
"A$	c #2D6640",
"B$	c #37724B",
"C$	c #255A35",
"D$	c #174524",
"E$	c #14281A",
"F$	c #1B3C23",
"G$	c #1C4B29",
"H$	c #2D5E3B",
"I$	c #1B512C",
"J$	c #205631",
"K$	c #285D38",
"L$	c #235431",
"M$	c #204F2C",
"N$	c #23502E",
"O$	c #295734",
"P$	c #20502E",
"Q$	c #1D5633",
"R$	c #376C4E",
"S$	c #2C5836",
"T$	c #1B4423",
"U$	c #153B1B",
"V$	c #103919",
"W$	c #11401C",
"X$	c #174A26",
"Y$	c #134621",
"Z$	c #235833",
"`$	c #316A44",
" %	c #346845",
".%	c #2B5938",
"+%	c #14271A",
"@%	c #0A2A11",
"#%	c #275633",
"$%	c #245633",
"%%	c #255B36",
"&%	c #1D4E2B",
"*%	c #23512E",
"=%	c #13421F",
"-%	c #1D4E2A",
";%	c #205530",
">%	c #386744",
",%	c #1E4A29",
"'%	c #1A4120",
")%	c #193D1E",
"!%	c #27502F",
"~%	c #184825",
"{%	c #285835",
"]%	c #1D4F2C",
"^%	c #0D1F12",
"/%	c #13341C",
"(%	c #2D5B39",
"_%	c #295736",
":%	c #21512F",
"<%	c #2C5E3B",
"[%	c #316340",
"}%	c #1D4B2A",
"|%	c #174323",
"1%	c #16401F",
"2%	c #1A4123",
"3%	c #153E1E",
"4%	c #184424",
"5%	c #1D4A28",
"6%	c #3E6B4A",
"7%	c #194424",
"8%	c #244D2E",
"9%	c #274C2D",
"0%	c #1F4929",
"a%	c #245231",
"b%	c #275131",
"c%	c #1B4324",
"d%	c #2B5636",
"e%	c #255734",
"f%	c #295B39",
"g%	c #103018",
"h%	c #22422B",
"i%	c #2F5038",
"j%	c #264A32",
"k%	c #30543B",
"l%	c #2E533A",
"m%	c #22442B",
"n%	c #22432B",
"o%	c #26442E",
"p%	c #1C3922",
"q%	c #1E3B24",
"r%	c #26442C",
"s%	c #45654E",
"t%	c #375C43",
"u%	c #2D5138",
"v%	c #2E5138",
"w%	c #24422B",
"x%	c #1A3A23",
"y%	c #1E4129",
"z%	c #23422B",
"A%	c #2A4630",
"B%	c #1C3721",
"C%	c #2A4731",
"D%	c #34573E",
"E%	c #254B31",
"F%	c #122317",
"G%	c #34503B",
"H%	c #395741",
"I%	c #2D4E37",
"J%	c #2E4F38",
"K%	c #2F4D38",
"L%	c #23402A",
"M%	c #294631",
"N%	c #36543E",
"O%	c #223D28",
"P%	c #37523D",
"Q%	c #3C5A44",
"R%	c #2F4D37",
"S%	c #31533C",
"T%	c #32543D",
"U%	c #32513B",
"V%	c #2C4A34",
"W%	c #284631",
"X%	c #1F3F29",
"Y%	c #233F29",
"Z%	c #314D38",
"`%	c #2A442F",
" &	c #37553F",
".&	c #3D5B45",
"+&	c #2C4B35",
"  . + @ # $ % & * = - ; > , ' ) ! ~ { ] ^ / ( _ :   ",
"< [ } | 1 [ 2 3 4 5 6 7 8 9 0 a b c d 3 e f g h i j ",
"k l m n o p q r s t u v w x y z A B C D E F G H I J ",
"K L M N O P Q R S T U V W X Y Z `  ...+.@.#.$.%.&.*.",
"=.-.;.O >.,.'.).!.~.{.].^./.(._.:.<.[.}.|.1.2.3.4.5.",
"6.7.8.9.0.P a.b.c.d.e.f.g.h.i.j.k.l.m.n.o.p.q.r.s.t.",
"u.v.w.x.>.y.z.A.B.C.D.E.F.G.H.I.J.K.L.M.N.O.P.Q.R.S.",
"T.U.V.W.X.Y.O Z.`. +.+++@+#+$+%+&+*+=+-+;+>+,+'+)+!+",
"~+{+]+^+/+(+_+:+<+[+}+|+1+2+3+4+5+6+7+8+9+0+a+b+c+d+",
"e+f+g+h+i+j+k+l+m+n+o+p+q+r+s+t+u+v+w+x+y+z+A+B+C+D+",
"E+F+G+H+I+J+K+L+M+N+O+P+Q+R+S+T+U+V+W+X+Y+Z+`+ @.@+@",
"@@#@#@$@%@&@*@=@-@;@>@,@'@)@!@~@{@]@^@/@(@_@:@<@[@}@",
"|@1@2@3@4@5@6@7@8@9@0@a@b@c@d@e@f@g@h@i@j@k@l@m@n@o@",
"p@q@r@s@t@u@v@w@x@y@z@A@B@C@D@E@F@G@H@I@J@K@L@M@N@O@",
"P@Q@R@S@T@U@V@W@9@X@Y@Z@`@ #.#+#@###$#%#&#*#=#-#;#>#",
",#'#)#!#~#{#]#^#/#(#_#:#<#[#}#|#1#$#2#3#4#5#6#7#8#9#",
"0#a#b#c#d#e#f#g#h#i#j#k#l#m#n#o#p#q#r#s#t#u#v#w#x#y#",
"z#A#B#C#D#E#F#G#H#I#J#K#L#M#N#O#P#Q#R#S#T#U#V#W#X#Y#",
"Z#`#Z. $.$+$@$#$$$%$&$*$=$-$;$>$,$'$)$!$~${$]$^$/$($",
"_$:$]+<$[$}$|$1$2$3$4$5$6$7$8$9$0$a$b$c$d$e$f$g$h$i$",
"j$k$l$m$n$o$p$q$@$M r${ s$t$u$v$w$x$y$z$A$B$'#C$D$E$",
"F$G$H$I$J$K$L$M$N$O$P$K$Q$R$S$T$U$V$W$X$Y$Z$`$ %.%+%",
"@%#%$%[$%%W.&%'.*%}.=%-%;%>%,%'%)%!%A.~%.${%]%%.& ^%",
"/%(%_%:%<%[%}%|%1%2%3%4%5%6%7%8%9%0%a%|%b%c%d%e%f%}@",
"g%h%i%j%k%l%m%n%o%p%q%r%s%t%u%v%w%x%y%z%A%B%C%D%E%F%",
"  G%H%I%J%K%L%M%N%O%P%Q%R%S%T%U%V%W%X%Y%Z%`% &.&+&  "};
