/* XPM */
static char * title_3_inactive_xpm[] = {
"2 26 37 1",
" 	c None",
".	c #421507",
"+	c #421607",
"@	c #431608",
"#	c #451708",
"$	c #4D1C0B",
"%	c #4B1B0A",
"&	c #461808",
"*	c #451808",
"=	c #49190A",
"-	c #4F1D0C",
";	c #53200E",
">	c #4F1F0C",
",	c #401506",
"'	c #441708",
")	c #46180A",
"!	c #451608",
"~	c #481809",
"{	c #4B1B0B",
"]	c #481909",
"^	c #461809",
"/	c #4A1A09",
"(	c #491A0A",
"_	c #421508",
":	c #421608",
"<	c #521F0D",
"[	c #521F0E",
"}	c #4D1C0C",
"|	c #58200F",
"1	c #56210F",
"2	c #56200F",
"3	c #491909",
"4	c #491A09",
"5	c #471809",
"6	c #4A190A",
"7	c #421506",
"8	c #4C1B0B",
".+",
"@#",
"$%",
"&&",
"*=",
"-;",
">,",
"')",
"#!",
"~{",
"{]",
"^=",
"/(",
"_:",
"<[",
"}-",
"||",
"12",
"34",
"]5",
"{{",
"(6",
":7",
"/8",
"&.",
"%#"};
