/* XPM */
static char * top_left_inactive_xpm[] = {
"2 26 37 1",
" 	c #571D09",
".	c #571C09",
"+	c #581D09",
"@	c #5A1E0B",
"#	c #63240E",
"$	c #62230E",
"%	c #5B1F0A",
"&	c #5B1F0B",
"*	c #5A1F0A",
"=	c #5F210C",
"-	c #662610",
";	c #6C2A12",
">	c #682710",
",	c #541C08",
"'	c #5A1E0A",
")	c #5C1F0B",
"!	c #5B1E0A",
"~	c #5E200C",
"{	c #61220D",
"]	c #62220D",
"^	c #5E210C",
"/	c #5D200B",
"(	c #60220C",
"_	c #581D0A",
":	c #571D0A",
"<	c #6B2711",
"[	c #6B2811",
"}	c #662510",
"|	c #722A13",
"1	c #702A12",
"2	c #702A13",
"3	c #60210C",
"4	c #5D200C",
"5	c #62220E",
"6	c #63230E",
"7	c #60220D",
"8	c #591E0A",
" .",
"+@",
"#$",
"%&",
"*=",
"-;",
">,",
"')",
"!'",
"~{",
"]^",
"/=",
"((",
"_:",
"<[",
"}>",
"||",
"12",
"=3",
"^4",
"5$",
"=3",
"_.",
"(6",
") ",
"78"};
